<?xml version="1.0" encoding="UTF-8"?>
<svg id="Layer_2" xmlns="http://www.w3.org/2000/svg" viewBox="0 0 149.2735 102.4347">
  <defs>
    <style>
      .cls-1 {
        fill: #f0f0ee;
      }
    </style>
  </defs>
  <g id="Layer_1-2" data-name="Layer_1">
    <g>
      <g>
        <path class="cls-1" d="M9.3211,63.0104v.1927c-.0515-.0898-.103-.167-.1538-.2568l.1538.064Z"/>
        <path class="cls-1" d="M149.2735,4.5479v97.8868h-12.2007c-.3023-9.5455-.6051-19.0904-.9074-28.6359-3.697,9.4111-7.3944,18.8216-11.0914,28.2327h-11.0914c-4.0332-9.0748-8.0665-18.1496-12.0997-27.2244.0704,9.2092.1413,18.4184.2117,27.6276h-12.2007V4.5479h12.2007c5.8081,23.4565,11.6158,46.9135,17.4239,70.37,5.8514-23.4565,11.7029-46.9135,17.5543-70.37h12.2007Z"/>
        <path class="cls-1" d="M9.3211,63.0104v.1927c-.0515-.0898-.103-.167-.1538-.2568l.1538.064Z"/>
      </g>
      <g>
        <path class="cls-1" d="M9.1673,62.9463c.0508.0898.1023.167.1538.2568v-.1927l-.1538-.064Z"/>
        <path class="cls-1" d="M82.4373,40.5111C82.4373,18.1664,64.2709,0,41.9255,0c-.2442,0-.4884,0-.7194.0126v-.0126H.1927v.2442h-.1927v100.539h12.2013v-20.4288c0-.0772-.0257-.1419-.0257-.2191v-3.4584l58.3561,24.8395,4.783-11.2239-24.235-10.3111c17.9479-4.1527,31.3577-20.275,31.3577-39.4703ZM9.3211,63.0104v.1927c-.0515-.0898-.103-.167-.1538-.2568l.1538.064ZM13.6282,40.5111c0-15.6082,12.6897-28.3105,28.2973-28.3105s28.3111,12.7023,28.3111,28.3105-12.7029,28.3105-28.3111,28.3105-28.2973-12.7023-28.2973-28.3105Z"/>
      </g>
      <path class="cls-1" d="M9.3211,63.0104v.1927c-.0515-.0898-.103-.167-.1538-.2568l.1538.064Z"/>
    </g>
  </g>
</svg>