<?xml version="1.0" encoding="UTF-8"?>
<svg id="Layer_2" xmlns="http://www.w3.org/2000/svg" viewBox="0 0 97.1514 35.9254">
  <defs>
    <style>
      .cls-1 {
        fill: #fff;
      }
    </style>
  </defs>
  <g id="Layer_1-2" data-name="Layer_1">
    <g>
      <path class="cls-1" d="M82.5283,15.4482H0v5.1988h82.1816c-3.372,4.9633-6.7073,9.8725-10.1417,14.9277,2.8352.8664,4.3774.0539,5.8996-1.6289,5.2444-5.7978,11.0148-10.9819,18.084-14.5443,1.4666-.7391,1.5118-2.506.0846-3.1976-7.2054-3.4918-13.0151-8.7575-18.3841-14.5346-1.5296-1.6459-3.0726-1.9981-5.7038-1.3909,3.5755,5.1617,6.9541,10.0391,10.5081,15.1698Z"/>
      <path d="M82.5283,15.4482c-3.5541-5.1307-6.9326-10.0081-10.5081-15.1698,2.6312-.6072,4.1742-.255,5.7038,1.3909,5.369,5.7771,11.1787,11.0429,18.3841,14.5346,1.4272.6916,1.382,2.4586-.0846,3.1976-7.0692,3.5623-12.8396,8.7465-18.084,14.5443-1.5222,1.6828-3.0644,2.4952-5.8996,1.6289,3.4345-5.0552,6.7697-9.9644,10.1417-14.9277H0v-5.1988h82.5283Z"/>
    </g>
  </g>
</svg>