<?xml version="1.0" encoding="UTF-8"?>
<svg id="Layer_2" xmlns="http://www.w3.org/2000/svg" viewBox="0 0 97.4166 97.9509">
  <g id="Layer_1-2" data-name="Layer_1">
    <g>
      <g>
        <path d="M34.2054.3576h2.7306v2.5518h.0512c.0847-.3567.251-.7059.4978-1.0459.2463-.3409.5443-.651.8931-.9322.3488-.2803.7357-.5057,1.1613-.6761.4251-.1695.8591-.2552,1.3015-.2552.3404,0,.5741.0093.7022.0261.1276.0168.2589.0335.3953.0503v2.8079c-.204-.0335-.4126-.0643-.6254-.0894s-.4209-.0382-.6254-.0382c-.4936,0-.9569.0978-1.3909.2934s-.8126.4852-1.1357.868-.5783.8549-.7655,1.4165c-.1877.5616-.2808,1.2079-.2808,1.9399v6.2779h-2.9094V.3576Z"/>
        <path d="M42.7883.3576h2.7562v1.8375h.0768c.2207-.3232.4591-.6212.7143-.8931s.5402-.502.8549-.6892.6766-.3362,1.085-.447c.4084-.1099.8759-.1658,1.4035-.1658.7995,0,1.5441.1788,2.2333.5364.6892.3567,1.1781.9099,1.4677,1.6587.4931-.6808,1.0631-1.2163,1.7099-1.6084.6463-.3911,1.4547-.5867,2.4247-.5867,1.3951,0,2.4796.3409,3.254,1.0207.7744.6808,1.1613,1.8216,1.1613,3.4207v9.111h-2.9094v-7.7075c0-.5271-.0172-1.0086-.0512-1.4417-.034-.434-.1318-.8084-.2934-1.1232-.162-.3148-.4042-.5569-.7273-.7273-.3236-.1704-.7655-.2552-1.3271-.2552-.9872,0-1.702.3055-2.1439.9183-.4428.6128-.6636,1.4808-.6636,2.6039v7.7326h-2.9099V5.0793c0-.9192-.1658-1.6121-.4978-2.0805-.3315-.4675-.9402-.7013-1.8244-.7013-.3749,0-.7362.0764-1.085.2291-.3488.1537-.6552.3744-.9187.664-.264.2896-.4764.6463-.6379,1.0719-.162.4256-.2426.9099-.2426,1.4547v7.8351h-2.9094V.3576Z"/>
      </g>
      <g>
        <path d="M61.9299,97.5933h-2.7306v-2.5518h-.0512c-.0847.3567-.251.7059-.4978,1.0459-.2463.3409-.5443.651-.8931.9322-.3488.2803-.7357.5057-1.1613.6761-.4251.1695-.8591.2552-1.3015.2552-.3404,0-.5741-.0093-.7022-.0261-.1276-.0168-.2589-.0335-.3953-.0503v-2.8079c.204.0335.4126.0643.6254.0894s.4209.0382.6254.0382c.4936,0,.9569-.0978,1.3909-.2934s.8126-.4852,1.1357-.868.5783-.8549.7655-1.4165c.1877-.5616.2808-1.2079.2808-1.9399v-6.2779h2.9094v13.1947Z"/>
        <path d="M53.347,97.5933h-2.7562v-1.8375h-.0768c-.2207.3232-.4591.6212-.7143.8931s-.5402.502-.8549.6892-.6766.3362-1.085.447c-.4084.1099-.8759.1658-1.4035.1658-.7995,0-1.5441-.1788-2.2333-.5364-.6892-.3567-1.1781-.9099-1.4677-1.6587-.4931.6808-1.0631,1.2163-1.7099,1.6084-.6463.3911-1.4547.5867-2.4247.5867-1.3951,0-2.4796-.3409-3.254-1.0207-.7744-.6808-1.1613-1.8216-1.1613-3.4207v-9.111h2.9094v7.7075c0,.5271.0172,1.0086.0512,1.4417.034.434.1318.8084.2934,1.1232.162.3148.4042.5569.7273.7273.3236.1704.7655.2552,1.3271.2552.9872,0,1.702-.3055,2.1439-.9183.4428-.6128.6636-1.4808.6636-2.6039v-7.7326h2.9099v8.473c0,.9192.1658,1.6121.4978,2.0805.3315.4675.9402.7013,1.8244.7013.3749,0,.7362-.0764,1.085-.2291.3488-.1537.6552-.3744.9187-.664.264-.2896.4764-.6463.6379-1.0719.162-.4256.2426-.9099.2426-1.4547v-7.8351h2.9094v13.1947Z"/>
      </g>
      <g>
        <path d="M97.0589,34.4078v2.7306h-2.5518v.0512c.3567.0847.7059.251,1.0459.4978.3409.2463.651.5443.9322.8931.2803.3488.5057.7357.6761,1.1613.1695.4251.2552.8591.2552,1.3015,0,.3404-.0093.5741-.0261.7022-.0168.1276-.0335.2589-.0503.3953h-2.8079c.0335-.204.0643-.4126.0894-.6254s.0382-.4209.0382-.6254c0-.4936-.0978-.9569-.2934-1.3909s-.4852-.8126-.868-1.1357-.8549-.5783-1.4165-.7655c-.5616-.1877-1.2079-.2808-1.9399-.2808h-6.2779v-2.9094h13.1947Z"/>
        <path d="M97.0589,42.9907v2.7562h-1.8375v.0768c.3232.2207.6212.4591.8931.7143s.502.5402.6892.8549.3362.6766.447,1.085c.1099.4084.1658.8759.1658,1.4035,0,.7995-.1788,1.5441-.5364,2.2333-.3567.6892-.9099,1.1781-1.6587,1.4677.6808.4931,1.2163,1.0631,1.6084,1.7099.3911.6463.5867,1.4547.5867,2.4247,0,1.3951-.3409,2.4796-1.0207,3.254-.6808.7744-1.8216,1.1613-3.4207,1.1613h-9.111v-2.9094h7.7075c.5271,0,1.0086-.0172,1.4417-.0512.434-.034.8084-.1318,1.1232-.2934.3148-.162.5569-.4042.7273-.7273.1704-.3236.2552-.7655.2552-1.3271,0-.9872-.3055-1.702-.9183-2.1439-.6128-.4428-1.4808-.6636-2.6039-.6636h-7.7326v-2.9099h8.473c.9192,0,1.6121-.1658,2.0805-.4978.4675-.3315.7013-.9402.7013-1.8244,0-.3749-.0764-.7362-.2291-1.085-.1537-.3488-.3744-.6552-.664-.9187-.2896-.264-.6463-.4764-1.0719-.6379-.4256-.162-.9099-.2426-1.4547-.2426h-7.8351v-2.9094h13.1947Z"/>
      </g>
      <g>
        <path d="M.3576,63.0859v-2.7306h2.5518v-.0512c-.3567-.0847-.7059-.251-1.0459-.4978-.3409-.2463-.651-.5443-.9322-.8931-.2803-.3488-.5057-.7357-.6761-1.1613-.1695-.4251-.2552-.8591-.2552-1.3015,0-.3404.0093-.5741.0261-.7022.0168-.1276.0335-.2589.0503-.3953h2.8079c-.0335.204-.0643.4126-.0894.6254s-.0382.4209-.0382.6254c0,.4936.0978.9569.2934,1.3909s.4852.8126.868,1.1357.8549.5783,1.4165.7655c.5616.1877,1.2079.2808,1.9399.2808h6.2779v2.9094H.3576Z"/>
        <path d="M.3576,54.503v-2.7562h1.8375v-.0768c-.3232-.2207-.6212-.4591-.8931-.7143s-.502-.5402-.6892-.8549-.3362-.6766-.447-1.085c-.1099-.4084-.1658-.8759-.1658-1.4035,0-.7995.1788-1.5441.5364-2.2333.3567-.6892.9099-1.1781,1.6587-1.4677-.6808-.4931-1.2163-1.0631-1.6084-1.7099-.3911-.6463-.5867-1.4547-.5867-2.4247,0-1.3951.3409-2.4796,1.0207-3.254.6808-.7744,1.8216-1.1613,3.4207-1.1613h9.111v2.9094h-7.7075c-.5271,0-1.0086.0172-1.4417.0512-.434.034-.8084.1318-1.1232.2934-.3148.162-.5569.4042-.7273.7273-.1704.3236-.2552.7655-.2552,1.3271,0,.9872.3055,1.702.9183,2.1439.6128.4428,1.4808.6636,2.6039.6636h7.7326v2.9099H5.0793c-.9192,0-1.6121.1658-2.0805.4978-.4675.3315-.7013.9402-.7013,1.8244,0,.3749.0764.7362.2291,1.085.1537.3488.3744.6552.664.9187.2896.264.6463.4764,1.0719.6379.4256.162.9099.2426,1.4547.2426h7.8351v2.9094H.3576Z"/>
      </g>
      <g>
        <path d="M72.2783,4.5643l1.9963,1.863-1.741,1.8656.0374.0349c.3053-.203.6651-.3449,1.0775-.425.4126-.0811.8421-.1045,1.289-.0722.4462.033.8829.1322,1.3104.298.4265.1661.8022.3996,1.1256.7014.2489.2322.4134.3985.4956.4982.0818.0993.1664.2012.2547.3065l-1.9157,2.0528c-.1262-.1637-.2578-.3285-.3962-.492s-.2817-.3151-.4312-.4546c-.3609-.3368-.7663-.5814-1.217-.7345s-.9251-.1996-1.4225-.1403-1.0061.2305-1.5261.5133c-.5203.2825-1.0294.6915-1.5288,1.2267l-4.2832,4.5898-2.1271-1.985,9.0024-9.6467Z"/>
        <path d="M78.5533,10.4202l2.0151,1.8805-1.2536,1.3434.0562.0524c.3819-.0857.7595-.1409,1.1316-.1656s.7374.0015,1.0952.0794.724.2158,1.0982.4134c.3735.1983.7535.4764,1.1392.8364.5845.5455,1.0069,1.1842,1.2668,1.9159.2605.731.2405,1.469-.0586,2.214.825-.1613,1.6071-.1639,2.3474-.0093.7394.155,1.4638.5635,2.173,1.2253,1.02.9518,1.5803,1.941,1.6826,2.9663.1017,1.0261-.3938,2.1241-1.4848,3.2932l-6.2161,6.661-2.1271-1.985,5.2586-5.6349c.3596-.3854.6755-.7491.9462-1.0889.2712-.3405.4552-.6809.5518-1.0213.0963-.3407.0845-.6829-.0355-1.028-.1203-.3454-.3856-.7089-.7962-1.092-.7217-.6735-1.4527-.9379-2.1939-.7913-.7419.1459-1.4954.6299-2.2617,1.451l-5.2757,5.6533-2.1274-1.9853,5.7809-6.1946c.6271-.672.9787-1.2917,1.0556-1.8607.0766-.568-.2089-1.1541-.8554-1.7575-.2741-.2557-.5903-.4465-.9495-.5727-.3598-.1256-.7344-.1733-1.1247-.1414-.3906.0316-.7892.1475-1.1977.3484-.4089.2006-.7982.4997-1.1699.898l-5.3456,5.7282-2.1271-1.985,9.0024-9.6467Z"/>
      </g>
      <g>
        <path d="M4.0637,23.5831l1.9072-1.9541,1.8262,1.7823.0358-.0367c-.1961-.3098-.3299-.6727-.4008-1.0867-.0719-.4144-.0857-.8442-.0433-1.2903.043-.4454.152-.8797.3273-1.3034.1756-.4226.4175-.7931.7264-1.1096.2378-.2436.4077-.4044.5091-.4843.1011-.0796.2048-.1619.3121-.2478l2.0094,1.9612c-.1664.1225-.3342.2504-.5008.3851s-.3213.2746-.4641.4209c-.3448.3532-.5984.7531-.7616,1.2003s-.2203.9204-.1721,1.419.2079,1.011.479,1.5372c.2708.5265.6683,1.0446,1.1922,1.5559l4.4928,4.3849-2.0321,2.0821-9.4427-9.2161Z"/>
        <path d="M10.0586,17.4408l1.9251-1.9725,1.315,1.2834.0537-.055c-.0771-.3837-.1239-.7624-.1402-1.135s.018-.7372.1039-1.0932.232-.719.4379-1.0887c.2066-.369.4931-.7426.8616-1.1202.5584-.5722,1.2065-.9801,1.9438-1.2235.7366-.2441,1.474-.2076,2.2122.1081-.1428-.8284-.1279-1.6103.0433-2.347.1715-.7357.5962-1.4509,1.2737-2.145.9744-.9984,1.9758-1.5364,3.0033-1.6158,1.0281-.0787,2.1148.4412,3.2591,1.5581l6.5202,6.3637-2.0321,2.0821-5.5158-5.3834c-.3772-.3682-.7338-.6921-1.0675-.9703-.3343-.2788-.6705-.4703-1.0087-.5745-.3385-.1039-.6809-.0997-1.0286.0125-.348.1126-.7173.3696-1.1096.7715-.6895.7065-.9702,1.4314-.8403,2.1756.1292.7449.5962,1.5091,1.4,2.2936l5.5338,5.401-2.0324,2.0824-6.0636-5.9181c-.6578-.642-1.2695-1.0074-1.8366-1.0969-.5661-.0893-1.1585.183-1.7762.8158-.2618.2683-.4596.5802-.5939.9365-.1336.3569-.1897.7304-.1665,1.1213.0229.3912.1298.7923.3215,1.2052.1914.4132.4817.8091.8716,1.1897l5.6071,5.4725-2.0321,2.0821-9.4427-9.2161Z"/>
      </g>
      <g>
        <path d="M92.7394,73.221l-1.8908,1.9701-1.8411-1.7669-.0355.037c.1987.3081.3355.6699.4099,1.0833.0754.4137.0927.8435.0542,1.2899-.0393.4457-.1446.881-.3163,1.3061-.1721.4241-.4108.7965-.7171,1.1157-.2357.2456-.4043.4078-.505.4886-.1004.0804-.2035.1636-.31.2504l-2.0258-1.9443c.1654-.1239.332-.2532.4975-.3893s.319-.2773.4606-.4248c.3418-.3561.5921-.7581.7515-1.2066s.2126-.9222.1602-1.4204-.2164-1.0093-.4919-1.5332c-.2752-.5242-.677-1.039-1.2052-1.5458l-4.5294-4.3471,2.0146-2.0991,9.5197,9.1365Z"/>
        <path d="M86.7962,79.4133l-1.9085,1.9885-1.3257-1.2723-.0532.0554c.0803.383.1302.7614.1498,1.1338s-.0119.7373-.0948,1.094-.2259.7209-.4288,1.0923c-.2035.3707-.4869.7467-.8522,1.1274-.5536.5768-1.1982.9902-1.9334,1.2398-.7345.2502-1.4722.2199-2.213-.0896.1497.8272.1414,1.6092-.0236,2.3473-.1653.7372-.584,1.4558-1.2556,2.1556-.966,1.0065-1.9629,1.553-2.9896,1.6409-1.0274.0873-2.1184-.4235-3.2721-1.5307l-6.5734-6.3088,2.0146-2.0991,5.5608,5.3369c.3803.365.7396.686,1.0756.9613.3367.276.6745.4647,1.0135.5661.3393.1011.6817.094,1.0284-.0211.3471-.1155.7142-.3756,1.103-.7808.6836-.7122.9581-1.4394.822-2.1826-.1355-.7438-.6089-1.5041-1.4192-2.2818l-5.5789-5.3543,2.0149-2.0994,6.1131,5.867c.6632.6365,1.2779.9967,1.8457,1.0815.5669.0845,1.1569-.1927,1.7693-.8307.2596-.2704.4547-.584.586-.9414.1306-.358.1836-.7319.1571-1.1226-.0261-.391-.1365-.7912-.3316-1.2025-.1949-.4116-.4885-.8051-.8815-1.1823l-5.6528-5.4253,2.0146-2.0991,9.5197,9.1365Z"/>
      </g>
      <g>
        <path d="M23.7064,93.8555l-1.9963-1.863,1.741-1.8656-.0374-.0349c-.3053.203-.6651.3449-1.0775.425-.4126.0811-.8421.1045-1.289.0722-.4462-.033-.8829-.1322-1.3104-.298-.4265-.1661-.8022-.3996-1.1256-.7014-.2489-.2322-.4134-.3985-.4956-.4982-.0818-.0993-.1664-.2012-.2547-.3065l1.9157-2.0528c.1262.1637.2578.3285.3962.492s.2817.3151.4312.4546c.3609.3368.7663.5814,1.217.7345s.9251.1996,1.4225.1403,1.0061-.2305,1.5261-.5133c.5203-.2825,1.0294-.6915,1.5288-1.2267l4.2832-4.5898,2.1271,1.985-9.0024,9.6467Z"/>
        <path d="M17.4315,87.9996l-2.0151-1.8805,1.2536-1.3434-.0562-.0524c-.3819.0857-.7595.1409-1.1316.1656s-.7374-.0015-1.0952-.0794-.724-.2158-1.0982-.4134c-.3735-.1983-.7535-.4764-1.1392-.8364-.5845-.5455-1.0069-1.1842-1.2668-1.9159-.2605-.731-.2405-1.469.0586-2.214-.825.1613-1.6071.1639-2.3474.0093-.7394-.155-1.4638-.5635-2.173-1.2253-1.02-.9518-1.5803-1.941-1.6826-2.9663-.1017-1.0261.3938-2.1241,1.4848-3.2932l6.2161-6.661,2.1271,1.985-5.2586,5.6349c-.3596.3854-.6755.7491-.9462,1.0889-.2712.3405-.4552.6809-.5518,1.0213-.0963.3407-.0845.6829.0355,1.028.1203.3454.3856.7089.7962,1.092.7217.6735,1.4527.9379,2.1939.7913.7419-.1459,1.4954-.6299,2.2617-1.451l5.2757-5.6533,2.1274,1.9853-5.7809,6.1946c-.6271.672-.9787,1.2917-1.0556,1.8607-.0766.568.2089,1.1541.8554,1.7575.2741.2557.5903.4465.9495.5727.3598.1256.7344.1733,1.1247.1414.3906-.0316.7892-.1475,1.1977-.3484.4089-.2006.7982-.4997,1.1699-.898l5.3456-5.7282,2.1271,1.985-9.0024,9.6467Z"/>
      </g>
    </g>
  </g>
</svg>