<?xml version="1.0" encoding="UTF-8"?>
<svg id="Layer_2" xmlns="http://www.w3.org/2000/svg" viewBox="0 0 56.2816 55.3238">
  <defs>
    <style>
      .cls-1 {
        stroke: #000;
        stroke-miterlimit: 10;
        stroke-width: .75px;
      }
    </style>
  </defs>
  <g id="Layer_1-2" data-name="Layer_1">
    <g>
      <g>
        <path class="cls-1" d="M31.3711,2.417l.1962.0761-.2768.3864c.1782-.3633.3655-.6578.5611-.8832.1953-.2249.3993-.393.6116-.5037.2122-.1103.4376-.1639.6761-.161.2386.0035.4929.0573.7628.1619l.3802.1474-.3567.9197-.4661-.1808c-.3762-.1459-.7125-.2125-1.0085-.2006-.2964.0122-.5508.1159-.7627.3112-.2121.1952-.3959.4931-.5512.8937l-1.2128,3.1274-.834-.3234L31.3019.4852l.834.3234-.7562,1.9499-.0086-.3416Z"/>
        <path class="cls-1" d="M35.9817,4.0496l.2455.0952-.4069.5759c.2244-.5056.4913-.8912.8012-1.1566s.6554-.4228,1.0369-.4726.7686.0015,1.1609.1536c.5232.2029.8938.4666,1.1114.7909.2174.3242.3238.6806.3191,1.069-.0051.3888-.0851.7836-.2404,1.1841l-.0402.1394-1.3413,3.4586-.8463-.3282,1.3175-3.3973c.1109-.286.1706-.5733.1793-.8618.0081-.2883-.0672-.5548-.2259-.8002-.1591-.245-.4347-.4435-.8272-.5957-.3598-.1395-.696-.1947-1.0082-.1655-.3124.0297-.5887.1414-.8284.3352s-.4279.4668-.5641.8181l-1.3175,3.3973-.834-.3234,2.2117-5.703.834.3234-.7562,1.9499.0192-.4863ZM40.023,5.744l.2453.0951-.3319.4922c.2161-.5088.4727-.9035.7694-1.1834s.6267-.4458.9903-.4979c.3632-.0517.7659.0077,1.2074.1789.5397.2093.9202.4768,1.1421.8028.2214.3258.332.6838.3314,1.0738-.0011.3904-.079.7859-.2344,1.1865l-1.3935,3.5933-.8463-.3282,1.3175-3.3973c.1109-.286.1683-.5742.1728-.8644.0043-.2898-.0713-.5564-.2257-.8001-.155-.2434-.4287-.4412-.8212-.5934-.3598-.1395-.698-.1955-1.0143-.1678-.3167.028-.5927.1398-.8284.3352-.2359.1953-.4219.4691-.5581.8205l-.147-.057.2246-.6888Z"/>
      </g>
      <g>
        <path class="cls-1" d="M12.304,7.1917l.1959-.077.0582.4717c-.1151-.388-.1768-.7315-.1857-1.0297-.0087-.2978.0274-.5595.1086-.7848.0813-.2248.2108-.417.3882-.5765.1778-.1591.4013-.2918.6707-.3977l.3795-.1491.3608.9181-.4653.1828c-.3755.1476-.668.3265-.8777.5357-.2097.2098-.3266.4584-.3501.7457-.0238.2873.0429.6309.2,1.0308l1.2268,3.1219-.8325.3272-2.2372-5.693.8325-.3272.7649,1.9465-.2378-.2454Z"/>
        <path class="cls-1" d="M16.8012,5.2686l.245-.0963.0909.6992c-.1775-.5239-.2424-.9883-.1943-1.3935s.1956-.7551.4424-1.0501.5663-.5196.9579-.6735c.5223-.2052.9735-.2624,1.3533-.1713.3796.0912.6992.2812.959.5701.2597.2894.4683.6339.6254,1.0338l.0649.1297,1.3567,3.4525-.8448.332-1.3327-3.3913c-.1122-.2855-.2629-.5372-.4521-.7553-.1894-.2175-.4253-.3625-.7083-.4355-.283-.0724-.6203-.0317-1.0121.1223-.3592.1412-.6438.3283-.8537.5614-.2097.2335-.3372.5028-.3822.8078s.0015.6332.1394.984l1.3327,3.3913-.8325.3272-2.2372-5.693.8325-.3272.7649,1.9465-.3153-.3707ZM20.9217,3.7768l.2448-.0962.0893.5869c-.1858-.5206-.2645-.9848-.2359-1.3916s.1589-.7525.3911-1.0372c.2321-.2841.5686-.5133,1.0093-.6865.5388-.2117.9999-.2728,1.3839-.1833.3836.0896.7075.278.9712.5652.2637.2878.4743.6316.6315,1.0314l1.4096,3.587-.8448.332-1.3327-3.3913c-.1122-.2855-.2652-.5364-.4585-.7528-.1932-.216-.4294-.3609-.7081-.4356-.279-.074-.6142-.034-1.006.1199-.3592.1412-.6458.3291-.8597.5637-.2139.2352-.3413.5044-.3822.8078-.0412.3034.0076.6309.1454.9816l-.1468.0577-.3014-.6588Z"/>
      </g>
      <g>
        <path class="cls-1" d="M24.4316,52.9068l-.1962-.0761.2768-.3864c-.1782.3633-.3655.6578-.5611.8832-.1953.2249-.3993.393-.6116.5037-.2122.1103-.4376.1639-.6761.161-.2386-.0035-.4929-.0573-.7628-.1619l-.3802-.1474.3567-.9197.4661.1808c.3762.1459.7125.2125,1.0085.2006.2964-.0122.5508-.1159.7627-.3112.2121-.1952.3959-.4931.5512-.8937l1.2128-3.1274.834.3234-2.2117,5.703-.834-.3234.7562-1.9499.0086.3416Z"/>
        <path class="cls-1" d="M19.821,51.2743l-.2455-.0952.4069-.5759c-.2244.5056-.4913.8912-.8012,1.1566s-.6554.4228-1.0369.4726-.7686-.0015-1.1609-.1536c-.5232-.2029-.8938-.4666-1.1114-.7909-.2174-.3242-.3238-.6806-.3191-1.069.0051-.3888.0851-.7836.2404-1.1841l.0402-.1394,1.3413-3.4586.8463.3282-1.3175,3.3973c-.1109.286-.1706.5733-.1793.8618-.0081.2883.0672.5548.2259.8002.1591.245.4347.4435.8272.5957.3598.1395.696.1947,1.0082.1655.3124-.0297.5887-.1414.8284-.3352s.4279-.4668.5641-.8181l1.3175-3.3973.834.3234-2.2117,5.703-.834-.3234.7562-1.9499-.0192.4863ZM15.7797,49.5798l-.2453-.0951.3319-.4922c-.2161.5088-.4727.9035-.7694,1.1834s-.6267.4458-.9903.4979c-.3632.0517-.7659-.0077-1.2074-.1789-.5397-.2093-.9202-.4768-1.1421-.8028-.2214-.3258-.332-.6838-.3314-1.0738.0011-.3904.079-.7859.2344-1.1865l1.3935-3.5933.8463.3282-1.3175,3.3973c-.1109.286-.1683.5742-.1728.8644-.0043.2898.0713.5564.2257.8001.155.2434.4287.4412.8212.5934.3598.1395.698.1955,1.0143.1678.3167-.028.5927-.1398.8284-.3352.2359-.1953.4219-.4691.5581-.8205l.147.057-.2246.6888Z"/>
      </g>
      <g>
        <path class="cls-1" d="M43.441,47.8647l-.1926.085-.0775-.4689c.1309.383.2067.7236.2278,1.0212.0209.2972-.0045.5602-.0763.7886-.072.228-.1935.4253-.3643.5919-.1711.1663-.389.308-.6539.4248l-.3731.1646-.3981-.9025.4574-.2018c.3691-.1628.6541-.3536.855-.5713.2009-.2182.3075-.4714.3193-.7594.012-.2881-.0688-.6286-.2421-1.0217l-1.3538-3.069.8184-.361,2.4687,5.5965-.8184.361-.8441-1.9135.2476.2355Z"/>
        <path class="cls-1" d="M39.0264,49.9705l-.2409.1063-.1195-.6949c.1988.5162.2827.9776.2513,1.3844s-.1644.7624-.399,1.0674-.5446.5424-.9295.7122c-.5134.2265-.9619.3021-1.3452.2266-.383-.0755-.7102-.2523-.9815-.5303-.2713-.2785-.4939-.6142-.6673-1.0073l-.0702-.127-1.4972-3.394.8305-.3663,1.4706,3.3338c.1238.2806.2848.526.4827.7362.1981.2095.4399.3448.7255.4061.2857.0607.621.0062,1.0062-.1637.3531-.1558.6298-.3544.83-.5959.1999-.2419.3163-.5162.3487-.8228s-.0275-.6327-.1796-.9774l-1.4706-3.3338.8184-.361,2.4687,5.5965-.8184.361-.8441-1.9135.3303.3574ZM34.9705,51.63l-.2407.1062-.1133-.5827c.207.5126.3047.9731.2927,1.3808s-.1279.7584-.3482,1.0523c-.2203.2934-.547.5362-.9803.7273-.5297.2336-.9878.3135-1.3752.2399-.3869-.0738-.7183-.2487-.9936-.5249-.2753-.2768-.4998-.6116-.6732-1.0047l-1.5555-3.5262.8305-.3663,1.4706,3.3338c.1238.2806.2869.525.489.7334.2019.2079.4438.343.7253.4062.2818.0625.6151.0088,1.0003-.1611.3531-.1558.6318-.3553.8359-.5985.2041-.2438.3203-.518.3487-.8228.0287-.3049-.0334-.63-.1855-.9748l.1443-.0636.3282.6459Z"/>
      </g>
      <g>
        <path class="cls-1" d="M53.8646,31.3711l-.0761.1962-.3864-.2768c.3633.1782.6578.3655.8832.5611.2249.1953.393.3993.5037.6116.1103.2122.1639.4376.161.6761-.0035.2386-.0573.4929-.1619.7628l-.1474.3802-.9197-.3567.1808-.4661c.1459-.3762.2125-.7125.2006-1.0085-.0122-.2964-.1159-.5508-.3112-.7627-.1952-.2121-.4931-.3959-.8937-.5512l-3.1274-1.2128.3234-.834,5.703,2.2117-.3234.834-1.9499-.7562.3416-.0086Z"/>
        <path class="cls-1" d="M52.2321,35.9817l-.0952.2455-.5759-.4069c.5056.2244.8912.4913,1.1566.8012s.4228.6554.4726,1.0369-.0015.7686-.1536,1.1609c-.2029.5232-.4666.8938-.7909,1.1114-.3242.2174-.6806.3238-1.069.3191-.3888-.0051-.7836-.0851-1.1841-.2404l-.1394-.0402-3.4586-1.3413.3282-.8463,3.3973,1.3175c.286.1109.5733.1706.8618.1793.2883.0081.5548-.0672.8002-.2259.245-.1591.4435-.4347.5957-.8272.1395-.3598.1947-.696.1655-1.0082-.0297-.3124-.1414-.5887-.3352-.8284s-.4668-.4279-.8181-.5641l-3.3973-1.3175.3234-.834,5.703,2.2117-.3234.834-1.9499-.7562.4863.0192ZM50.5376,40.023l-.0951.2453-.4922-.3319c.5088.2161.9035.4727,1.1834.7694s.4458.6267.4979.9903c.0517.3632-.0077.7659-.1789,1.2074-.2093.5397-.4768.9202-.8028,1.1421-.3258.2214-.6838.332-1.0738.3314-.3904-.0011-.7859-.079-1.1865-.2344l-3.5933-1.3935.3282-.8463,3.3973,1.3175c.286.1109.5742.1683.8644.1728.2898.0043.5564-.0713.8001-.2257.2434-.155.4412-.4287.5934-.8212.1395-.3598.1955-.698.1678-1.0143-.028-.3167-.1398-.5927-.3352-.8284-.1953-.2359-.4691-.4219-.8205-.5581l.057-.147.6888.2246Z"/>
      </g>
      <g>
        <path class="cls-1" d="M48.8225,12.3617l.085.1926-.4689.0775c.383-.1309.7236-.2067,1.0212-.2278.2972-.0209.5602.0045.7886.0763.228.072.4253.1935.5919.3643.1663.1711.308.389.4248.6539l.1646.3731-.9025.3981-.2018-.4574c-.1628-.3691-.3536-.6541-.5713-.855-.2182-.2009-.4714-.3075-.7594-.3193-.2881-.012-.6286.0688-1.0217.2421l-3.069,1.3538-.361-.8184,5.5965-2.4687.361.8184-1.9135.8441.2355-.2476Z"/>
        <path class="cls-1" d="M50.9283,16.7763l.1063.2409-.6949.1195c.5162-.1988.9776-.2827,1.3844-.2513s.7624.1644,1.0674.399.5424.5446.7122.9295c.2265.5134.3021.9619.2266,1.3452-.0755.383-.2523.7102-.5303.9815-.2785.2713-.6142.4939-1.0073.6673l-.127.0702-3.394,1.4972-.3663-.8305,3.3338-1.4706c.2806-.1238.526-.2848.7362-.4827.2095-.1981.3448-.4399.4061-.7255.0607-.2857.0062-.621-.1637-1.0062-.1558-.3531-.3544-.6298-.5959-.83-.2419-.1999-.5162-.3163-.8228-.3487s-.6327.0275-.9774.1796l-3.3338,1.4706-.361-.8184,5.5965-2.4687.361.8184-1.9135.8441.3574-.3303ZM52.5878,20.8322l.1062.2407-.5827.1133c.5126-.207.9731-.3047,1.3808-.2927s.7584.1279,1.0523.3482c.2934.2203.5362.547.7273.9803.2336.5297.3135.9878.2399,1.3752-.0738.3869-.2487.7183-.5249.9936-.2768.2753-.6116.4998-1.0047.6732l-3.5262,1.5555-.3663-.8305,3.3338-1.4706c.2806-.1238.525-.2869.7334-.489.2079-.2019.343-.4438.4062-.7253.0625-.2818.0088-.6151-.1611-1.0003-.1558-.3531-.3553-.6318-.5985-.8359-.2438-.2041-.518-.3203-.8228-.3487-.3049-.0287-.63.0334-.9748.1855l-.0636-.1443.6459-.3282Z"/>
      </g>
      <g>
        <path class="cls-1" d="M2.417,24.4316l.0761-.1962.3864.2768c-.3633-.1782-.6578-.3655-.8832-.5611-.2249-.1953-.393-.3993-.5037-.6116-.1103-.2122-.1639-.4376-.161-.6761.0035-.2386.0573-.4929.1619-.7628l.1474-.3802.9197.3567-.1808.4661c-.1459.3762-.2125.7125-.2006,1.0085.0122.2964.1159.5508.3112.7627.1952.2121.4931.3959.8937.5512l3.1274,1.2128-.3234.834L.4852,24.5008l.3234-.834,1.9499.7562-.3416.0086Z"/>
        <path class="cls-1" d="M4.0496,19.821l.0952-.2455.5759.4069c-.5056-.2244-.8912-.4913-1.1566-.8012s-.4228-.6554-.4726-1.0369.0015-.7686.1536-1.1609c.2029-.5232.4666-.8938.7909-1.1114.3242-.2174.6806-.3238,1.069-.3191.3888.0051.7836.0851,1.1841.2404l.1394.0402,3.4586,1.3413-.3282.8463-3.3973-1.3175c-.286-.1109-.5733-.1706-.8618-.1793-.2883-.0081-.5548.0672-.8002.2259-.245.1591-.4435.4347-.5957.8272-.1395.3598-.1947.696-.1655,1.0082.0297.3124.1414.5887.3352.8284s.4668.4279.8181.5641l3.3973,1.3175-.3234.834-5.703-2.2117.3234-.834,1.9499.7562-.4863-.0192ZM5.744,15.7797l.0951-.2453.4922.3319c-.5088-.2161-.9035-.4727-1.1834-.7694s-.4458-.6267-.4979-.9903c-.0517-.3632.0077-.7659.1789-1.2074.2093-.5397.4768-.9202.8028-1.1421.3258-.2214.6838-.332,1.0738-.3314.3904.0011.7859.079,1.1865.2344l3.5933,1.3935-.3282.8463-3.3973-1.3175c-.286-.1109-.5742-.1683-.8644-.1728-.2898-.0043-.5564.0713-.8001.2257-.2434.155-.4412.4287-.5934.8212-.1395.3598-.1955.698-.1678,1.0143.028.3167.1398.5927.3352.8284.1953.2359.4691.4219.8205.5581l-.057.147-.6888-.2246Z"/>
      </g>
      <g>
        <path class="cls-1" d="M7.938,43.9199l-.085-.1926.4689-.0775c-.383.1309-.7236.2067-1.0212.2278-.2972.0209-.5602-.0045-.7886-.0763-.228-.072-.4253-.1935-.5919-.3643-.1663-.1711-.308-.389-.4248-.6539l-.1646-.3731.9025-.3981.2018.4574c.1628.3691.3536.6541.5713.855.2182.2009.4714.3075.7594.3193.2881.012.6286-.0688,1.0217-.2421l3.069-1.3538.361.8184-5.5965,2.4687-.361-.8184,1.9135-.8441-.2355.2476Z"/>
        <path class="cls-1" d="M5.8322,39.5053l-.1063-.2409.6949-.1195c-.5162.1988-.9776.2827-1.3844.2513s-.7624-.1644-1.0674-.399-.5424-.5446-.7122-.9295c-.2265-.5134-.3021-.9619-.2266-1.3452.0755-.383.2523-.7102.5303-.9815.2785-.2713.6142-.4939,1.0073-.6673l.127-.0702,3.394-1.4972.3663.8305-3.3338,1.4706c-.2806.1238-.526.2848-.7362.4827-.2095.1981-.3448.4399-.4061.7255-.0607.2857-.0062.621.1637,1.0062.1558.3531.3544.6298.5959.83.2419.1999.5162.3163.8228.3487s.6327-.0275.9774-.1796l3.3338-1.4706.361.8184-5.5965,2.4687-.361-.8184,1.9135-.8441-.3574.3303ZM4.1727,35.4494l-.1062-.2407.5827-.1133c-.5126.207-.9731.3047-1.3808.2927s-.7584-.1279-1.0523-.3482c-.2934-.2203-.5362-.547-.7273-.9803-.2336-.5297-.3135-.9878-.2399-1.3752.0738-.3869.2487-.7183.5249-.9936.2768-.2753.6116-.4998,1.0047-.6732l3.5262-1.5555.3663.8305-3.3338,1.4706c-.2806.1238-.525.2869-.7334.489-.2079.2019-.343.4438-.4062.7253-.0625.2818-.0088.6151.1611,1.0003.1558.3531.3553.6318.5985.8359.2438.2041.518.3203.8228.3487.3049.0287.63-.0334.9748-.1855l.0636.1443-.6459.3282Z"/>
      </g>
    </g>
  </g>
</svg>