<?xml version="1.0" encoding="UTF-8"?>
<svg id="Layer_2" xmlns="http://www.w3.org/2000/svg" viewBox="0 0 72 59">
  <defs>
    <style>
      .cls-1 {
        fill: none;
        stroke: #000;
        stroke-miterlimit: 10;
        stroke-width: 4px;
      }
    </style>
  </defs>
  <g id="Layer_1-2" data-name="Layer_1">
    <rect class="cls-1" x="2" y="2" width="68" height="55"/>
    <g>
      <g>
        <path d="M13.6577,33.5987v.0659c-.0176-.0307-.0352-.0571-.0526-.0878l.0526.0219Z"/>
        <path d="M61.5361,13.5984v33.4876h-4.1739c-.1034-3.2656-.207-6.5309-.3104-9.7965-1.2648,3.2196-2.5297,6.439-3.7944,9.6585h-3.7944c-1.3798-3.1045-2.7596-6.2091-4.1394-9.3136.0241,3.1505.0483,6.301.0724,9.4515h-4.1739V13.5984h4.1739c1.987,8.0246,3.9738,16.0493,5.9608,24.0739,2.0018-8.0246,4.0036-16.0493,6.0054-24.0739h4.1739Z"/>
        <path d="M13.6577,33.5987v.0659c-.0176-.0307-.0352-.0571-.0526-.0878l.0526.0219Z"/>
      </g>
      <g>
        <path d="M13.605,33.5768c.0174.0307.035.0571.0526.0878v-.0659l-.0526-.0219Z"/>
        <path d="M38.6711,25.9016c0-7.6443-6.2148-13.8591-13.8593-13.8591-.0835,0-.1671,0-.2461.0043v-.0043h-14.0309v.0835h-.0659v34.3949h4.1741v-6.9888c0-.0264-.0088-.0485-.0088-.075v-1.1831l19.9639,8.4977,1.6363-3.8397-8.2909-3.5275c6.1401-1.4207,10.7276-6.9362,10.7276-13.503ZM13.6577,33.5987v.0659c-.0176-.0307-.0352-.0571-.0526-.0878l.0526.0219ZM15.1312,25.9016c0-5.3396,4.3412-9.6852,9.6806-9.6852s9.6854,4.3455,9.6854,9.6852-4.3457,9.6852-9.6854,9.6852-9.6806-4.3455-9.6806-9.6852Z"/>
      </g>
      <path d="M13.6577,33.5987v.0659c-.0176-.0307-.0352-.0571-.0526-.0878l.0526.0219Z"/>
    </g>
  </g>
</svg>