<?xml version="1.0" encoding="UTF-8"?>
<svg id="Layer_2" xmlns="http://www.w3.org/2000/svg" viewBox="0 0 134.684 109.7003">
  <defs>
    <style>
      .cls-1 {
        fill: none;
        stroke: #000;
        stroke-miterlimit: 10;
        stroke-width: 4px;
      }
    </style>
  </defs>
  <g id="Layer_1-2" data-name="Layer_1">
    <rect class="cls-1" x="2" y="2" width="130.684" height="105.7003"/>
    <g>
      <g>
        <path d="M24.404,62.7271v.1267c-.0338-.059-.0677-.1098-.1011-.1688l.1011.0421Z"/>
        <path d="M116.4178,24.2901v64.3572h-8.0215c-.1987-6.2758-.3978-12.5513-.5966-18.8271-2.4306,6.1874-4.8616,12.3746-7.2922,18.562h-7.2922c-2.6517-5.9664-5.3034-11.9327-7.9551-17.8991.0463,6.0547.0929,12.1095.1392,18.1642h-8.0215V24.2901h8.0215c3.8186,15.4218,7.637,30.844,11.4556,46.2658,3.8471-15.4218,7.6942-30.844,11.5414-46.2658h8.0215Z"/>
        <path d="M24.404,62.7271v.1267c-.0338-.059-.0677-.1098-.1011-.1688l.1011.0421Z"/>
      </g>
      <g>
        <path d="M24.3028,62.685c.0334.059.0673.1098.1011.1688v-.1267l-.1011-.0421Z"/>
        <path d="M72.4753,47.9347c0-14.6909-11.9437-26.6347-26.6351-26.6347-.1606,0-.3211,0-.473.0083v-.0083h-26.9649v.1606h-.1267v66.1009h8.0219v-13.4312c0-.0508-.0169-.0933-.0169-.144v-2.2738l38.3671,16.3311,3.1446-7.3793-15.9337-6.7792c11.8001-2.7302,20.6166-13.3301,20.6166-25.9504ZM24.404,62.7271v.1267c-.0338-.059-.0677-.1098-.1011-.1688l.1011.0421ZM27.2358,47.9347c0-10.2619,8.343-18.6131,18.6045-18.6131s18.6136,8.3513,18.6136,18.6131-8.3517,18.6131-18.6136,18.6131-18.6045-8.3513-18.6045-18.6131Z"/>
      </g>
      <path d="M24.404,62.7271v.1267c-.0338-.059-.0677-.1098-.1011-.1688l.1011.0421Z"/>
    </g>
  </g>
</svg>