<?xml version="1.0" encoding="UTF-8"?>
<svg id="Layer_2" xmlns="http://www.w3.org/2000/svg" viewBox="0 0 283.545 194.5747">
  <g id="Layer_1-2" data-name="Layer_1">
    <g>
      <g>
        <path d="M17.7054,119.6881v.3661c-.0978-.1705-.1956-.3172-.2921-.4877l.2921.1216Z"/>
        <path d="M283.545,8.6387v185.936h-23.1751c-.5742-18.1316-1.1494-36.2623-1.7236-54.3939-7.0224,17.8763-14.0457,35.7517-21.0681,53.628h-21.0681c-7.6611-17.2376-15.3223-34.4751-22.9834-51.7127.1337,17.4929.2684,34.9857.4021,52.4786h-23.1751V8.6387h23.1751c11.0325,44.5556,22.0641,89.1122,33.0966,133.6678,11.1148-44.5556,22.2296-89.1122,33.3445-133.6678h23.1751Z"/>
        <path d="M17.7054,119.6881v.3661c-.0978-.1705-.1956-.3172-.2921-.4877l.2921.1216Z"/>
      </g>
      <g>
        <path d="M17.4133,119.5665c.0966.1705.1944.3172.2921.4877v-.3661l-.2921-.1216Z"/>
        <path d="M156.5896,76.9509C156.5896,34.507,122.0826,0,79.6375,0c-.4639,0-.9277,0-1.3665.0238v-.0238H.3661v.4639h-.3661v190.9737h23.1764v-38.8046c0-.1467-.0489-.2695-.0489-.4162v-6.5692l110.8473,47.1827,9.0852-21.3197-46.0344-19.5859c34.092-7.888,59.5638-38.5124,59.5638-74.9738ZM17.7054,119.6881v.3661c-.0978-.1705-.1956-.3172-.2921-.4877l.2921.1216ZM25.8868,76.9509c0-29.6478,24.1041-53.7757,53.7507-53.7757s53.7769,24.1279,53.7769,53.7757-24.1291,53.7757-53.7769,53.7757-53.7507-24.1279-53.7507-53.7757Z"/>
      </g>
      <path d="M17.7054,119.6881v.3661c-.0978-.1705-.1956-.3172-.2921-.4877l.2921.1216Z"/>
    </g>
  </g>
</svg>