<?xml version="1.0" encoding="UTF-8"?>
<svg id="Layer_2" xmlns="http://www.w3.org/2000/svg" viewBox="0 0 66.7533 66.7533">
  <defs>
    <style>
      .cls-1 {
        fill: none;
        stroke: #000;
        stroke-miterlimit: 10;
        stroke-width: 4px;
      }
    </style>
  </defs>
  <g id="Layer_1-2" data-name="Layer_1">
    <circle class="cls-1" cx="33.3767" cy="33.3767" r="31.3767"/>
    <g>
      <path d="M23.3513,37.8385c.0188.0308.0376.0599.0547.0907v-.0667l-.0547-.024Z"/>
      <path d="M49.7235,30.5555c0-7.8269-6.3665-14.1933-14.1933-14.1933-.0855,0-.171,0-.2565.0034v-.0034h-16.0744v.0855h-.0684v35.2268h4.2751v-9.1675l22.1467,9.424,1.6725-3.9331-8.4921-3.6133c6.2895-1.457,10.9904-7.1035,10.9904-13.8291ZM35.5302,20.6372c5.4687,0,9.9182,4.4495,9.9182,9.9182s-4.4495,9.9182-9.9182,9.9182-9.9182-4.4495-9.9182-9.9182,4.4495-9.9182,9.9182-9.9182ZM23.3513,37.8385l.0547.024v.0667c-.0171-.0308-.0359-.0599-.0547-.0907Z"/>
    </g>
  </g>
</svg>