<?xml version="1.0" encoding="UTF-8"?>
<svg id="Layer_2" xmlns="http://www.w3.org/2000/svg" viewBox="0 0 180.9792 69.1171">
  <g id="Layer_1-2" data-name="Layer_1">
    <g>
      <path d="M2.7295,4.0146l2.1943-2.5693v30.6699H0V0h12.418c2.8184,0,5.1201.3574,6.9043,1.0703,1.7842.7139,3.1045,1.793,3.9609,3.2383s1.2852,3.2568,1.2852,5.4326c0,2.1416-.4736,3.9795-1.4189,5.5137s-2.3281,2.7119-4.1484,3.5322c-1.8193.8213-4.0322,1.2314-6.6367,1.2314H2.7832v-4.0146h9.2061c2.4971,0,4.4072-.4902,5.7275-1.4717,1.3193-.9814,1.9805-2.543,1.9805-4.6836,0-1.4268-.2412-2.5596-.7227-3.3984s-1.2939-1.4541-2.4355-1.8467c-1.1426-.3926-2.6943-.5889-4.6562-.5889H2.7295ZM15.79,17.7705l10.3838,13.2744v1.0703h-5.4062l-9.8486-14.1846,4.8711-.1602Z"/>
      <path d="M37.7354,32.7041c-2.5693,0-4.7725-.4912-6.6104-1.4717-1.8379-.9814-3.2383-2.4443-4.2021-4.3896-.9629-1.9443-1.4443-4.29-1.4443-7.0381,0-2.8184.4893-5.2188,1.4717-7.1992.9805-1.9805,2.3818-3.4971,4.2012-4.5498,1.8203-1.0527,3.9961-1.5791,6.5303-1.5791,2.4619,0,4.5049.4639,6.1289,1.3916,1.623.9287,2.8369,2.248,3.6396,3.9609s1.2041,3.7119,1.2041,5.9951c0,.3564-.0088.8115-.0264,1.3643-.0186.5537-.0625,1.0977-.1338,1.6328h-19.8584v-3.0508h16.8613l-1.1777,1.124c.0703-2.8906-.4111-5.1113-1.4453-6.6641-1.0352-1.5518-2.8193-2.3281-5.3525-2.3281-2.4619,0-4.3184.8027-5.5664,2.4082-1.25,1.6064-1.874,4.0508-1.874,7.333,0,3.0332.624,5.3623,1.874,6.9854,1.248,1.624,3.1924,2.4355,5.834,2.4355,1.499,0,2.6758-.2139,3.5322-.6426.8564-.4277,1.5254-1.0166,2.0078-1.7666.4814-.749.8467-1.5693,1.0967-2.4619l3.9609,1.124c-.3926,1.499-.999,2.8018-1.8193,3.9072-.8213,1.1064-1.9453,1.9629-3.3721,2.5693-1.4277.6064-3.248.9102-5.46.9102Z"/>
      <path d="M66.7451,26.5488h-1.9268l1.0703-1.499c-.3926,1.4639-1.0078,2.7754-1.8457,3.9346-.8389,1.1592-1.9004,2.0605-3.1855,2.7031-1.2842.6416-2.8018.9629-4.5498.9629-1.498,0-2.8096-.2324-3.9336-.6953-1.124-.4639-1.999-1.1953-2.623-2.1953-.625-.998-.9365-2.3184-.9365-3.9609,0-2.1406.7139-3.9072,2.1406-5.2988s3.6934-2.0869,6.7979-2.0869h8.7783v2.8369h-8.0283c-1.7129,0-3.0342.3301-3.9609.9902-.9287.6602-1.3916,1.6855-1.3916,3.0771,0,.6787.1602,1.3115.4814,1.9004s.8301,1.0439,1.5254,1.3652c.6963.3203,1.6504.4814,2.8633.4814,1.5703,0,2.9355-.2676,4.0947-.8027s2.0518-1.2754,2.6768-2.2217c.624-.9453.9365-2.0244.9365-3.2383v-7.0654c0-1.748-.4014-3.1045-1.2041-4.0674-.8027-.9639-2.2402-1.4453-4.3086-1.4453-1.5713,0-2.8291.3838-3.7744,1.1504-.9453.7676-1.6504,1.7754-2.1143,3.0244l-4.335-1.499c.3926-1.248,1.0615-2.3545,2.0068-3.3184s2.123-1.7217,3.5332-2.2754c1.4092-.5527,3.0059-.8291,4.79-.8291,2.3555,0,4.2637.3477,5.7275,1.0439,1.4629.6953,2.542,1.7305,3.2383,3.1045.6953,1.374,1.0439,3.0596,1.0439,5.0576v16.4326h-4.1748v-7.4404l.5879,1.874Z"/>
      <path d="M78.0018,22.2297l.4265.3316-.8997,1.467c-.221.3152-.3946.6148-.5207.8989s-.1891.5681-.1891.8522c0,.5051.2046.86.6156,1.0646.4093.2055,1.0405.3074,1.8927.3074h6.9093c2.3028,0,4.0858.4663,5.3482,1.3962,1.2615.9308,1.8927,2.264,1.8927,3.9995,0,1.5136-.3626,2.7518-1.0879,3.7146-.7262.9619-1.9255,1.6803-3.5971,2.1534-1.6725.4732-3.9917.7098-6.9568.7098-2.7449,0-4.8906-.1977-6.4361-.5915-1.5464-.3946-2.6352-.9627-3.2656-1.7036-.6312-.7417-.9463-1.6017-.9463-2.5791,0-.8211.2841-1.5145.8514-2.0826.5681-.5681,1.3487-1.0577,2.3425-1.467.9938-.4101,2.0904-.7253,3.2897-.9463l1.0413.1891c-.9161,0-1.6889.158-2.3192.4732-.632.3152-1.1052.702-1.4204,1.1596-.3152.4568-.4732.9386-.4732,1.4437,0,.6933.2288,1.2693.6864,1.7269.4568.4568,1.2546.797,2.39,1.018,1.1363.2202,2.6974.3307,4.6851.3307,2.1137,0,3.7223-.1347,4.8275-.4024,1.1044-.2677,1.8763-.6467,2.3192-1.1354.4412-.4896.6623-1.081.6623-1.7744,0-.8522-.3393-1.5387-1.0171-2.0593-.6795-.5207-1.7122-.7806-3.1006-.7806h-7.8082c-.8842,0-1.6725-.1105-2.3667-.3316-.6942-.2202-1.2382-.5673-1.6328-1.0413-.3946-.4732-.5915-1.0405-.5915-1.7036,0-.5984.1891-1.1354.5681-1.6086.3782-.4732.8824-.9308,1.5145-1.3729l2.3659-1.6561ZM85.2646,9.6885l2.248-.2148-.2139,1.9268-2.248-.9629c1.1055.1426,2.1846.3574,3.2383.6426,1.0518.2852,2.0068.6602,2.8633,1.124s1.5518,1.0615,2.0869,1.793c.5361.7314.8037,1.6318.8037,2.7031,0,1.5703-.4111,2.9355-1.2314,4.0947-.8213,1.1592-2.0342,2.0518-3.6396,2.6758-1.6055.625-3.5859.9365-5.9414.9365-3.4258,0-6.0488-.7578-7.8682-2.2744-1.8203-1.5166-2.7295-3.5771-2.7295-6.1826,0-1.9268.4277-3.5498,1.2842-4.8701s2.1143-2.3105,3.7734-2.9707,3.6309-.9902,5.915-.9902h12.2031v3.3721h-2.3545c-.5713,0-1.2764-.0352-2.1143-.1074-.8389-.0713-1.7666-.1602-2.7832-.2676-1.0176-.1074-2.1143-.249-3.292-.4277ZM75.9201,30.3219v-1.1354h1.2304l.2366.7572-1.467.3782ZM83.2305,10.6514c-2.248,0-3.8721.4736-4.8711,1.4189s-1.498,2.1855-1.498,3.7197c0,1.6055.4893,2.8633,1.4717,3.7734.9805.9102,2.6494,1.3652,5.0049,1.3652,2.3184,0,3.9961-.4551,5.0312-1.3652,1.0342-.9102,1.5518-2.168,1.5518-3.7734,0-1.5342-.5537-2.7744-1.6592-3.7197-1.1064-.9453-2.7832-1.4189-5.0312-1.4189Z"/>
      <path d="M113.6328,26.5488h-1.9268l1.0703-1.499c-.3926,1.4639-1.0078,2.7754-1.8457,3.9346-.8389,1.1592-1.9004,2.0605-3.1855,2.7031-1.2842.6416-2.8018.9629-4.5498.9629-1.498,0-2.8096-.2324-3.9336-.6953-1.124-.4639-1.999-1.1953-2.623-2.1953-.625-.998-.9365-2.3184-.9365-3.9609,0-2.1406.7139-3.9072,2.1406-5.2988s3.6934-2.0869,6.7979-2.0869h8.7783v2.8369h-8.0283c-1.7129,0-3.0342.3301-3.9609.9902-.9287.6602-1.3916,1.6855-1.3916,3.0771,0,.6787.1602,1.3115.4814,1.9004s.8301,1.0439,1.5254,1.3652c.6963.3203,1.6504.4814,2.8633.4814,1.5703,0,2.9355-.2676,4.0947-.8027s2.0518-1.2754,2.6768-2.2217c.624-.9453.9365-2.0244.9365-3.2383v-7.0654c0-1.748-.4014-3.1045-1.2041-4.0674-.8027-.9639-2.2402-1.4453-4.3086-1.4453-1.5713,0-2.8291.3838-3.7744,1.1504-.9453.7676-1.6504,1.7754-2.1143,3.0244l-4.335-1.499c.3926-1.248,1.0615-2.3545,2.0068-3.3184s2.123-1.7217,3.5332-2.2754c1.4092-.5527,3.0059-.8291,4.79-.8291,2.3555,0,4.2637.3477,5.7275,1.0439,1.4629.6953,2.542,1.7305,3.2383,3.1045.6953,1.374,1.0439,3.0596,1.0439,5.0576v16.4326h-4.1748v-7.4404l.5879,1.874Z"/>
      <path d="M124.873,13.3281h1.873l-1.1777,2.0332c.4287-1.5693,1.1055-3.0322,2.0342-4.3887.9277-1.3555,2.0781-2.4434,3.4521-3.2646,1.373-.8213,2.8809-1.2314,4.5234-1.2314,1.5693,0,2.917.3301,4.041.9902s1.9883,1.6328,2.5957,2.917c.6064,1.2852.9102,2.8555.9102,4.71v17.0215h-4.6572v-15.9502c0-1.1777-.1602-2.168-.4814-2.9707-.3213-.8037-.8477-1.4189-1.5791-1.8467-.7314-.4287-1.668-.6426-2.8096-.6426-1.5352,0-2.9092.3398-4.1221,1.0166-1.2129.6787-2.1592,1.5889-2.8369,2.7305s-1.0166,2.4443-1.0166,3.9072v13.7559h-4.6572V7.1191h4.4434v9.5273l-.5352-3.3184Z"/>
      <path d="M18.1032,63.2294c.1777-.8564.4277-1.8467.749-2.9707s.6504-2.3018.9902-3.5332c.3389-1.2305.6865-2.4082,1.0439-3.5322.3564-1.124.6768-2.0781.9629-2.8643l5.46-13.9697h8.3496v32.1152h-4.8701v-15.8975c0-1.5693.0264-3.291.0801-5.165.0537-1.873.1064-3.6748.1602-5.4062.0537-1.7305.0801-3.1846.0801-4.3623l1.124,2.7305h-3.9609l1.6064-2.8906c-.3936,1.4639-.8301,3.043-1.3115,4.7373-.4814,1.6953-.999,3.4072-1.5527,5.1377-.5527,1.7314-1.1504,3.4355-1.793,5.1123l-5.0312,12.1504h-5.459l-4.8174-12.3115c-.6426-1.7832-1.2314-3.541-1.7666-5.2715s-1.0176-3.4072-1.4453-5.0322c-.4277-1.623-.8213-3.1309-1.1777-4.5225l1.499,2.8906h-3.6934l1.0703-2.7832c.0713,1.249.1074,2.7295.1074,4.4424v26.4414H.0114v-32.1152h8.8311l5.1387,14.1309c.249.6777.5527,1.5879.9102,2.7295.3564,1.1426.7305,2.3555,1.124,3.6396.3926,1.2852.7578,2.4893,1.0977,3.6133.3379,1.124.5967,2.043.7754,2.7568l-1.9268-3.1045h3.7471l-1.6055,3.1045Z"/>
      <path d="M55.945,62.9082h-1.9268l1.0703-1.499c-.3926,1.4639-1.0078,2.7754-1.8457,3.9346-.8389,1.1592-1.9004,2.0605-3.1855,2.7031-1.2842.6416-2.8018.9629-4.5498.9629-1.498,0-2.8096-.2324-3.9336-.6953-1.124-.4639-1.999-1.1953-2.623-2.1953-.625-.998-.9365-2.3184-.9365-3.9609,0-2.1406.7139-3.9072,2.1406-5.2988s3.6934-2.0869,6.7979-2.0869h8.7783v2.8369h-8.0283c-1.7129,0-3.0342.3301-3.9609.9902-.9287.6602-1.3916,1.6855-1.3916,3.0771,0,.6787.1602,1.3115.4814,1.9004s.8301,1.0439,1.5254,1.3652c.6963.3203,1.6504.4814,2.8633.4814,1.5703,0,2.9355-.2676,4.0947-.8027s2.0518-1.2754,2.6768-2.2217c.624-.9453.9365-2.0244.9365-3.2383v-7.0654c0-1.748-.4014-3.1045-1.2041-4.0674-.8027-.9639-2.2402-1.4453-4.3086-1.4453-1.5713,0-2.8291.3838-3.7744,1.1504-.9453.7676-1.6504,1.7754-2.1143,3.0244l-4.335-1.499c.3926-1.248,1.0615-2.3545,2.0068-3.3184s2.123-1.7217,3.5332-2.2754c1.4092-.5527,3.0059-.8291,4.79-.8291,2.3555,0,4.2637.3477,5.7275,1.0439,1.4629.6953,2.542,1.7305,3.2383,3.1045.6953,1.374,1.0439,3.0596,1.0439,5.0576v16.4326h-4.1748v-7.4404l.5879,1.874Z"/>
      <path d="M60.7086,43.4785h16.5391v3.6934h-16.5391v-3.6934ZM64.6686,61.0341v-24.6748h4.6035v24.2471c0,1.4277.3027,2.498.9102,3.2119.6064.7139,1.5869,1.0703,2.9443,1.0703.6768,0,1.3105-.0449,1.8994-.1338s1.2393-.2412,1.9541-.4551l.5889,3.9609c-.5713.1787-1.124.3291-1.6592.4551-.5352.124-1.0977.2217-1.6865.2939-.5889.0713-1.2764.1074-2.0605.1074-1.7129,0-3.1309-.3574-4.2549-1.0703-1.124-.7139-1.9453-1.6777-2.4629-2.8906s-.7764-2.5869-.7764-4.1221Z"/>
      <path d="M92.7702,64.2996c-.7148.2139-1.3652.3662-1.9541.4551s-1.2227.1338-1.8994.1338c-1.3574,0-2.3379-.3564-2.9443-1.0703-.6074-.7139-.9102-1.7842-.9102-3.2119v-13.4346h7.9756v-3.6934h-7.9756c-.0068-.979-.0137-1.9575-.0205-2.936-.7979.0269-1.6123.0454-2.4434.0532-.7256.0068-1.439.0063-2.1396-.002v2.8848h-3.96v3.6934h3.96v13.8623c0,1.5352.2588,2.9092.7764,4.1221s1.3389,2.1768,2.4629,2.8906c1.124.7129,2.542,1.0703,4.2549,1.0703.7842,0,1.4717-.0361,2.0605-.1074.5889-.0723,1.1514-.1699,1.6865-.2939.5352-.126,1.0879-.2764,1.6592-.4551l-.5889-3.9609Z"/>
      <path d="M98.9782,49.6874h1.5518l-1.124,2.0332c.5-1.5332,1.2051-2.9785,2.1143-4.335.9102-1.3555,2.043-2.4531,3.3994-3.292,1.3555-.8379,2.9434-1.2578,4.7637-1.2578,1.499,0,2.792.3301,3.8809.9902,1.0879.6602,1.9346,1.6328,2.542,2.917.6064,1.2852.9102,2.8555.9102,4.71v17.0215h-4.6572v-15.9502c0-1.1777-.1787-2.168-.5352-2.9707-.3564-.8037-.8828-1.4189-1.5791-1.8467-.6953-.4287-1.5791-.6426-2.6494-.6426-1.6055,0-3.0156.3398-4.2285,1.0166-1.2129.6787-2.1592,1.5889-2.8369,2.7305s-1.0166,2.4443-1.0166,3.9072v13.7559h-4.6572v-35.8623h4.6572v20.3936l-.5352-3.3184Z"/>
      <path d="M131.1999,69.0634c-2.5693,0-4.7725-.4912-6.6104-1.4717-1.8379-.9814-3.2383-2.4443-4.2021-4.3896-.9629-1.9443-1.4443-4.29-1.4443-7.0381,0-2.8184.4893-5.2188,1.4717-7.1992.9805-1.9805,2.3818-3.4971,4.2012-4.5498,1.8203-1.0527,3.9961-1.5791,6.5303-1.5791,2.4619,0,4.5049.4639,6.1289,1.3916,1.623.9287,2.8369,2.248,3.6396,3.9609s1.2041,3.7119,1.2041,5.9951c0,.3564-.0088.8115-.0264,1.3643-.0186.5537-.0625,1.0977-.1338,1.6328h-19.8584v-3.0508h16.8613l-1.1777,1.124c.0703-2.8906-.4111-5.1113-1.4453-6.6641-1.0352-1.5518-2.8193-2.3281-5.3525-2.3281-2.4619,0-4.3184.8027-5.5664,2.4082-1.25,1.6064-1.874,4.0508-1.874,7.333,0,3.0332.624,5.3623,1.874,6.9854,1.248,1.624,3.1924,2.4355,5.834,2.4355,1.499,0,2.6758-.2139,3.5322-.6426.8564-.4277,1.5254-1.0166,2.0078-1.7666.4814-.749.8467-1.5693,1.0967-2.4619l3.9609,1.124c-.3926,1.499-.999,2.8018-1.8193,3.9072-.8213,1.1064-1.9453,1.9629-3.3721,2.5693-1.4277.6064-3.248.9102-5.46.9102Z"/>
      <path d="M164.1188,43.4785l2.5684,9.7412c.5713,2.2129,1.124,4.4961,1.6602,6.8516.5352,2.3545.9629,4.7637,1.2842,7.2256l-1.0703-2.6758h3.2109l-1.2305,2.6758c.3564-2.4971.8291-4.8789,1.418-7.1455.5889-2.2656,1.2041-4.6299,1.8467-7.0918l2.5156-9.5811h4.6572l-7.6543,24.9961h-6.6377l-2.7832-11.0264c-.5-2.0693-.9727-4.166-1.418-6.2891-.4463-2.123-.8301-4.2197-1.1514-6.2891l1.2314,2.1943h-3.1582l1.124-2.1943c-.2861,2.1055-.6416,4.2197-1.0703,6.3428-.4277,2.123-.9102,4.2012-1.4453,6.2354l-2.7295,11.0264h-6.4229l-7.6543-24.9961h4.8174l2.5693,9.5811c.6768,2.4268,1.3105,4.7725,1.8994,7.0381.5889,2.2666,1.0791,4.666,1.4727,7.1992l-1.1777-2.6758h3.1045l-.9639,2.6758c.3213-2.3545.75-4.7373,1.2852-7.1455s1.0879-4.7188,1.6592-6.9316l2.5693-9.7412h5.6738Z"/>
    </g>
  </g>
</svg>