<?xml version="1.0" encoding="UTF-8"?>
<svg id="Layer_2" xmlns="http://www.w3.org/2000/svg" viewBox="0 0 111.8899 41.1032">
  <g id="Layer_1-2" data-name="Layer_1">
    <g>
      <g>
        <path d="M18.8331,2.5715l1.4693-1.7796v16.1618h-3.2494V0h6.8947c1.4878,0,2.7168.1938,3.6876.5795.9697.3866,1.6904.9744,2.1616,1.7662.4707.7908.7063,1.7899.7063,2.9952s-.2593,2.2271-.7769,3.0653c-.5186.8383-1.2718,1.4744-2.2606,1.9075-.9893.4341-2.1714.6496-3.5463.6496h-5.0295v-2.5704h4.747c1.2244,0,2.1477-.231,2.7689-.6929.6217-.4609.9326-1.2197.9326-2.2745,0-.697-.1227-1.2527-.3671-1.6672-.2454-.4145-.6362-.7156-1.1728-.9042-.5367-.1877-1.2765-.2825-2.2183-.2825h-4.747ZM26.1799,9.6352l5.1708,6.7534v.565h-3.5886l-4.8315-7.2329,3.2494-.0856Z"/>
        <path d="M39.8842,17.2929c-1.3564,0-2.5292-.2495-3.518-.7485s-1.7518-1.2579-2.2889-2.2745c-.5367-1.0177-.8053-2.2797-.8053-3.7871,0-1.5064.2588-2.7973.7774-3.8706.5176-1.0733,1.2713-1.893,2.2601-2.458.9893-.565,2.1709-.8475,3.5463-.8475,1.3564,0,2.4627.2444,3.32.7341s1.4976,1.1867,1.9214,2.091.6362,1.959.6362,3.1643c0,.2454-.0052.5279-.0144.8486-.0098.3207-.033.631-.0706.9321h-10.257v-1.8363h8.3072l-.7346.7063c.0567-1.4878-.165-2.6086-.664-3.3623s-1.3419-1.1311-2.5287-1.1311c-1.1682,0-2.0446.3918-2.6282,1.1733-.5841.7815-.8759,2.0106-.8759,3.6871,0,1.5641.2918,2.7364.8759,3.518.5836.7815,1.5069,1.1723,2.7694,1.1723.6965,0,1.2522-.099,1.6667-.2959.4145-.198.73-.4671.947-.8053.216-.3392.3908-.697.5227-1.0744l2.5431.6784c-.2078.7537-.5279,1.4126-.9609,1.9776-.4336.565-1.0269,1.0084-1.7801,1.328-.7537.3207-1.7425.4805-2.9669.4805Z"/>
        <path d="M57.4597,13.9306h-1.0455l.5934-.8197c-.2263.7733-.5563,1.4744-.9893,2.1054-.4336.631-.9749,1.1259-1.6244,1.4837-.6501.3567-1.427.5362-2.3312.5362-.7537,0-1.4229-.1227-2.0064-.3671-.5841-.2444-1.0409-.6362-1.3703-1.1723-.3299-.5372-.4944-1.2383-.4944-2.1054,0-1.1867.3763-2.157,1.13-2.9107.7532-.7527,1.9781-1.13,3.6737-1.13h4.3227v1.7518h-3.786c-.7913,0-1.4177.1516-1.8791.4526-.4619.3011-.6924.7815-.6924,1.4404,0,.3207.0799.6176.2402.8908.1598.2732.4047.4939.7346.664.3294.1691.7769.2536,1.3424.2536.7346,0,1.3744-.1361,1.9214-.4093.5459-.2732.9651-.6403,1.2574-1.1022.2918-.4609.4377-.9836.4377-1.5682v-3.6448c0-.829-.1882-1.4641-.565-1.9075-.3769-.4423-1.0362-.664-1.9781-.664-.7532,0-1.3466.1835-1.7801.5506-.4336.3681-.7444.8527-.9321,1.4559l-2.8256-.9331c.2067-.6774.5599-1.2806,1.0594-1.8085.499-.5269,1.1347-.9362,1.9075-1.229.7723-.2918,1.6667-.4372,2.6844-.4372,1.2615,0,2.2977.1877,3.1081.565.8094.3763,1.4028.9372,1.7801,1.6806.3763.7444.565,1.6528.565,2.7271v8.6743h-2.7127v-4.0407l.2547,1.0177Z"/>
        <path d="M66.8686,12.1789l.3109.2536-.4805.8197c-.1129.1887-.2026.3629-.2681.5227-.0665.1608-.099.3248-.099.4949,0,.2825.1129.4846.3387.6073.2263.1227.5939.1835,1.1022.1835h4.1253c1.4131,0,2.4869.2825,3.2215.8475s1.1017,1.3662,1.1017,2.4024c0,.9599-.2217,1.7415-.664,2.3446-.4428.6032-1.1867,1.0506-2.2322,1.3424s-2.491.4382-4.3371.4382c-1.6203,0-2.8921-.1134-3.8144-.3392-.9233-.2258-1.578-.5557-1.9642-.9888-.3861-.4341-.5789-.9424-.5789-1.526,0-.4898.1928-.9094.5789-1.2579s.8852-.6454,1.4976-.8898c.6119-.2454,1.2574-.433,1.9358-.565l.7063.1134c-.4903,0-.9089.0794-1.2574.2402-.349.1598-.6171.3619-.8053.6073-.1887.2444-.2825.5083-.2825.7908,0,.3763.1268.6877.3815.9331.2542.2444.7011.4279,1.3419.5506.6403.1227,1.5352.1835,2.6844.1835,1.1677,0,2.0673-.0701,2.6983-.2114.631-.1423,1.0692-.3444,1.3141-.6083s.3676-.5929.3676-.9888c0-.4516-.1748-.8145-.5227-1.0878-.349-.2732-.9001-.4093-1.6533-.4093h-4.6903c-.6217,0-1.1543-.0753-1.5966-.2268-.4428-.1505-.7769-.3712-1.0032-.664-.2258-.2918-.3387-.6351-.3387-1.0311,0-.3578.1222-.6877.3671-.9888s.5743-.5836.9888-.8475l1.526-1.0455ZM70.3159,5.3687l1.2151-.0845-.0851,1.1022-1.2713-.565c.5836.0753,1.163.1835,1.7378.3248.5743.1413,1.097.3207,1.5682.5372.4707.2165.8475.5083,1.13.8754s.4238.8156.4238,1.3424c0,.8104-.2217,1.5167-.664,2.1188-.4428.6032-1.1017,1.0785-1.9776,1.427-.8764.3485-1.9456.5227-3.2071.5227-1.8843,0-3.3298-.4052-4.3377-1.2146-1.0079-.8104-1.5115-1.9312-1.5115-3.3623,0-1.0362.2351-1.9033.7063-2.6003.4707-.696,1.1584-1.2239,2.0626-1.5816s1.9874-.5372,3.2494-.5372h6.6122v2.1188h-1.2996c-.3207,0-.6975-.0186-1.1306-.0567-.4336-.0371-.9182-.0845-1.4548-.1413-.5372-.0557-1.1259-.1309-1.7662-.2258ZM65.5122,17.2362v-.6774h.8759l.1134.4238-.9893.2536ZM69.1859,5.9059c-1.112,0-1.9075.231-2.3879.6918-.4805.4619-.7207,1.0414-.7207,1.7384,0,.7341.2356,1.3228.7068,1.7662.4707.4423,1.2806.664,2.4297.664,1.1682,0,1.9966-.2217,2.4869-.664.4892-.4434.7346-1.0321.7346-1.7662,0-.7156-.264-1.3002-.7913-1.7518-.5274-.4526-1.3471-.6784-2.458-.6784Z"/>
        <path d="M87.4109,13.9306h-1.0455l.5934-.8197c-.2263.7733-.5563,1.4744-.9893,2.1054-.4336.631-.9749,1.1259-1.6244,1.4837-.6501.3567-1.427.5362-2.3312.5362-.7537,0-1.4229-.1227-2.0064-.3671-.5841-.2444-1.0409-.6362-1.3703-1.1723-.3299-.5372-.4944-1.2383-.4944-2.1054,0-1.1867.3763-2.157,1.13-2.9107.7532-.7527,1.9781-1.13,3.6737-1.13h4.3227v1.7518h-3.786c-.7913,0-1.4177.1516-1.8791.4526-.4619.3011-.6924.7815-.6924,1.4404,0,.3207.0799.6176.2402.8908.1598.2732.4047.4939.7346.664.3294.1691.7769.2536,1.3424.2536.7346,0,1.3744-.1361,1.9214-.4093.5459-.2732.9651-.6403,1.2574-1.1022.2918-.4609.4377-.9836.4377-1.5682v-3.6448c0-.829-.1882-1.4641-.565-1.9075-.3769-.4423-1.0362-.664-1.9781-.664-.7532,0-1.3466.1835-1.7801.5506-.4336.3681-.7444.8527-.9321,1.4559l-2.8256-.9331c.2067-.6774.5599-1.2806,1.0594-1.8085.499-.5269,1.1347-.9362,1.9075-1.229.7723-.2918,1.6667-.4372,2.6844-.4372,1.2615,0,2.2977.1877,3.1081.565.8094.3763,1.4028.9372,1.7801,1.6806.3763.7444.565,1.6528.565,2.7271v8.6743h-2.7127v-4.0407l.2547,1.0177Z"/>
        <path d="M96.7069,7.0081h1.1022l-.7351,1.2991c.2263-.9042.5795-1.7322,1.0599-2.4859.4805-.7537,1.0738-1.3569,1.7801-1.8085.7063-.4526,1.4925-.6784,2.3596-.6784.7908,0,1.4693.1742,2.0343.5227s1.0032.862,1.3141,1.5404c.3103.6774.466,1.5064.466,2.4859v9.0702h-3.0519v-8.2784c0-.5661-.0753-1.0362-.2258-1.4136-.1511-.3763-.3954-.6681-.7346-.8754s-.7728-.3114-1.2996-.3114c-.6975,0-1.3239.1608-1.8791.4805-.5563.3207-.9893.763-1.3002,1.328-.3103.565-.466,1.1971-.466,1.893v7.1772h-3.0514V3.6737h2.9102v5.0295l-.2825-1.6951Z"/>
      </g>
      <g>
        <path d="M9.8951,37.7388c.0949-.5078.2284-1.0821.399-1.7224.1706-.6398.3459-1.2991.5269-1.9771.1799-.6774.3557-1.3223.5264-1.9343.1706-.6114.3222-1.1249.4552-1.5389l2.5282-6.89,5.2275.0103-.033,16.9537-3.1648-.0062.015-7.8268c.0021-.9042.018-1.8693.0485-2.8962.0299-1.0269.0603-2.0204.0907-2.9813.0299-.9599.0454-1.7796.0469-2.4575l.7027,1.809-2.2039-.0041.9646-1.891c-.1902.7908-.4129,1.6662-.6692,2.6261-.2562.9604-.5315,1.9348-.8254,2.9231-.2944.9888-.6207,1.9631-.9805,2.9225l-2.3281,5.8446-3.3344-.0062-2.2209-5.9667c-.3366-1.0177-.6454-2.0168-.9259-2.9968-.281-.9795-.5336-1.9178-.7578-2.8132-.2243-.895-.43-1.7476-.6166-2.5581l.8439,1.8946-1.9781-.0041.6537-1.8348c.0361.7161.0577,1.5497.0655,2.5003.0077.9517.0108,1.9358.0088,2.953s-.0036,1.9879-.0057,2.9107l-.015,7.8268-2.939-.0057.033-16.9537,5.5383.0108,2.3879,7.0122c.1309.3774.2856.8671.4635,1.4703.1773.6032.365,1.2579.5609,1.9647.1969.7073.3789,1.3759.5475,2.0075.1681.6315.2985,1.1728.3923,1.6255l-1.1548-2.0652,2.091.0041-.9646,2.0606Z"/>
        <path d="M32.2458,37.6414l-1.0455-.0021.5949-.8176c-.2279.7723-.5588,1.4724-.9934,2.1028s-.9769,1.1239-1.6275,1.4806c-.6506.3557-1.428.5336-2.3323.532-.7537-.0015-1.4223-.1258-2.0054-.3712-.5836-.2459-1.0398-.6382-1.3682-1.1754-.3289-.5372-.4918-1.2393-.4903-2.1059.0026-1.1867.3805-2.1565,1.1357-2.9086.7547-.7516,1.9807-1.1259,3.6762-1.1228l4.3227.0088-.0036,1.7518-3.786-.0077c-.7913-.0015-1.4182.1485-1.8801.4485-.4624.3006-.6939.781-.6949,1.4399-.0005.3207.0784.6176.2382.8903.1593.2737.4042.4954.7336.6655.3289.1706.7764.2557,1.3419.2567.7346.0015,1.3744-.1335,1.9219-.4057.547-.2717.9666-.6382,1.26-1.0996.2923-.4604.4392-.9831.4408-1.5672l.0067-3.6453c.0021-.8285-.1851-1.4646-.5609-1.908-.3763-.4439-1.0352-.6661-1.9771-.6681-.7532-.001-1.3466.181-1.7812.5475-.4341.3665-.746.8511-.9347,1.4533l-2.8241-.9383c.2083-.6774.5624-1.279,1.063-1.8064.5001-.5258,1.1367-.9341,1.91-1.2249.7728-.2902,1.6672-.4346,2.6849-.4325,1.2615.0026,2.2977.1928,3.1071.5712.8089.3784,1.4012.9398,1.777,1.6842.3748.7455.5619,1.6543.5593,2.7282l-.0165,8.6748-2.7127-.0057.0077-4.0407.2526,1.0177Z"/>
        <path d="M37.662,27.3952l8.9006.017-.0046,2.3451-8.9006-.017.0046-2.3451ZM39.5653,36.6387l.0253-12.913,3.0519.0062-.0247,12.5738c-.001.6599.1392,1.1543.4212,1.4842.2815.3305.7522.4959,1.4115.4975.3392.0005.6594-.0273.9609-.083.3011-.0562.6119-.1309.9331-.2243l.3619,2.6003c-.3207.0938-.6222.1779-.9048.2526s-.5892.1299-.9187.1675c-.3299.0371-.7114.0552-1.1445.0546-.9795-.0021-1.775-.2016-2.3864-.598-.6114-.3975-1.0625-.9249-1.3533-1.5853-.2908-.6594-.4351-1.4043-.4336-2.2333Z"/>
        <path d="M48.6247,27.4164l8.9006.0175-.0046,2.3451-8.9006-.0175.0046-2.3451ZM50.5281,36.6603l.0253-12.913,3.0519.0057-.0247,12.5738c-.001.6599.1392,1.1548.4212,1.4847.2815.3305.7522.4959,1.4115.497.3392.0005.6594-.0268.9609-.0825.3011-.0562.6119-.1309.9331-.2248l.3619,2.6008c-.3207.0933-.6222.1773-.9048.2521s-.5892.1304-.9187.1681c-.3299.0371-.7114.0552-1.1445.0541-.9795-.0015-1.775-.2011-2.3864-.598s-1.0625-.9249-1.3533-1.5853c-.2908-.6594-.4351-1.4038-.4336-2.2328Z"/>
        <path d="M63.622,30.7802l.8759.0021-.6805,1.2697c.2846-.8656.6625-1.6801,1.1352-2.4421.4722-.762,1.062-1.3682,1.7698-1.8188.7068-.4506,1.5218-.6753,2.4452-.6738.7532.0015,1.4079.1779,1.9626.5269.5547.35.9826.8635,1.2826,1.543.3.6784.4495,1.5074.4475,2.4869l-.0175,9.0702-3.0519-.0057.016-8.2789c.001-.5655-.0778-1.0367-.2371-1.4136s-.4042-.6692-.7331-.8774c-.3294-.2078-.7388-.3124-1.2285-.3134-.7346-.001-1.3806.1578-1.9363.4769-.5568.3196-.9908.7609-1.3027,1.3254-.3114.5645-.4686,1.1955-.4696,1.892l-.0139,7.1772-3.0514-.0057.0366-18.9318,3.0514.0057-.0206,10.6807-.2794-1.6956Z"/>
        <path d="M82.7595,41.1031c-1.3564-.0026-2.5287-.2552-3.5164-.7558-.9878-.5006-1.7492-1.261-2.2843-2.2792-.5346-1.0182-.8011-2.2807-.798-3.7881.0031-1.5064.2645-2.7967.7852-3.8696.5197-1.0723,1.2749-1.8904,2.2647-2.4539.9903-.563,2.1724-.8429,3.5479-.8403,1.3564.0026,2.4622.2495,3.319.7408.8563.4918,1.495,1.1898,1.9173,2.0951.4217.9048.632,1.96.63,3.1653-.0005.2454-.0062.5279-.0165.848-.0103.3207-.034.631-.0722.9321l-10.257-.0201.0036-1.8363,8.3072.016-.7362.7052c.0598-1.4878-.1598-2.6091-.6573-3.3638-.4975-.7542-1.3399-1.1331-2.5266-1.1357-1.1682-.0021-2.0451.3877-2.6302,1.1682-.5856.7805-.88,2.009-.8831,3.6855-.0031,1.5636.2861,2.7369.8687,3.5195.582.7831,1.5048,1.1754,2.7674,1.178.6965.0015,1.2522-.0964,1.6672-.2933s.731-.465.9486-.8032c.2165-.3387.3923-.6965.5248-1.0728l2.5421.6831c-.2093.7532-.531,1.412-.9651,1.976-.4346.564-1.029,1.0058-1.7827,1.3244-.7542.3186-1.7435.4774-2.9679.4748Z"/>
        <path d="M103.1022,27.5231l1.2331,5.2017c.2614,1.1687.513,2.3704.7563,3.6046.2418,1.2342.447,2.5008.6135,3.8015l-.5047-1.7812,1.526.0031-.6253,1.7786c.1722-1.3182.4052-2.5704.6996-3.7567s.5841-2.4194.8687-3.7l1.1971-5.1403,3.0236.0057-3.9252,13.2733-4.2665-.0088-1.2605-5.7945c-.2428-1.0744-.4619-2.1766-.6578-3.3076-.1954-1.1306-.3676-2.2328-.516-3.3071l.6753,1.4708-1.6956-.0036.6248-1.4677c-.1346,1.0924-.3011,2.1987-.5011,3.3195-.2,1.1202-.4238,2.2168-.6702,3.2901l-1.2548,5.7899-4.0969-.0077-3.8453-13.2883,3.1081.0062,1.261,5.1455c.3181,1.2816.6171,2.5111.897,3.6886.2804,1.178.5135,2.4359.6996,3.7742l-.6181-1.7812,1.5255.0026-.5119,1.7791c.1722-1.2615.3815-2.5184.6289-3.7711.2469-1.2517.5135-2.4617.798-3.6293l1.2254-5.1971,3.5886.0072Z"/>
      </g>
    </g>
  </g>
</svg>