<?xml version="1.0" encoding="UTF-8"?>
<svg id="Layer_2" xmlns="http://www.w3.org/2000/svg" viewBox="0 0 408.9844 101.3525">
  <g id="Layer_1-2" data-name="Layer_1">
    <g>
      <path d="M34.9453,22.9316c1.6768,1.0527,3.5801,2.8936,5.7109,5.5234V0h9.0996v77.5264h-8.5205v-7.8369c-2.2012,3.4717-4.8037,5.9785-7.8076,7.5215-3.0049,1.542-6.4443,2.3145-10.3223,2.3145-6.252,0-11.666-2.6387-16.2422-7.916-4.5752-5.2764-6.8633-12.2988-6.8633-21.0645,0-8.2051,2.0869-15.3135,6.2607-21.3271s10.1377-9.0205,17.8926-9.0205c4.2959,0,7.8926.9121,10.792,2.7344ZM13.8125,65.166c2.5469,4.0684,6.6289,6.1016,12.2461,6.1016,4.3604,0,7.9443-1.8848,10.7539-5.6543,2.8076-3.7686,4.2119-9.1777,4.2119-16.2256,0-7.1172-1.4482-12.3867-4.3428-15.8047-2.8965-3.4189-6.4717-5.1279-10.7285-5.1279-4.7451,0-8.5908,1.8232-11.5391,5.4697-2.9473,3.6475-4.4209,9.0117-4.4209,16.0938,0,6.0312,1.2734,11.0811,3.8193,15.1475Z"/>
      <path d="M98.6973,22.748c3.7285,1.876,6.5684,4.3047,8.5205,7.2842,1.8818,2.8408,3.1357,6.1543,3.7637,9.9404.5576,2.5957.8369,6.7324.8369,12.4131h-40.9727c.1748,5.7314,1.5146,10.3291,4.0195,13.792,2.5049,3.4639,6.3838,5.1953,11.6367,5.1953,4.9053,0,8.8193-1.6387,11.7412-4.9141,1.6357-1.9014,2.7949-4.1035,3.4766-6.6045h9.3096c-.2461,2.0693-1.0605,4.374-2.4453,6.916-1.3857,2.543-2.9307,4.6201-4.6357,6.2324-2.8535,2.8057-6.3857,4.6982-10.5957,5.6807-2.2627.5605-4.8203.8418-7.6738.8418-6.9688,0-12.875-2.5518-17.7188-7.6533s-7.2646-12.2451-7.2646-21.4326c0-9.0459,2.4395-16.3916,7.3184-22.0371,4.8779-5.6455,11.2549-8.4678,19.1318-8.4678,3.9727,0,7.8223.9385,11.5518,2.8135ZM102.0879,44.8643c-.3828-4.1025-1.2695-7.3809-2.6602-9.835-2.5732-4.5576-6.8672-6.8379-12.8818-6.8379-4.3115,0-7.9268,1.5703-10.8477,4.708s-4.4688,7.126-4.6416,11.9648h31.0312Z"/>
      <path d="M129.4375,59.8545c.2861,3.1553,1.0908,5.5752,2.415,7.2578,2.4336,3.0508,6.6572,4.5762,12.6689,4.5762,3.5781,0,6.7275-.7627,9.4482-2.2881,2.7197-1.5254,4.0801-3.8828,4.0801-7.0742,0-2.4189-1.0879-4.2598-3.2607-5.5225-1.3906-.7705-4.1338-1.665-8.2314-2.6826l-7.6436-1.8936c-4.8818-1.1914-8.4814-2.5244-10.7969-3.9971-4.1338-2.5586-6.2012-6.1006-6.2012-10.624,0-5.3291,1.9453-9.6426,5.8369-12.9385,3.8906-3.2959,9.123-4.9443,15.6973-4.9443,8.5996,0,14.7998,2.4902,18.6016,7.4688,2.3809,3.1553,3.5361,6.5576,3.4668,10.2031h-8.9414c-.1807-2.126-.9521-4.0615-2.3154-5.8057-2.2256-2.4756-6.085-3.7139-11.5762-3.7139-3.6611,0-6.4336.6816-8.3184,2.0439-1.8838,1.3623-2.8262,3.1621-2.8262,5.3975,0,2.4463,1.2383,4.4023,3.7148,5.8701,1.4287.874,3.5361,1.6436,6.3232,2.3096l6.377,1.5254c6.9307,1.6484,11.5742,3.2432,13.9326,4.7861,3.6816,2.4189,5.5225,6.2246,5.5225,11.4131,0,5.0146-1.9258,9.3447-5.7773,12.9912-3.8525,3.6465-9.7178,5.4697-17.5996,5.4697-8.4844,0-14.4922-1.9023-18.0244-5.7061-3.5322-3.8047-5.4229-8.5117-5.6709-14.1221h9.0986Z"/>
      <path d="M177.668.2637h9.625v10.7295h-9.625V.2637ZM177.668,21.459h9.625v56.0674h-9.625V21.459Z"/>
      <path d="M232.915,23.458c1.7803,1.2275,3.5967,3.0156,5.4482,5.3652v-7.1006h8.7305v51.2275c0,7.1533-1.0479,12.7988-3.1445,16.9365-3.9141,7.6436-11.3057,11.4658-22.1738,11.4658-6.0459,0-11.1299-1.3594-15.2539-4.0762-4.124-2.7178-6.4307-6.9697-6.9209-12.7549h9.625c.4521,2.5244,1.3594,4.4707,2.7197,5.8379,2.127,2.1045,5.4746,3.1562,10.043,3.1562,7.2188,0,11.9434-2.5605,14.1758-7.6787,1.3252-3.0166,1.9365-8.3975,1.8311-16.1475-1.8857,2.876-4.1562,5.0146-6.8105,6.417s-6.165,2.1035-10.5303,2.1035c-6.0771,0-11.3955-2.1641-15.9531-6.4951-4.5576-4.3301-6.8369-11.4922-6.8369-21.4854,0-9.4316,2.2969-16.7959,6.8896-22.0908,4.5928-5.2939,10.1377-7.9414,16.6338-7.9414,4.4014,0,8.2432,1.0869,11.5273,3.2607ZM234.0723,33.6094c-2.8604-3.3662-6.5059-5.0498-10.9365-5.0498-6.6289,0-11.1631,3.1211-13.6045,9.3623-1.291,3.332-1.9365,7.6973-1.9365,13.0967,0,6.3467,1.2822,11.1758,3.8457,14.4893,2.5645,3.3145,6.0098,4.9707,10.335,4.9707,6.7676,0,11.5283-3.0674,14.2852-9.2041,1.5352-3.4717,2.3027-7.5215,2.3027-12.1494,0-6.9775-1.4307-12.1494-4.291-15.5156Z"/>
      <path d="M261.5049,21.1963h8.9941v7.9951c2.6641-3.2959,5.4873-5.6631,8.4678-7.1006,2.9795-1.4375,6.2939-2.1562,9.9404-2.1562,7.9951,0,13.3936,2.7871,16.1992,8.3623,1.543,3.0508,2.3145,7.416,2.3145,13.0967v36.1328h-9.625v-35.502c0-3.4365-.5088-6.2061-1.5254-8.3105-1.6826-3.5059-4.7334-5.2588-9.1514-5.2588-2.2441,0-4.085.2285-5.5225.6836-2.5957.7715-4.874,2.3135-6.8379,4.6279-1.5771,1.8594-2.6035,3.7793-3.0762,5.7598-.4736,1.9814-.71,4.8125-.71,8.4941v29.5059h-9.4678V21.1963Z"/>
      <path d="M356.2051,22.748c3.7285,1.876,6.5684,4.3047,8.5205,7.2842,1.8818,2.8408,3.1357,6.1543,3.7637,9.9404.5576,2.5957.8369,6.7324.8369,12.4131h-40.9727c.1748,5.7314,1.5146,10.3291,4.0195,13.792,2.5049,3.4639,6.3838,5.1953,11.6367,5.1953,4.9053,0,8.8193-1.6387,11.7412-4.9141,1.6357-1.9014,2.7949-4.1035,3.4766-6.6045h9.3096c-.2461,2.0693-1.0605,4.374-2.4453,6.916-1.3857,2.543-2.9307,4.6201-4.6357,6.2324-2.8535,2.8057-6.3857,4.6982-10.5957,5.6807-2.2627.5605-4.8203.8418-7.6738.8418-6.9688,0-12.875-2.5518-17.7188-7.6533s-7.2646-12.2451-7.2646-21.4326c0-9.0459,2.4395-16.3916,7.3184-22.0371,4.8779-5.6455,11.2549-8.4678,19.1318-8.4678,3.9727,0,7.8223.9385,11.5518,2.8135ZM359.5957,44.8643c-.3828-4.1025-1.2695-7.3809-2.6602-9.835-2.5732-4.5576-6.8672-6.8379-12.8818-6.8379-4.3115,0-7.9268,1.5703-10.8477,4.708s-4.4688,7.126-4.6416,11.9648h31.0312Z"/>
      <path d="M381.582,21.1963h8.9932v9.7305c.7363-1.8936,2.542-4.1982,5.418-6.916,2.874-2.7178,6.1875-4.0762,9.9404-4.0762.1748,0,.4727.0176.8936.0518.4209.0361,1.1396.1055,2.1572.2109v9.9932c-.5615-.1055-1.0791-.1748-1.5518-.2109-.4736-.0342-.9912-.0518-1.5518-.0518-4.7695,0-8.4336,1.5342-10.9922,4.6016-2.5605,3.0684-3.8398,6.6006-3.8398,10.5986v32.3984h-9.4668V21.1963Z"/>
    </g>
  </g>
</svg>