<?xml version="1.0" encoding="UTF-8"?>
<svg id="Layer_2" xmlns="http://www.w3.org/2000/svg" viewBox="0 0 589.0908 92.7432">
  <g id="Layer_1-2" data-name="Layer_1">
    <g>
      <path d="M7.8096,53.9121c.6816,2.6221,1.7773,4.9727,3.2852,7.0547,1.5078,2.084,3.4102,3.8076,5.709,5.1709,2.2979,1.3652,5.0625,2.0469,8.2939,2.0469,4.9551,0,8.833-1.293,11.6338-3.8779s4.7393-6.0322,5.8164-10.3408h6.7861c-1.4375,6.3193-4.0762,11.2021-7.917,14.6494-3.8428,3.4463-9.2822,5.1699-16.3193,5.1699-4.3809,0-8.1689-.7725-11.3633-2.3154-3.1963-1.5439-5.7998-3.6621-7.8096-6.3555-2.0117-2.6934-3.501-5.8164-4.4707-9.3711-.9688-3.5547-1.4541-7.3066-1.4541-11.2568,0-3.6621.4854-7.252,1.4541-10.7715.9697-3.5176,2.459-6.6592,4.4707-9.4248,2.0098-2.7637,4.6133-4.9902,7.8096-6.6787,3.1943-1.6865,6.9824-2.5312,11.3633-2.5312,4.4521,0,8.2578.8984,11.418,2.6934,3.1592,1.7959,5.7256,4.1465,7.7021,7.0547,1.9736,2.9092,3.3926,6.248,4.2549,10.0176.8613,3.7705,1.2197,7.5947,1.0771,11.4717H6.7861c0,2.4424.3398,4.9736,1.0234,7.5947ZM41.417,33.1768c-.8262-2.3701-1.9932-4.4707-3.501-6.3018s-3.3389-3.3018-5.4932-4.416c-2.1543-1.1123-4.5967-1.6699-7.3252-1.6699-2.7998,0-5.2773.5576-7.4316,1.6699-2.1543,1.1143-3.9863,2.585-5.4941,4.416s-2.7109,3.9502-3.6084,6.3555c-.8984,2.4062-1.4912,4.8652-1.7773,7.3789h35.9775c-.0723-2.5859-.5225-5.0635-1.3467-7.4326Z"/>
      <path d="M65.3838,16.6963v9.5859h.2148c1.293-3.374,3.5898-6.0859,6.8945-8.1318,3.3018-2.0469,6.9287-3.0703,10.8789-3.0703,3.8779,0,7.126.5029,9.748,1.5078,2.6211,1.0068,4.7217,2.4238,6.3018,4.2549,1.5781,1.8311,2.6924,4.0762,3.3389,6.7324.6465,2.6572.9697,5.6387.9697,8.9404v35.7617h-6.7861v-34.6846c0-2.3701-.2158-4.5781-.6465-6.624-.4307-2.0469-1.1846-3.8242-2.2617-5.332-1.0771-1.5088-2.5312-2.6934-4.3623-3.5547-1.832-.8623-4.1123-1.293-6.8408-1.293s-5.1533.4844-7.2705,1.4541c-2.1191.9697-3.915,2.2988-5.3857,3.9854-1.4727,1.6885-2.6221,3.6992-3.4473,6.0322-.8262,2.335-1.2754,4.8662-1.3457,7.5938v32.4229h-6.7861V16.6963h6.7861Z"/>
      <path d="M138.6289,16.6963v5.709h-11.3105v37.4844c0,2.2275.3047,3.9688.916,5.2246.6094,1.2568,2.1357,1.957,4.5781,2.1006,1.9385,0,3.877-.1074,5.8164-.3232v5.709c-1.0068,0-2.0117.0352-3.0166.1074-1.0059.0713-2.0107.1084-3.0156.1084-4.5244,0-7.6846-.8789-9.4795-2.6396-1.7959-1.7588-2.6572-5.0088-2.585-9.748V22.4053h-9.6943v-5.709h9.6943V0h6.7861v16.6963h11.3105Z"/>
      <path d="M154.6777,16.6963v13.0332h.2148c1.7236-4.5244,4.3984-8.0059,8.0254-10.4482,3.625-2.4404,7.9521-3.5547,12.9795-3.3389v6.7861c-3.0889-.1436-5.8896.2686-8.4023,1.2383-2.5146.9697-4.6855,2.3525-6.5166,4.1475-1.8311,1.7959-3.25,3.9316-4.2549,6.4092-1.0059,2.4766-1.5078,5.1885-1.5078,8.1318v29.6221h-6.7861V16.6963h6.248Z"/>
      <path d="M185.4297,53.9121c.6816,2.6221,1.7773,4.9727,3.2852,7.0547,1.5078,2.084,3.4102,3.8076,5.709,5.1709,2.2979,1.3652,5.0625,2.0469,8.2939,2.0469,4.9551,0,8.833-1.293,11.6338-3.8779s4.7393-6.0322,5.8164-10.3408h6.7861c-1.4375,6.3193-4.0762,11.2021-7.917,14.6494-3.8428,3.4463-9.2822,5.1699-16.3193,5.1699-4.3809,0-8.1689-.7725-11.3633-2.3154-3.1963-1.5439-5.7998-3.6621-7.8096-6.3555-2.0117-2.6934-3.501-5.8164-4.4707-9.3711-.9688-3.5547-1.4541-7.3066-1.4541-11.2568,0-3.6621.4854-7.252,1.4541-10.7715.9697-3.5176,2.459-6.6592,4.4707-9.4248,2.0098-2.7637,4.6133-4.9902,7.8096-6.6787,3.1943-1.6865,6.9824-2.5312,11.3633-2.5312,4.4521,0,8.2578.8984,11.418,2.6934,3.1592,1.7959,5.7256,4.1465,7.7021,7.0547,1.9736,2.9092,3.3926,6.248,4.2549,10.0176.8613,3.7705,1.2197,7.5947,1.0771,11.4717h-42.7637c0,2.4424.3398,4.9736,1.0234,7.5947ZM219.0371,33.1768c-.8262-2.3701-1.9932-4.4707-3.501-6.3018s-3.3389-3.3018-5.4932-4.416c-2.1543-1.1123-4.5967-1.6699-7.3252-1.6699-2.7998,0-5.2773.5576-7.4316,1.6699-2.1543,1.1143-3.9863,2.585-5.4941,4.416s-2.7109,3.9502-3.6084,6.3555c-.8984,2.4062-1.4912,4.8652-1.7773,7.3789h35.9775c-.0723-2.5859-.5225-5.0635-1.3467-7.4326Z"/>
      <path d="M242.5732,16.6963v10.5557h.2148c1.5791-3.8779,4.1475-6.875,7.7021-8.9941,3.5547-2.1172,7.5938-3.1777,12.1182-3.1777,4.2354,0,7.917.791,11.04,2.3701,3.124,1.5801,5.7266,3.7158,7.8096,6.4092,2.082,2.6924,3.625,5.8164,4.6318,9.3711,1.0049,3.5547,1.5078,7.3076,1.5078,11.2559s-.5029,7.7021-1.5078,11.2568c-1.0068,3.5547-2.5498,6.6777-4.6318,9.3711-2.083,2.6934-4.6855,4.8115-7.8096,6.3555-3.123,1.543-6.8047,2.3154-11.04,2.3154-2.0117,0-4.0234-.252-6.0322-.7539-2.0117-.5029-3.8779-1.2559-5.6016-2.2617-1.7236-1.0049-3.25-2.2627-4.5781-3.7705-1.3291-1.5078-2.3525-3.2666-3.0693-5.2773h-.2158v31.0215h-6.7861V16.6963h6.248ZM279.7891,35.9229c-.6836-2.8359-1.7607-5.3672-3.2324-7.5938-1.4727-2.2246-3.3574-4.0391-5.6543-5.4395-2.2998-1.4004-5.0625-2.1006-8.2939-2.1006-3.7354,0-6.8594.6465-9.3721,1.9395-2.5146,1.292-4.5234,3.0156-6.0322,5.1699-1.5078,2.1543-2.5684,4.6689-3.1768,7.54-.6113,2.873-.916,5.8887-.916,9.0479,0,2.873.3398,5.7275,1.0234,8.5635.6816,2.8379,1.7939,5.3691,3.3389,7.5938,1.5439,2.2275,3.5547,4.04,6.0322,5.4404s5.5107,2.1006,9.1025,2.1006c3.2314,0,5.9941-.7002,8.2939-2.1006,2.2969-1.4004,4.1816-3.2129,5.6543-5.4404,1.4717-2.2246,2.5488-4.7559,3.2324-7.5938.6816-2.8359,1.0225-5.6904,1.0225-8.5635,0-2.8711-.3408-5.7256-1.0225-8.5635Z"/>
      <path d="M304.4014,16.6963v13.0332h.2148c1.7236-4.5244,4.3984-8.0059,8.0254-10.4482,3.625-2.4404,7.9521-3.5547,12.9795-3.3389v6.7861c-3.0889-.1436-5.8896.2686-8.4023,1.2383-2.5146.9697-4.6855,2.3525-6.5166,4.1475-1.8311,1.7959-3.25,3.9316-4.2549,6.4092-1.0059,2.4766-1.5078,5.1885-1.5078,8.1318v29.6221h-6.7861V16.6963h6.248Z"/>
      <path d="M335.1533,53.9121c.6816,2.6221,1.7773,4.9727,3.2852,7.0547,1.5078,2.084,3.4102,3.8076,5.709,5.1709,2.2979,1.3652,5.0625,2.0469,8.2939,2.0469,4.9551,0,8.833-1.293,11.6338-3.8779s4.7393-6.0322,5.8164-10.3408h6.7861c-1.4375,6.3193-4.0762,11.2021-7.917,14.6494-3.8428,3.4463-9.2822,5.1699-16.3193,5.1699-4.3809,0-8.1689-.7725-11.3633-2.3154-3.1963-1.5439-5.7998-3.6621-7.8096-6.3555-2.0117-2.6934-3.501-5.8164-4.4707-9.3711-.9688-3.5547-1.4541-7.3066-1.4541-11.2568,0-3.6621.4854-7.252,1.4541-10.7715.9697-3.5176,2.459-6.6592,4.4707-9.4248,2.0098-2.7637,4.6133-4.9902,7.8096-6.6787,3.1943-1.6865,6.9824-2.5312,11.3633-2.5312,4.4521,0,8.2578.8984,11.418,2.6934,3.1592,1.7959,5.7256,4.1465,7.7021,7.0547,1.9736,2.9092,3.3926,6.248,4.2549,10.0176.8613,3.7705,1.2197,7.5947,1.0771,11.4717h-42.7637c0,2.4424.3398,4.9736,1.0234,7.5947ZM368.7607,33.1768c-.8262-2.3701-1.9932-4.4707-3.501-6.3018s-3.3389-3.3018-5.4932-4.416c-2.1543-1.1123-4.5967-1.6699-7.3252-1.6699-2.7998,0-5.2773.5576-7.4316,1.6699-2.1543,1.1143-3.9863,2.585-5.4941,4.416s-2.7109,3.9502-3.6084,6.3555c-.8984,2.4062-1.4912,4.8652-1.7773,7.3789h35.9775c-.0723-2.5859-.5225-5.0635-1.3467-7.4326Z"/>
      <path d="M392.7275,16.6963v9.5859h.2148c1.293-3.374,3.5898-6.0859,6.8945-8.1318,3.3018-2.0469,6.9287-3.0703,10.8789-3.0703,3.8779,0,7.126.5029,9.748,1.5078,2.6211,1.0068,4.7217,2.4238,6.3018,4.2549,1.5781,1.8311,2.6924,4.0762,3.3389,6.7324.6465,2.6572.9697,5.6387.9697,8.9404v35.7617h-6.7861v-34.6846c0-2.3701-.2158-4.5781-.6465-6.624-.4307-2.0469-1.1846-3.8242-2.2617-5.332-1.0771-1.5088-2.5312-2.6934-4.3623-3.5547-1.832-.8623-4.1123-1.293-6.8408-1.293s-5.1533.4844-7.2705,1.4541c-2.1191.9697-3.915,2.2988-5.3857,3.9854-1.4727,1.6885-2.6221,3.6992-3.4473,6.0322-.8262,2.335-1.2754,4.8662-1.3457,7.5938v32.4229h-6.7861V16.6963h6.7861Z"/>
      <path d="M478.6289,17.4502c3.2666,1.5801,6.0137,3.6992,8.2402,6.3555,2.2256,2.6572,3.9131,5.7627,5.0625,9.3174,1.1484,3.5547,1.7236,7.3428,1.7236,11.3633s-.5752,7.8096-1.7236,11.3643c-1.1494,3.5547-2.8369,6.6621-5.0625,9.3174-2.2266,2.6572-4.9736,4.7578-8.2402,6.3018-3.2686,1.543-7.0195,2.3154-11.2559,2.3154s-7.9902-.7725-11.2568-2.3154c-3.2686-1.5439-6.0146-3.6445-8.2402-6.3018-2.2266-2.6553-3.915-5.7627-5.0625-9.3174-1.1494-3.5547-1.7236-7.3418-1.7236-11.3643s.5742-7.8086,1.7236-11.3633c1.1475-3.5547,2.8359-6.6602,5.0625-9.3174,2.2256-2.6562,4.9717-4.7754,8.2402-6.3555,3.2666-1.5791,7.0186-2.3701,11.2568-2.3701s7.9873.791,11.2559,2.3701ZM458.8633,22.8359c-2.4424,1.3652-4.4707,3.1602-6.0859,5.3857-1.6162,2.2266-2.8379,4.7578-3.6621,7.5938-.8271,2.8379-1.2393,5.7275-1.2393,8.6709,0,2.9453.4121,5.8359,1.2393,8.6719.8242,2.8369,2.0459,5.3682,3.6621,7.5938,1.6152,2.2266,3.6436,4.0225,6.0859,5.3857,2.4404,1.3652,5.2783,2.0469,8.5098,2.0469s6.0674-.6816,8.5088-2.0469c2.4404-1.3633,4.4707-3.1592,6.0859-5.3857,1.6162-2.2256,2.8359-4.7568,3.6631-7.5938.8242-2.8359,1.2383-5.7266,1.2383-8.6719,0-2.9434-.4141-5.833-1.2383-8.6709-.8271-2.8359-2.0469-5.3672-3.6631-7.5938-1.6152-2.2256-3.6455-4.0205-6.0859-5.3857-2.4414-1.3633-5.2773-2.0469-8.5088-2.0469s-6.0693.6836-8.5098,2.0469Z"/>
      <path d="M542.5576,72.2773v-10.0176h-.2148c-1.7959,3.7344-4.3994,6.5889-7.8096,8.5635-3.4111,1.9746-7.2002,2.9619-11.3643,2.9619-3.5195,0-6.5166-.4844-8.9941-1.4541s-4.4883-2.3516-6.0322-4.1465c-1.5449-1.7949-2.6758-3.9863-3.3926-6.5713-.7188-2.585-1.0771-5.5283-1.0771-8.832V16.6963h6.7861v36.1924c.1426,5.0273,1.3096,8.833,3.501,11.418,2.1895,2.585,5.9775,3.8779,11.3633,3.8779,2.9443,0,5.457-.6279,7.54-1.8857,2.082-1.2549,3.8057-2.9248,5.1709-5.0088,1.3633-2.082,2.3691-4.4697,3.0156-7.1631.6465-2.6924.9697-5.4395.9697-8.2402v-29.1904h6.7861v55.5811h-6.248Z"/>
      <path d="M567.8711,16.6963v13.0332h.2148c1.7236-4.5244,4.3984-8.0059,8.0254-10.4482,3.625-2.4404,7.9521-3.5547,12.9795-3.3389v6.7861c-3.0889-.1436-5.8896.2686-8.4023,1.2383-2.5146.9697-4.6855,2.3525-6.5166,4.1475-1.8311,1.7959-3.25,3.9316-4.2549,6.4092-1.0059,2.4766-1.5078,5.1885-1.5078,8.1318v29.6221h-6.7861V16.6963h6.248Z"/>
    </g>
  </g>
</svg>