<?xml version="1.0" encoding="UTF-8"?>
<svg id="Layer_2" xmlns="http://www.w3.org/2000/svg" viewBox="0 0 597.707 80.7871">
  <defs>
    <style>
      .cls-1 {
        fill: #00c100;
      }
    </style>
  </defs>
  <g id="Layer_1-2" data-name="Layer_1">
    <g>
      <path class="cls-1" d="M10.0176,29.2988h3.123l-2.0459,4.6318c.4307-4.7393,1.4355-8.5801,3.0156-11.5254,1.5791-2.9434,3.6621-5.0625,6.2471-6.3555,2.5859-1.292,5.457-1.9385,8.6182-1.9385,4.0205,0,7.2705.8262,9.748,2.4775,2.4775,1.6523,4.2715,3.8965,5.3857,6.7324,1.1123,2.8369,1.6689,6.0498,1.6689,9.6406v33.0684h-11.6328v-29.8369c0-2.1543-.3418-4.0752-1.0234-5.7627-.6836-1.6865-1.7773-3.0869-3.2852-4.2012-1.5078-1.1123-3.5918-1.6699-6.248-1.6699-2.5137,0-4.6494.4492-6.4082,1.3467-1.7607.8984-3.124,2.208-4.0938,3.9316s-1.4541,3.8066-1.4541,6.2471v29.9453H0V0h11.6328v32.7461l-1.6152-3.4473Z"/>
      <path class="cls-1" d="M88.2178,52.1348h-3.123l1.9385-4.5234c-.3604,4.7393-1.3467,8.5459-2.9619,11.417-1.6162,2.873-3.6631,4.9922-6.1396,6.3555-2.4775,1.3633-5.3691,2.0469-8.6719,2.0469-4.0928,0-7.3613-.8447-9.8018-2.5312-2.4424-1.6865-4.2197-3.9482-5.332-6.7861-1.1143-2.8359-1.6699-6.0488-1.6699-9.6406V15.4043h11.6338v29.9443c0,2.0117.3232,3.8965.9697,5.6553.6455,1.7607,1.7588,3.1777,3.3389,4.2549,1.5781,1.0771,3.6621,1.6152,6.2471,1.6152,2.5127,0,4.6494-.4473,6.4092-1.3457,1.7588-.8975,3.124-2.2256,4.0938-3.9854.9688-1.7588,1.4541-3.8242,1.4541-6.1943V15.4043h11.6328v50.626h-11.6328v-17.3418l1.6152,3.4463Z"/>
      <path class="cls-1" d="M115.7939,29.2988h3.0156l-1.9385,4.6318c.4307-4.8096,1.4541-8.6523,3.0693-11.5254,1.6162-2.8711,3.6797-4.9717,6.1934-6.3018,2.5137-1.3271,5.3857-1.9922,8.6182-1.9922,4.0205,0,7.2705.8262,9.748,2.4775,2.4775,1.6523,4.2715,3.8965,5.3857,6.7324,1.1123,2.8369,1.6689,6.0498,1.6689,9.6406v33.0684h-11.6328v-29.8369c0-2.1543-.3418-4.0752-1.0234-5.7627-.6836-1.6865-1.7773-3.0869-3.2852-4.2012-1.5078-1.1123-3.5918-1.6699-6.248-1.6699-2.4414,0-4.5605.4492-6.3545,1.3467-1.7959.8984-3.1777,2.208-4.1475,3.9316s-1.4541,3.8066-1.4541,6.2471v29.9453h-11.6328V15.4043h11.6328v17.3418l-1.6152-3.4473ZM149.7236,29.9453h3.0166l-1.7236,3.9854c.3584-4.7393,1.293-8.5801,2.8008-11.5254,1.5078-2.9434,3.501-5.0625,5.9775-6.3555,2.4775-1.292,5.4033-1.9385,8.7793-1.9385,4.1641,0,7.5029.8262,10.0176,2.4775,2.5127,1.6523,4.3086,3.8965,5.3857,6.7324,1.0771,2.8369,1.6162,6.0498,1.6162,9.6406v33.0684h-11.5264v-29.8369c0-2.1543-.3408-4.0752-1.0225-5.7627-.6836-1.6865-1.7773-3.0869-3.2861-4.2012-1.5078-1.1123-3.5918-1.6699-6.2471-1.6699-2.5146,0-4.6504.4492-6.4092,1.3467-1.7607.8984-3.124,2.208-4.0928,3.9316-.9697,1.7236-1.4551,3.8066-1.4551,6.2471h-1.6152l-.2158-6.1396Z"/>
      <path class="cls-1" d="M226.5254,53.3193h-2.9082l1.5078-7.54c-.0723,4.5967-.8809,8.4932-2.4238,11.6875-1.5449,3.1963-3.627,5.6016-6.2471,7.2168-2.623,1.6162-5.7637,2.4238-9.4258,2.4238-3.0879,0-5.835-.5381-8.2402-1.6162-2.4062-1.0771-4.2734-2.6738-5.6006-4.793-1.3301-2.1172-1.9932-4.793-1.9932-8.0244,0-4.7402,1.4541-8.5801,4.3623-11.5264,2.9082-2.9434,7.5215-4.416,13.8418-4.416h16.6963l.1074,8.6172h-15.0801c-2.7305,0-4.8662.4854-6.4092,1.4541-1.5449.9697-2.3164,2.3164-2.3164,4.04,0,1.1494.3047,2.2451.916,3.2852.6094,1.042,1.543,1.8848,2.8008,2.5312,1.2549.6465,2.9619.9697,5.1162.9697,2.7285,0,5.0791-.4668,7.0557-1.4004,1.9736-.9326,3.4824-2.209,4.5234-3.8242,1.04-1.6162,1.5625-3.4639,1.5625-5.5479v-12.1719c0-3.5176-.7373-6.1562-2.208-7.917-1.4727-1.7588-3.9688-2.6387-7.4863-2.6387-3.1611,0-5.6553.7539-7.4863,2.2617s-2.999,4.1309-3.501,7.8633l-10.9873-1.6152c.502-3.8057,1.5977-7.0908,3.2852-9.8564,1.6865-2.7637,4.0938-4.8828,7.2178-6.3555,3.123-1.4707,7.126-2.208,12.0098-2.208,4.8105,0,8.7607.791,11.8486,2.3701,3.0869,1.5801,5.3486,3.8965,6.7861,6.9473,1.4355,3.0537,2.1543,6.7324,2.1543,11.041v31.4531h-11.6328v-15.4033l2.1543,2.6924Z"/>
      <path class="cls-1" d="M253.3467,29.2988h3.0156l-1.8311,4.5244c.3584-4.667,1.3281-8.4561,2.9082-11.3643,1.5791-2.9082,3.6436-5.0254,6.1934-6.3555,2.5488-1.3271,5.4395-1.9922,8.6719-1.9922,4.0205,0,7.2705.8262,9.748,2.4775,2.4775,1.6523,4.2715,3.8965,5.3857,6.7324,1.1123,2.8369,1.6689,6.0498,1.6689,9.6406v33.0684h-11.6328v-29.8369c0-2.1543-.3418-4.0752-1.0234-5.7627-.6836-1.6865-1.7959-3.0869-3.3389-4.2012-1.5449-1.1123-3.6084-1.6699-6.1943-1.6699-2.4414,0-4.5605.4492-6.3545,1.3467-1.7959.8984-3.1777,2.208-4.1475,3.9316s-1.4541,3.8066-1.4541,6.2471v29.9453h-11.6328V15.4043h11.6328v17.3418l-1.6152-3.4473Z"/>
      <path class="cls-1" d="M324.0059,15.4043v65.3828h-11.6328V15.4043h11.6328ZM322.2822,51.4883v-2.6924h2.4775l.2158,2.6924h-2.6934ZM322.498,32.6387l.1074-2.9082h2.2617l-.1074,2.9082h-2.2617ZM362.1377,40.502c0,8.4014-1.7236,14.9902-5.1709,19.7656-3.4463,4.7764-8.3311,7.1631-14.6494,7.1631-3.0156,0-5.6191-.4492-7.8096-1.3467-2.1914-.8965-4.0576-2.2617-5.6006-4.0928-1.5449-1.8311-2.7656-4.0938-3.6621-6.7861-.8994-2.6934-1.5273-5.7627-1.8857-9.21l.6465-4.9551c0,3.1611.5391,5.9434,1.6162,8.3477,1.0771,2.4072,2.6553,4.2734,4.7393,5.6016,2.082,1.3301,4.4512,1.9932,7.1094,1.9932,4.4512,0,7.7549-1.4541,9.9092-4.3623,2.1543-2.9092,3.2314-6.9482,3.2314-12.1182,0-5.0986-1.041-9.0303-3.123-11.7949-2.084-2.7637-5.3857-4.1475-9.9102-4.1475-2.8008,0-5.2246.6113-7.2705,1.8311-2.0469,1.2217-3.6084,2.9805-4.6855,5.2783-1.0771,2.2988-1.6162,5.1348-1.6162,8.5098l-.6465-4.6318c.4307-4.7393,1.4004-8.6885,2.9082-11.8486,1.5088-3.1592,3.5898-5.5479,6.248-7.1631,2.6553-1.6162,5.9238-2.4238,9.8018-2.4238,4.3799,0,8.0254,1.0605,10.9336,3.1777,2.9082,2.1191,5.1162,5.1533,6.624,9.1016,1.5078,3.9502,2.2627,8.6543,2.2627,14.1113Z"/>
      <path class="cls-1" d="M390.5732,67.3232c-5.1709,0-9.6943-.9883-13.5723-2.9629-3.8779-1.9736-6.8936-4.9004-9.0479-8.7783s-3.2314-8.6172-3.2314-14.2188c0-5.7441,1.04-10.6641,3.123-14.7568,2.082-4.0938,5.0801-7.2168,8.9941-9.3711s8.4912-3.2314,13.7344-3.2314c5.1699,0,9.46,1.0059,12.8721,3.0156,3.4102,2.0117,5.96,4.8115,7.6475,8.4023,1.6865,3.5908,2.5312,7.6846,2.5312,12.2793,0,1.0771.0176,2.1377.0537,3.1777.0361,1.042-.0537,2.208-.2686,3.501h-40.6094v-8.5098h33.0693l-2.8008,3.4463c.1426-5.0254-.8262-8.8682-2.9082-11.5254-2.084-2.6553-5.3857-3.9854-9.9102-3.9854s-8.0078,1.3838-10.4482,4.1475c-2.4424,2.7646-3.6621,7.0195-3.6621,12.7637,0,5.458,1.2383,9.5703,3.7158,12.334,2.4775,2.7646,6.0859,4.1465,10.8252,4.1465,2.6562,0,4.8291-.3936,6.5166-1.1846,1.6865-.7891,2.9795-1.8848,3.8779-3.2852.8975-1.4004,1.6328-2.9258,2.208-4.5781l10.126,2.8008c-.9346,3.3037-2.3535,6.1768-4.2549,8.6172-1.9033,2.4424-4.3457,4.3457-7.3252,5.709-2.9805,1.3633-6.7324,2.0469-11.2559,2.0469Z"/>
      <path class="cls-1" d="M429.2422,32.0996l2.1543-.1074-1.1846,3.9854c.502-4.1641,1.166-7.5938,1.9932-10.2871.8242-2.6924,1.8311-4.7744,3.0156-6.2471,1.1846-1.4707,2.6211-2.5127,4.3086-3.124,1.6865-.6094,3.5713-.915,5.6553-.915h2.9082v13.0332h-4.9551c-3.0156,0-5.458.377-7.3242,1.1309-1.8682.7539-3.2148,2.0117-4.0391,3.7705-.8271,1.7598-1.2393,4.1113-1.2393,7.0547v25.6367h-11.6328V15.4043h11.6328v19.8193l-1.293-3.124Z"/>
      <path class="cls-1" d="M471.79,67.4307c-5.3857,0-9.6943-.7539-12.9258-2.2617-3.2314-1.5088-5.6553-3.6084-7.2715-6.3018-1.6152-2.6934-2.7461-5.6553-3.3926-8.8867l10.8789-2.1543c.5742,2.1543,1.3281,4.0225,2.2627,5.6016.9316,1.5801,2.2617,2.8379,3.9854,3.7695,1.7227.9346,3.9482,1.4004,6.6777,1.4004,3.0869,0,5.3857-.5918,6.8945-1.7773,1.5078-1.1846,2.2969-2.7461,2.3691-4.6855,0-1.2197-.3604-2.2617-1.0771-3.124-.7188-.8613-1.9922-1.6504-3.8232-2.3691-1.832-.7168-4.4355-1.3633-7.8096-1.9395-4.5244-.9316-8.1328-2.082-10.8262-3.4463-2.6924-1.3633-4.6494-3.0518-5.8701-5.0625-1.2217-2.0098-1.8311-4.3447-1.8311-7.002,0-4.5244,1.6865-8.168,5.0625-10.9326,3.375-2.7637,8.3652-4.1475,14.9727-4.1475,4.5947,0,8.3477.6289,11.2559,1.8848,2.9082,1.2578,5.1709,3.0352,6.7861,5.332,1.6162,2.2988,2.7822,5.0996,3.501,8.4023l-11.0947,2.585c-.7188-3.3027-1.9033-5.7256-3.5547-7.2715-1.6523-1.543-3.9502-2.3154-6.8936-2.3154-2.8008,0-4.9385.5215-6.4092,1.5615-1.4727,1.042-2.208,2.4961-2.208,4.3633,0,1.2217.3232,2.2988.9697,3.2314.6455.9336,1.8662,1.7412,3.6621,2.4229,1.7939.6836,4.3789,1.3467,7.7549,1.9932,4.668.8613,8.4023,2.0107,11.2031,3.4473s4.7744,3.1602,5.9238,5.1699c1.1484,2.0117,1.7236,4.3086,1.7236,6.8936,0,3.0889-.7539,5.8174-2.2617,8.1865-1.5078,2.3701-3.8076,4.2012-6.8936,5.4932-3.0889,1.293-7.002,1.9395-11.7412,1.9395Z"/>
      <path class="cls-1" d="M521.0146,67.4307c-5.3857,0-10.0176-1.0771-13.8955-3.2314s-6.8584-5.2598-8.9404-9.3174c-2.083-4.0566-3.123-8.8145-3.123-14.2725,0-5.6016,1.0938-10.376,3.2852-14.3262,2.1895-3.9482,5.2236-6.9648,9.1016-9.0479,3.8779-2.082,8.4023-3.124,13.5723-3.124s9.6943,1.042,13.5723,3.124c3.8779,2.083,6.8936,5.0996,9.0479,9.0479,2.1543,3.9502,3.2314,8.7246,3.2314,14.3262,0,8.3311-2.2988,14.8828-6.8936,19.6582-4.5967,4.7764-10.916,7.1631-18.958,7.1631ZM521.0146,24.667c-4.5234,0-8.043,1.4189-10.5557,4.2549-2.5146,2.8379-3.7705,6.6973-3.7705,11.5801,0,3.2314.5557,6.0684,1.6699,8.5088,1.1123,2.4424,2.7285,4.3457,4.8467,5.709,2.1172,1.3652,4.6855,2.0469,7.7021,2.0469,4.5947,0,8.1494-1.4893,10.6641-4.4697,2.5127-2.9795,3.7695-6.9111,3.7695-11.7949,0-3.2314-.5752-6.0322-1.7236-8.4023-1.1494-2.3691-2.7998-4.2012-4.9541-5.4932-2.1543-1.293-4.7051-1.9395-7.6484-1.9395Z"/>
      <path class="cls-1" d="M561.9463,29.2988h3.0156l-1.8311,4.5244c.3584-4.667,1.3281-8.4561,2.9082-11.3643,1.5791-2.9082,3.6436-5.0254,6.1934-6.3555,2.5488-1.3271,5.4395-1.9922,8.6719-1.9922,4.0205,0,7.2705.8262,9.748,2.4775,2.4775,1.6523,4.2715,3.8965,5.3857,6.7324,1.1123,2.8369,1.6689,6.0498,1.6689,9.6406v33.0684h-11.6328v-29.8369c0-2.1543-.3418-4.0752-1.0234-5.7627-.6836-1.6865-1.7959-3.0869-3.3389-4.2012-1.5449-1.1123-3.6084-1.6699-6.1943-1.6699-2.4414,0-4.5605.4492-6.3545,1.3467-1.7959.8984-3.1777,2.208-4.1475,3.9316s-1.4541,3.8066-1.4541,6.2471v29.9453h-11.6328V15.4043h11.6328v17.3418l-1.6152-3.4473Z"/>
    </g>
  </g>
</svg>