<?xml version="1.0" encoding="UTF-8"?>
<svg id="Layer_2" xmlns="http://www.w3.org/2000/svg" viewBox="0 0 905.7832 80.2712">
  <g id="Layer_1-2" data-name="Layer_1">
    <g>
      <path d="M27.3584,24.5576c10.3408,0,23.5889,5.8174,24.9893,21.3271h-8.9404c-1.5078-10.2324-8.293-13.7871-16.0488-13.7871-12.71,0-18.5264,9.2637-18.5264,20.25,0,11.0947,5.8164,20.3574,18.5264,20.3574,7.7559,0,14.541-3.5547,16.0488-13.7871h8.9404c-1.4004,15.5107-14.6484,21.3271-24.9893,21.3271-17.3418,0-27.3584-12.3867-27.3584-27.8975,0-15.4023,10.0166-27.79,27.3584-27.79Z"/>
      <path d="M64.5225,31.9902c0-5.0625,2.3691-7.54,7.4316-7.3242l29.7285.9688v7.54l-28.3281-.9688v46.9619h-8.832V31.9902Z"/>
      <path d="M132.0596,24.5576c15.0801,0,24.9893,9.5869,24.9893,26.0664v3.4473h-42.3311c.5391,10.125,5.3857,18.8496,18.6348,18.8496,8.832,0,14.7568-4.3086,16.6953-12.4951h8.832c-2.0459,8.2939-8.5088,19.8193-25.5273,19.8193-19.1729,0-27.251-13.1406-27.251-28.5439,0-17.2334,10.7705-27.1436,25.958-27.1436ZM148.4316,47.3926c0-8.6162-5.708-15.4023-16.3721-15.4023-10.5557,0-17.3418,6.7861-17.3418,15.4023h33.7139Z"/>
      <path d="M187.3193,48.6855l21.3271-2.0469c-.5391-9.8018-5.8164-14.6484-15.0801-14.6484-7.7549,0-14.9717,3.4463-14.9717,13.5713h-8.6172c0-11.0938,8.4014-21.0039,23.5889-21.0039,14.9727,0,23.9121,9.9102,23.9121,24.2354v22.835h7.8633v7.54h-9.4785c-4.0928,0-6.3555-2.2617-6.3555-6.2471v-2.9082l1.4004-5.6016h-2.585c-2.0469,8.1865-7.7549,15.834-20.6807,15.834-15.5107,0-17.8799-10.3408-17.8799-15.9414,0-8.5088,5.0625-14.3252,17.5566-15.6182ZM188.7197,72.7051c12.1719,0,19.9268-8.4014,19.9268-19.4961l-19.8193,2.0469c-6.7852.6465-10.2324,2.6934-10.2324,7.9707,0,6.1396,3.8779,9.4785,10.125,9.4785Z"/>
      <path d="M266.2734,71.6279v7.54l-20.249,1.0771c-5.0625.3232-7.3252-2.3701-7.3252-7.3242v-39.7461h-11.8477v-7.54h11.8477v-13.7871l8.7256-2.6924v16.4795h16.6953v7.54h-16.6953v39.6377l18.8486-1.1846Z"/>
      <path d="M275.6475,71.6279h15.0791v-39.4219l-11.0938.9688v-7.54l12.3867-1.0771c5.0625-.4307,7.001,2.3701,7.001,6.4629v40.6074h15.0801v7.54h-38.4531v-7.54ZM285.7725,9.5859c0-4.0928,3.3389-7.4316,7.7549-7.4316,4.3086,0,7.7549,3.3389,7.7549,7.4316,0,4.3086-3.4463,7.54-7.7549,7.54-4.416,0-7.7549-3.2314-7.7549-7.54Z"/>
      <path d="M366.6641,25.6348l-17.4492,53.5332h-17.8799l-17.665-53.5332h8.6172l16.6953,51.0557h2.585l16.5869-51.0557h8.5098Z"/>
      <path d="M398.5488,24.5576c15.0801,0,24.9893,9.5869,24.9893,26.0664v3.4473h-42.3311c.5391,10.125,5.3857,18.8496,18.6348,18.8496,8.832,0,14.7568-4.3086,16.6953-12.4951h8.832c-2.0459,8.2939-8.5088,19.8193-25.5273,19.8193-19.1729,0-27.251-13.1406-27.251-28.5439,0-17.2334,10.7705-27.1436,25.958-27.1436ZM414.9209,47.3926c0-8.6162-5.708-15.4023-16.3721-15.4023-10.5557,0-17.3418,6.7861-17.3418,15.4023h33.7139Z"/>
      <path d="M520.8037,79.168v-7.8633l1.5078-6.0312h-2.585c-2.2617,8.2939-9.4785,14.9717-21.6504,14.9717-15.5107,0-25.5273-11.9561-25.5273-27.8975,0-15.834,10.0166-27.79,25.5273-27.79,12.1719,0,19.3887,6.6787,21.6504,15.0801h2.585l-1.5078-6.1396V0h8.832v79.168h-8.832ZM500.6611,32.0977c-11.0938,0-19.2803,6.0322-19.2803,20.25,0,14.3262,8.1865,20.3574,19.2803,20.3574s20.1426-6.0312,20.1426-20.3574c0-14.2178-9.0479-20.25-20.1426-20.25Z"/>
      <path d="M542.0254,71.6279h15.0791v-39.4219l-11.0938.9688v-7.54l12.3867-1.0771c5.0625-.4307,7.001,2.3701,7.001,6.4629v40.6074h15.0801v7.54h-38.4531v-7.54ZM552.1504,9.5859c0-4.0928,3.3389-7.4316,7.7549-7.4316,4.3086,0,7.7549,3.3389,7.7549,7.4316,0,4.3086-3.4463,7.54-7.7549,7.54-4.416,0-7.7549-3.2314-7.7549-7.54Z"/>
      <path d="M591.5752,31.9902c0-5.0625,2.3691-7.54,7.4316-7.3242l29.7285.9688v7.54l-28.3281-.9688v46.9619h-8.832V31.9902Z"/>
      <path d="M659.1123,24.5576c15.0801,0,24.9893,9.5869,24.9893,26.0664v3.4473h-42.3311c.5391,10.125,5.3857,18.8496,18.6348,18.8496,8.832,0,14.7568-4.3086,16.6953-12.4951h8.832c-2.0459,8.2939-8.5088,19.8193-25.5273,19.8193-19.1729,0-27.251-13.1406-27.251-28.5439,0-17.2334,10.7705-27.1436,25.958-27.1436ZM675.4844,47.3926c0-8.6162-5.708-15.4023-16.3721-15.4023-10.5557,0-17.3418,6.7861-17.3418,15.4023h33.7139Z"/>
      <path d="M723.3115,24.5576c10.3408,0,23.5889,5.8174,24.9893,21.3271h-8.9404c-1.5078-10.2324-8.293-13.7871-16.0488-13.7871-12.71,0-18.5264,9.2637-18.5264,20.25,0,11.0947,5.8164,20.3574,18.5264,20.3574,7.7559,0,14.541-3.5547,16.0488-13.7871h8.9404c-1.4004,15.5107-14.6484,21.3271-24.9893,21.3271-17.3418,0-27.3584-12.3867-27.3584-27.8975,0-15.4023,10.0166-27.79,27.3584-27.79Z"/>
      <path d="M792.6797,71.6279v7.54l-20.249,1.0771c-5.0625.3232-7.3252-2.3701-7.3252-7.3242v-39.7461h-11.8477v-7.54h11.8477v-13.7871l8.7256-2.6924v16.4795h16.6953v7.54h-16.6953v39.6377l18.8486-1.1846Z"/>
      <path d="M828.2266,24.5576c17.0186,0,28.1123,12.2793,28.1123,27.79,0,15.6182-11.0938,27.8975-28.1123,27.8975-17.126,0-28.3281-12.2793-28.3281-27.8975,0-15.5107,11.2021-27.79,28.3281-27.79ZM828.2266,72.7051c12.6025,0,19.3877-9.1553,19.3877-20.3574,0-11.0947-6.7852-20.25-19.3877-20.25-12.71,0-19.4961,9.1553-19.4961,20.25,0,11.2021,6.7861,20.3574,19.4961,20.3574Z"/>
      <path d="M868.623,31.9902c0-5.0625,2.3691-7.54,7.4316-7.3242l29.7285.9688v7.54l-28.3281-.9688v46.9619h-8.832V31.9902Z"/>
    </g>
  </g>
</svg>