<?xml version="1.0" encoding="UTF-8"?>
<svg id="Layer_2" xmlns="http://www.w3.org/2000/svg" viewBox="0 0 574.1328 96.8818">
  <g id="Layer_1-2" data-name="Layer_1">
    <g>
      <path d="M0,95.1455c3.2725-.21,5.3535-.9121,6.2412-2.1035.8877-1.1924,1.332-3.0684,1.332-5.6279v-50.4912c0-2.665-.3242-4.374-.9727-5.1289-.6494-.7529-1.8672-1.1299-3.6553-1.1299-.3867,0-.7461.0176-1.0781.0518-.334.0361-.8154.1055-1.4473.2109v-1.7354l4.9971-1.6309c.1748-.0342,3.6992-1.2441,10.5713-3.6289.1758,0,.3066.0781.3945.2363s.1318.3418.1318.5527v7.0977c2.3145-2.3135,4.3477-4.0312,6.1006-5.1533,3.1562-1.9619,6.3994-2.9443,9.7305-2.9443,4.8389,0,9.002,2.0576,12.4912,6.1738,3.4893,4.1152,5.2334,9.7461,5.2334,16.8916,0,7.0068-2.0957,13.3643-6.2852,19.0732-4.1904,5.71-9.459,8.5635-15.8047,8.5635-1.9639,0-3.6641-.2451-5.1016-.7363-2.2441-.7354-4.3135-2.085-6.2061-4.0479v17.25c0,3.541.5781,5.7148,1.7354,6.5215s3.6816,1.3496,7.5732,1.6309v1.8408H0v-1.7363ZM20.749,69.0342c1.8047,1.1738,3.9355,1.7598,6.3896,1.7598,3.7871,0,7.0215-1.8818,9.7041-5.6465,2.6826-3.7637,4.0234-9.0078,4.0234-15.7314,0-6.4434-1.3936-11.2588-4.1816-14.4453-2.7871-3.1865-6.0215-4.7803-9.7031-4.7803-2.5957,0-4.9619.7969-7.1006,2.3896-2.1396,1.5938-3.208,3.1602-3.208,4.7012v26.4219c.9111,2.3809,2.2695,4.1582,4.0762,5.3311Z"/>
      <path d="M54.2783,71.9512c2.875-.3857,4.7607-1.0957,5.6543-2.1299.8945-1.0342,1.3418-3.4795,1.3418-7.3369V11.9922c0-1.9629-.2549-3.4102-.7627-4.3389-.5088-.9287-1.7451-1.3945-3.708-1.3945-.3867,0-.7627.0264-1.1309.0791s-.7812.1143-1.2363.1846v-1.8936c1.543-.4551,3.4453-1.0078,5.707-1.6572,2.2607-.6484,3.8301-1.1123,4.707-1.3936l5.0488-1.5781.1055.3682v32.2939c2.209-2.5244,4.1719-4.3828,5.8906-5.5752,3.085-2.1035,6.417-3.1553,9.9932-3.1553,5.6807,0,9.5547,2.3848,11.624,7.1523,1.1211,2.5254,1.6826,5.8389,1.6826,9.9414v21.459c0,3.7168.4287,6.1357,1.2891,7.2578.8584,1.1221,2.6201,1.8584,5.2852,2.209v1.4727h-22.7734v-1.4727c3.0508-.4209,5.0137-1.1387,5.8906-2.1562.876-1.0166,1.3145-3.4531,1.3145-7.3105v-21.3018c0-3.4004-.5703-6.1533-1.709-8.2578-1.1396-2.1035-3.2871-3.1553-6.4434-3.1553-2.7344,0-5.3828.9824-7.9414,2.9453-2.5596,1.9639-3.8398,3.2441-3.8398,3.8398v25.9297c0,3.9268.4551,6.3818,1.3682,7.3633.9111.9814,2.8574,1.6826,5.8379,2.1035v1.4727h-23.1953v-1.4727Z"/>
      <path d="M116.5781,31.3213c4.4346-4.8213,10.1416-7.2324,17.1191-7.2324,6.9434,0,12.6934,2.2803,17.252,6.8379,4.5576,4.5586,6.8369,10.624,6.8369,18.1982,0,6.9775-2.209,13.043-6.627,18.1973-4.418,5.1553-10.1338,7.7324-17.1455,7.7324-6.7324,0-12.4307-2.4727-17.0938-7.416-4.6641-4.9443-6.9951-11.1504-6.9951-18.6191,0-6.9775,2.2168-12.877,6.6533-17.6982ZM124.9766,29.9795c-3.5127,3.1914-5.2695,8.6963-5.2695,16.5156,0,6.2412,1.4141,12.0625,4.2412,17.4619,2.8281,5.3994,6.7539,8.0996,11.7773,8.0996,3.9355,0,6.9648-1.8057,9.0898-5.418,2.126-3.6104,3.1885-8.3447,3.1885-14.2002,0-6.0664-1.3525-11.7812-4.0576-17.1465-2.7051-5.3643-6.6221-8.0469-11.751-8.0469-2.7754,0-5.1816.9121-7.2188,2.7344Z"/>
      <path d="M188.4492,24.9307v3.7871h-10.7295l-.1055,30.2949c0,2.665.2275,4.6807.6836,6.0488.8418,2.4189,2.4893,3.6289,4.9443,3.6289,1.2627,0,2.3574-.2979,3.2871-.8945.9287-.5957,1.9902-1.542,3.1826-2.8398l1.3672,1.1572-1.1572,1.5771c-1.8232,2.4551-3.752,4.1904-5.7852,5.207-2.0342,1.0166-3.998,1.5254-5.8906,1.5254-4.1387,0-6.9434-1.8408-8.416-5.5225-.8066-1.998-1.209-4.7676-1.209-8.3096v-31.873h-5.7334c-.1758-.1055-.3076-.2109-.3945-.3154-.0879-.1055-.1318-.2451-.1318-.4209,0-.3506.0791-.6221.2373-.8154.1572-.1924.6572-.6396,1.499-1.3408,2.4189-1.999,4.1631-3.6201,5.2334-4.8652,1.0684-1.2441,3.584-4.5312,7.5469-9.8623.4551,0,.7275.0361.8154.1055.0869.0703.1318.334.1318.7891v12.9385h10.624Z"/>
      <path d="M200.3633,31.3213c4.4346-4.8213,10.1416-7.2324,17.1191-7.2324,6.9434,0,12.6934,2.2803,17.252,6.8379,4.5576,4.5586,6.8369,10.624,6.8369,18.1982,0,6.9775-2.209,13.043-6.627,18.1973-4.418,5.1553-10.1338,7.7324-17.1455,7.7324-6.7324,0-12.4307-2.4727-17.0938-7.416-4.6641-4.9443-6.9951-11.1504-6.9951-18.6191,0-6.9775,2.2168-12.877,6.6533-17.6982ZM208.7617,29.9795c-3.5127,3.1914-5.2695,8.6963-5.2695,16.5156,0,6.2412,1.4141,12.0625,4.2412,17.4619,2.8281,5.3994,6.7539,8.0996,11.7773,8.0996,3.9355,0,6.9648-1.8057,9.0898-5.418,2.126-3.6104,3.1885-8.3447,3.1885-14.2002,0-6.0664-1.3525-11.7812-4.0576-17.1465-2.7051-5.3643-6.6221-8.0469-11.751-8.0469-2.7754,0-5.1816.9121-7.2188,2.7344Z"/>
      <path d="M254.7988,50.124c-1.7705-2.6992-2.6562-5.7334-2.6562-9.0986,0-4.1025,1.6309-7.9951,4.8916-11.6768s7.8711-5.5225,13.833-5.5225c2.5586,0,5.3818.6045,8.4678,1.8145,3.085,1.21,6.0479,1.8145,8.8887,1.8145.7363,0,1.8486-.0264,3.3398-.0791,1.4893-.0518,2.5684-.0781,3.2344-.0781h.6309v4.2598h-9.0986c.6309,1.4727,1.1221,2.7529,1.4727,3.8398.5957,2.0342.8936,3.9629.8936,5.7852,0,3.9971-1.6562,7.6709-4.9697,11.0186-3.3135,3.3496-7.7764,5.0234-13.3857,5.0234-.877,0-2.4551-.1582-4.7334-.4736-1.0176,0-2.3672.8594-4.0498,2.5771-1.6836,1.7188-2.5244,3.1211-2.5244,4.208,0,1.1221,1.2285,1.9453,3.6875,2.4717,1.6143.3506,3.4053.5264,5.3721.5264,9.0244,0,15.1523.5088,18.3838,1.5244,5.3018,1.6494,7.9531,5.1904,7.9531,10.625,0,5.54-3.0947,9.958-9.2832,13.2539s-12.4385,4.9443-18.75,4.9443c-5.751,0-10.3086-1.167-13.6748-3.498-3.3662-2.332-5.0498-4.7783-5.0498-7.3369,0-1.2627.4453-2.498,1.3359-3.708s2.6455-3.0068,5.2646-5.3916l3.458-3.1025.6289-.6309c-1.6016-.6318-2.8018-1.2451-3.6025-1.8408-1.3916-1.0869-2.0879-2.332-2.0879-3.7344,0-1.2969.6045-2.7266,1.8145-4.2871,1.21-1.5596,3.7949-4.0928,7.7578-7.5996-3.1914-1.0518-5.6719-2.9277-7.4424-5.6279ZM260.374,89.2549c3.3135,1.1221,7.1084,1.6836,11.3867,1.6836,5.8203,0,10.5537-1.0088,14.2012-3.0244,3.6465-2.0166,5.4697-4.4971,5.4697-7.4424,0-2.3496-1.4756-3.9102-4.4268-4.6807-1.8281-.4561-5.2881-.7197-10.3818-.7891-1.3008-.0352-2.6709-.0791-4.1113-.1318-1.4414-.0527-2.7588-.1143-3.9521-.1836-.7734-.0361-2.0215-.1758-3.7422-.4209-1.7217-.2461-3.0039-.4561-3.8467-.6318-.4229,0-1.4463,1.1045-3.0732,3.3135-1.6631,2.2441-2.4941,4.3135-2.4941,6.207,0,2.9453,1.6572,4.9785,4.9707,6.1006ZM277.0732,53.1221c2.1035-1.6836,3.1553-4.6104,3.1553-8.7832,0-3.3311-.8506-7.083-2.5508-11.2559-1.7012-4.1719-4.5322-6.2588-8.4941-6.2588-3.4365,0-5.8037,1.6299-7.1006,4.8916-.666,1.7178-.999,3.8389-.999,6.3633,0,4.2783,1.0342,8.1182,3.1035,11.5186,2.0684,3.4014,4.751,5.1025,8.0469,5.1025,1.9277,0,3.541-.5264,4.8389-1.5781Z"/>
      <path d="M299.1641,71.6885c3.2256-.2803,5.3643-.8496,6.416-1.71,1.0527-.8584,1.5781-2.6904,1.5781-5.4961v-23.7207c0-3.4707-.3242-5.9512-.9727-7.4424-.6494-1.4893-1.833-2.2354-3.5508-2.2354-.3506,0-.8145.0449-1.3936.1318-.5781.0879-1.1836.2021-1.8145.3418v-1.7354c1.9922-.7012,4.0371-1.4199,6.1338-2.1562,2.0977-.7363,3.5479-1.2627,4.3516-1.5781,1.7471-.666,3.5479-1.4199,5.4004-2.2617.2451,0,.3926.0879.4453.2627.0527.1758.0791.5439.0791,1.1045v8.626c2.25-3.1201,4.4199-5.5566,6.5127-7.3105,2.0918-1.7529,4.2637-2.6299,6.5146-2.6299,1.793,0,3.252.5352,4.377,1.6045s1.6875,2.4111,1.6875,4.0234c0,1.4375-.4297,2.6475-1.2881,3.6289-.8604.9814-1.9385,1.4727-3.2354,1.4727-1.333,0-2.6738-.6133-4.0234-1.8408s-2.4111-1.8408-3.1816-1.8408c-1.2275,0-2.7354.9912-4.5234,2.9717-1.7881,1.9814-2.6826,4.0234-2.6826,6.127v23.7207c0,3.0166.7012,5.1113,2.1045,6.2852,1.4014,1.1758,3.7334,1.7275,6.9951,1.6572v1.7354h-25.9297v-1.7354Z"/>
      <path d="M346.1318,50.2295c3.2256-2.1045,9.6592-4.9619,19.3027-8.5732v-4.4707c0-3.5762-.3516-6.0654-1.0527-7.4688-1.1924-2.3486-3.6641-3.5234-7.416-3.5234-1.7881,0-3.4893.4561-5.1016,1.3672-1.6133.9463-2.4189,2.2441-2.4189,3.8916,0,.4209.0869,1.1309.2627,2.1309.1748.999.2627,1.6387.2627,1.9189,0,1.9648-.6484,3.332-1.9453,4.1025-.7363.4561-1.6133.6846-2.6299.6846-1.5781,0-2.7881-.5176-3.6289-1.5518-.8418-1.0342-1.2627-2.1826-1.2627-3.4453,0-2.4541,1.5166-5.0225,4.5498-7.7051,3.0322-2.6826,7.4766-4.0234,13.333-4.0234,6.8018,0,11.4131,2.209,13.832,6.627,1.2969,2.4189,1.9463,5.9434,1.9463,10.5713v21.0908c0,2.0342.1396,3.4375.4209,4.208.4551,1.3672,1.4023,2.0508,2.8398,2.0508.8066,0,1.4727-.1221,1.999-.3682.5254-.2441,1.4375-.8408,2.7344-1.7881v2.7354c-1.1221,1.3672-2.332,2.4902-3.6289,3.3662-1.9639,1.333-3.9629,1.998-5.9961,1.998-2.3848,0-4.1113-.7705-5.1807-2.3135s-1.6562-3.3838-1.7617-5.5234c-2.665,2.3145-4.9434,4.0332-6.8369,5.1553-3.1914,1.8926-6.2246,2.8398-9.0996,2.8398-3.0156,0-5.6279-1.0605-7.8369-3.1826-2.209-2.1211-3.3135-4.8125-3.3135-8.0732,0-5.083,2.542-9.3262,7.627-12.7275ZM365.4346,44.2861c-4.0332,1.333-7.3643,2.8057-9.9932,4.418-5.0498,3.1211-7.5742,6.6621-7.5742,10.624,0,3.1914,1.0518,5.541,3.1562,7.0479,1.3672.9824,2.8926,1.4727,4.5752,1.4727,2.3145,0,4.5312-.6484,6.6533-1.9463,2.1211-1.2969,3.1826-2.9453,3.1826-4.9434v-16.6729Z"/>
      <path d="M382.8965,95.1455c3.2725-.21,5.3535-.9121,6.2412-2.1035.8877-1.1924,1.332-3.0684,1.332-5.6279v-50.4912c0-2.665-.3242-4.374-.9727-5.1289-.6494-.7529-1.8672-1.1299-3.6553-1.1299-.3867,0-.7461.0176-1.0781.0518-.334.0361-.8154.1055-1.4473.2109v-1.7354l4.9971-1.6309c.1748-.0342,3.6992-1.2441,10.5713-3.6289.1758,0,.3066.0781.3945.2363s.1318.3418.1318.5527v7.0977c2.3145-2.3135,4.3477-4.0312,6.1006-5.1533,3.1562-1.9619,6.3994-2.9443,9.7305-2.9443,4.8389,0,9.002,2.0576,12.4912,6.1738,3.4893,4.1152,5.2334,9.7461,5.2334,16.8916,0,7.0068-2.0957,13.3643-6.2852,19.0732-4.1904,5.71-9.459,8.5635-15.8047,8.5635-1.9639,0-3.6641-.2451-5.1016-.7363-2.2441-.7354-4.3135-2.085-6.2061-4.0479v17.25c0,3.541.5781,5.7148,1.7354,6.5215s3.6816,1.3496,7.5732,1.6309v1.8408h-25.9814v-1.7363ZM403.6455,69.0342c1.8047,1.1738,3.9355,1.7598,6.3896,1.7598,3.7871,0,7.0215-1.8818,9.7041-5.6465,2.6826-3.7637,4.0234-9.0078,4.0234-15.7314,0-6.4434-1.3936-11.2588-4.1816-14.4453-2.7871-3.1865-6.0215-4.7803-9.7031-4.7803-2.5957,0-4.9619.7969-7.1006,2.3896-2.1396,1.5938-3.208,3.1602-3.208,4.7012v26.4219c.9111,2.3809,2.2695,4.1582,4.0762,5.3311Z"/>
      <path d="M437.1738,71.9512c2.875-.3857,4.7607-1.0957,5.6543-2.1299.8945-1.0342,1.3418-3.4795,1.3418-7.3369V11.9922c0-1.9629-.2549-3.4102-.7627-4.3389-.5088-.9287-1.7451-1.3945-3.708-1.3945-.3867,0-.7627.0264-1.1309.0791s-.7812.1143-1.2363.1846v-1.8936c1.543-.4551,3.4453-1.0078,5.707-1.6572,2.2607-.6484,3.8301-1.1123,4.707-1.3936l5.0488-1.5781.1055.3682v32.2939c2.209-2.5244,4.1719-4.3828,5.8906-5.5752,3.085-2.1035,6.417-3.1553,9.9932-3.1553,5.6807,0,9.5547,2.3848,11.624,7.1523,1.1211,2.5254,1.6826,5.8389,1.6826,9.9414v21.459c0,3.7168.4287,6.1357,1.2891,7.2578.8584,1.1221,2.6201,1.8584,5.2852,2.209v1.4727h-22.7734v-1.4727c3.0508-.4209,5.0137-1.1387,5.8906-2.1562.876-1.0166,1.3145-3.4531,1.3145-7.3105v-21.3018c0-3.4004-.5703-6.1533-1.709-8.2578-1.1396-2.1035-3.2871-3.1553-6.4434-3.1553-2.7344,0-5.3828.9824-7.9414,2.9453-2.5596,1.9639-3.8398,3.2441-3.8398,3.8398v25.9297c0,3.9268.4551,6.3818,1.3682,7.3633.9111.9814,2.8574,1.6826,5.8379,2.1035v1.4727h-23.1953v-1.4727Z"/>
      <path d="M527.7441,29.2168c3.7168,3.4189,5.5752,8.2666,5.5752,14.543h-33.3984c.3506,8.1172,2.1914,14.0303,5.5234,17.7383,3.3301,3.708,7.2754,5.5615,11.834,5.5615,3.6816,0,6.7842-.9609,9.3086-2.8857,2.5254-1.9238,4.8564-4.6533,6.9951-8.1875l1.8418.6309c-1.4385,4.4609-4.1289,8.5869-8.0742,12.3799-3.9443,3.793-8.7754,5.6895-14.4902,5.6895-6.5918,0-11.6846-2.4893-15.2783-7.4688-3.5947-4.9785-5.3916-10.7119-5.3916-17.1992,0-7.0479,2.0859-13.1309,6.2588-18.25s9.6074-7.6797,16.3047-7.6797c4.9443,0,9.2744,1.71,12.9912,5.1279ZM502.5508,33.2412c-1.1221,1.8926-1.9287,4.2783-2.4189,7.1523h22.1953c-.3867-3.5059-1.0518-6.1182-1.999-7.8369-1.7178-3.085-4.5938-4.6279-8.625-4.6279-3.998,0-7.0479,1.7705-9.1523,5.3125Z"/>
      <path d="M538.3682,71.6885c3.2256-.2803,5.3643-.8496,6.416-1.71,1.0527-.8584,1.5781-2.6904,1.5781-5.4961v-23.7207c0-3.4707-.3242-5.9512-.9727-7.4424-.6494-1.4893-1.833-2.2354-3.5508-2.2354-.3506,0-.8145.0449-1.3936.1318-.5781.0879-1.1836.2021-1.8145.3418v-1.7354c1.9922-.7012,4.0371-1.4199,6.1338-2.1562,2.0977-.7363,3.5479-1.2627,4.3516-1.5781,1.7471-.666,3.5479-1.4199,5.4004-2.2617.2451,0,.3926.0879.4453.2627.0527.1758.0791.5439.0791,1.1045v8.626c2.25-3.1201,4.4199-5.5566,6.5127-7.3105,2.0918-1.7529,4.2637-2.6299,6.5146-2.6299,1.793,0,3.252.5352,4.377,1.6045s1.6875,2.4111,1.6875,4.0234c0,1.4375-.4297,2.6475-1.2881,3.6289-.8604.9814-1.9385,1.4727-3.2354,1.4727-1.333,0-2.6738-.6133-4.0234-1.8408s-2.4111-1.8408-3.1816-1.8408c-1.2275,0-2.7354.9912-4.5234,2.9717-1.7881,1.9814-2.6826,4.0234-2.6826,6.127v23.7207c0,3.0166.7012,5.1113,2.1045,6.2852,1.4014,1.1758,3.7334,1.7275,6.9951,1.6572v1.7354h-25.9297v-1.7354Z"/>
    </g>
  </g>
</svg>