<?xml version="1.0" encoding="UTF-8"?>
<svg id="Layer_2" xmlns="http://www.w3.org/2000/svg" viewBox="0 0 641.7562 153.6184">
  <defs>
    <style>
      .cls-1 {
        fill: #1239c6;
      }
    </style>
  </defs>
  <g id="Layer_1-2" data-name="Layer_1">
    <g id="T2QwYv.tif">
      <g>
        <path class="cls-1" d="M71.0786,112.55c-1.301,15.1604-9.5648,25.6301-21.0405,33.8396-14.0278,10.0351-29.3932,8.5912-41.4978-3.5979-3.1037-3.1254-5.8705-6.5832-8.5403-10.2226,8.3234,3.8973,16.8672,6.1787,25.9638,5.8923,14.9351-.4703,32.1521-12.8786,36.2196-27.1594.9993-3.5085-.6534-8.6038-2.7399-11.944-2.8268-4.5253-7.2473-8.0618-11.3725-12.4342,1.8498-4.0331,3.9699-8.6555,6.3326-13.8071,7.1874,4.8099,11.5095,11.2971,13.925,18.9185,1.1587,3.6562,2.6796,4.8642,6.5306,4.7703,11.4451-.2792,22.9015-.1001,34.9539-.1001-.0746-6.6276-3.1691-11.5921-6.1819-16.6641-.8197-1.38-1.3218-3.5678-.8255-4.9877,1.5153-4.3357,3.588-8.4779,5.4439-12.6954l1.6164-.4742c2.5552,5.5412,5.5504,10.9308,7.5418,16.6664,1.9908,5.734,2.9776,11.8141,4.452,17.9396h37.0246c-.6176-7.418-3.7755-13.2269-8.4129-18.7583,2.2198-5.1009,4.5041-10.3499,7.0976-16.3096,8.2186,10.8178,11.1608,22.568,12.7378,34.7712h57.1534c.2066-.4338.4132-.8676.6198-1.3014-11.9316-13.1798-25.0629-25.0787-39.5958-36.2968-.9307,2.0238-1.5816,3.439-2.3906,5.1982-2.7945-2.5521-5.3881-4.8491-7.9023-7.2293-10.5612-9.9983-8.8675-24.1981,4.489-30.5058,19.2122-9.0732,38.8788-17.1909,58.3628-25.6906.5434-.237,1.2154-.1811,2.6292-.3675-2.4488,6.002-4.4881,11.528-7.0122,16.8245-.651,1.3661-2.7117,2.2868-4.3176,2.945-15.824,6.486-31.6888,12.8735-48.27,19.5835,2.4222,1.9925,4.3502,3.6868,6.3881,5.2378,17.6278,13.4168,34.5792,27.5259,48.4235,45.0144,4.0756,5.1484,6.0827,10.4496,4.6759,17.0288-.7289,3.4084-2.0382,5.4297-5.8566,5.2213-2.6525-.1448-5.3232.0731-7.9857.0738-29.2812.008-58.5624-.0435-87.8435.0211-22.1168.0488-44.2332.2391-66.3498.3789-1.3186.0083-2.6366.1279-4.4461.2209Z"/>
        <path class="cls-1" d="M496.5702,96.5937h20.9198c4.0818-13.9315,11.3161-26.1541,20.0107-37.4911,1.9938-2.5997,5.6664-3.9208,8.5663-5.8303,1.3323,3.2334,3.4026,6.3717,3.8374,9.7209.8075,6.2192.7911,12.5598.87,18.853.0639,5.1033.5066,10.4439-5.8907,14.3356,2.6398.2886,3.8478.539,5.0546.5344,12.8121-.0491,25.625-.2652,38.4355-.1635,6.3116.0501,10.005-2.5089,12.1729-8.5566,1.9392-5.4096,4.5621-10.7192,7.7328-15.5153,5.4619-8.2621,14.4086-8.9181,21.045-1.5953,7.0735,7.8051,11.4853,17.1087,12.3436,27.6732.8558,10.5331-4.5603,15.4606-15.0418,14.3714-10.2195-1.062-16.9588-3.3045-26.82-8.9883-2.8089,6.3032-8.1307,8.0867-14.5929,8.0194-10.469-.109-20.94-.0278-31.4101-.0269-1.6154.0001-3.2309,0-4.3988,0,.3469,3.2546,1.1548,6.109.8472,8.8385-.9064,8.0423-1.8151,16.1323-3.5711,24.016-1.3735,6.1665-3.6774,7.1674-9.8529,5.6975-8.7939-2.0931-13.8622-8.4097-16.5891-16.4028-2.3929-7.0139-3.7686-14.3723-5.6671-21.869h-19.5284c-2.3695,13.8402-8.9176,24.9034-21.1822,32.1104-7.8851,4.6334-16.4267,6.3252-25.4272,5.0077-12.593-1.8435-26.0424-15.3585-27.2666-27.1635,11.6626,10.7798,23.9362,20.1043,41.0962,14.0921,11.3061-3.9612,19.6358-11.3665,23.3282-22.7243-4.4844-1.3078-8.8228-2.0109-12.6497-3.8004-9.3634-4.3785-13.7325-14.0638-10.0217-23.6414,2.4718-6.3797,6.0189-12.5758,10.1894-18.0125,5.0589-6.5948,12.4299-6.014,16.0689,1.4696,3.2698,6.7241,4.7371,14.3294,6.8673,21.5846.4517,1.5385.3304,3.244.5244,5.457ZM625.742,99.5526c5.091-.9021,6.7783-3.152,5.1187-7.5704-.7452-1.9842-1.61-4.2251-3.1231-5.5568-2.848-2.5065-6.8696-6.76-9.2051-6.0968-4.1244,1.1712-7.4174,5.4119-10.8571,8.5844-.3744.3452.2551,2.7845.9593,3.1174,5.6289,2.6618,11.388,5.0501,17.1073,7.5222ZM523.4101,112.2326c2.3995,9.5205,6.9509,17.107,14.7742,22.4201,3.0834,2.0941,5.2725.3624,5.7018-3.9246,1.0311-10.2968-8.9656-19.8519-20.476-18.4955ZM525.8032,96.9262c4.1326-1.3122,8.3072-2.5099,12.3773-3.9924,1.6529-.602,3.5621-1.487,4.5066-2.8339,1.956-2.7893-.2797-15.3014-3.2672-18.6147-6.7854,7.0149-11.0377,15.3192-13.6168,25.4409ZM484.227,97.1303c3.5752-.0601,4.6327-1.9574,3.4186-4.6158-1.4037-3.0735-3.1234-6.2234-5.4637-8.5983-3.1323-3.1785-6.6035-2.3936-9.1804,1.3071-2.6555,3.8138-2.2519,6.1159,2.0631,8.3818,2.8767,1.5106,6.0963,2.3728,9.1624,3.5252Z"/>
        <path class="cls-1" d="M379.9267,113.2932c-6.2356,22.9898-23.0123,36.2877-48.6683,37.0247-7.0685.2031-14.3521-.3473-21.2361-1.8877-13.0157-2.9126-18.6143-10.5538-17.5924-23.7024,1.111-14.2946,7.9326-26.3791,16.4173-37.6328-2.0043,6.1963-4.3316,12.3101-5.9514,18.6047-4.554,17.6964,3.8861,28.8311,22.1409,29.9195,14.1306.8425,26.8603-3.2543,39.007-10.0264,4.2066-2.3452,5.6529-5.6439,5.4143-10.2282-.5244-10.072-3.545-19.1565-10.7075-27.2664,3.9967-4.6974,7.9192-9.3074,12.7795-15.0197,2.5172,6.8791,4.8561,12.7938,6.8363,18.8256,1.753,5.3396,3.9737,6.3846,12.8178,5.8315,4.8767-.305,8.0384-2.703,7.1577-7.4357-1.7038-9.1553,4.753-13.0481,11.3047-17.6942-.6003,7.7751-1.2007,15.5503-1.8415,23.8501,5.9617,2.1463,12.5312,1.8905,18.9604.2129,1.2889-.3363,2.8069-3.3541,2.6325-4.9648-.3593-3.3183-1.7896-6.5214-3.1003-10.8264,3.3619-2.9648,7.5177-6.6298,12.6568-11.1618.836,3.5257,1.9134,6.1065,1.9822,8.7138.2448,9.2732.1386,18.5555.181,27.8342.0169,3.7001-1.305,5.5994-5.507,5.8121-11.379.5759-22.5957.2902-33.5053-3.4398-1.0431-.3566-2.2962-.7474-3.291-.4943-5.9916,1.5242-11.9363,3.2317-18.8877,5.1516Z"/>
        <path class="cls-1" d="M79.9191,131.9639c5.4298,3.4345,10.4278,6.5959,15.8239,10.0091,2.3288-3.6217,4.4409-6.9062,6.7923-10.563,5.4872,3.2578,10.7101,6.3587,16.5944,9.8522-2.3487,3.9692-4.5693,7.7219-7.0964,11.9925-5.4392-3.3981-10.5785-6.6088-15.9158-9.9432-2.2261,3.4496-4.2767,6.6272-6.6514,10.3069-5.34-3.1906-10.5341-6.2942-16.3213-9.752,2.2655-3.9805,4.4159-7.7587,6.7743-11.9025Z"/>
        <path class="cls-1" d="M140.9262,129.8411c6.3405,3.6076,12.032,6.8459,18.1386,10.3203-2.5708,4.3379-4.8868,8.246-7.4099,12.5033-6.0135-3.4862-11.6635-6.7615-17.6911-10.2559,2.3817-4.2993,4.5086-8.1386,6.9623-12.5678Z"/>
      </g>
    </g>
  </g>
</svg>