<?xml version="1.0" encoding="UTF-8"?>
<svg id="Layer_2" xmlns="http://www.w3.org/2000/svg" viewBox="0 0 331.0068 67.4307">
  <g id="Layer_1-2" data-name="Layer_1">
    <g>
      <path d="M0,40.9326c0-5.6016.7539-10.4111,2.2617-14.4336,1.5078-4.0215,3.752-7.0908,6.7324-9.21,2.9795-2.1172,6.5879-3.1777,10.8252-3.1777,3.8779,0,7.1445.791,9.8027,2.3701,2.6553,1.5801,4.7207,3.9678,6.1934,7.1631,1.4707,3.1953,2.4238,7.1631,2.8545,11.9023l-.6465,4.8467c0-4.8818-1.2031-8.7598-3.6084-11.6328-2.4062-2.8711-5.6924-4.3086-9.8555-4.3086-4.4541,0-7.7559,1.4375-9.9102,4.3086-2.1543,2.873-3.2314,6.9307-3.2314,12.1719,0,5.0273,1.0586,8.9404,3.1777,11.7412,2.1172,2.8008,5.4395,4.2002,9.9639,4.2002,2.7998,0,5.2051-.6084,7.2168-1.8311,2.0098-1.2197,3.5547-2.9971,4.6318-5.332,1.0771-2.332,1.6152-5.1514,1.6152-8.4551l.6465,4.7393c-.2881,3.4473-.8984,6.5-1.8311,9.1562-.9346,2.6572-2.1914,4.9004-3.7705,6.7314-1.5801,1.832-3.4648,3.2148-5.6543,4.1475-2.1914.9326-4.7588,1.4004-7.7021,1.4004-6.4629,0-11.3643-2.3701-14.7031-7.1094S0,49.1191,0,40.9326ZM39.8545,29.9453v2.6934h-2.4775l-.2148-2.6934h2.6924ZM39.5312,48.7959v2.9082h-2.3691l.2148-2.9082h2.1543ZM38.0234,66.0303V0h11.6338v66.0303h-11.6338Z"/>
      <path d="M70.0137,8.6182h-12.6025V0h12.6025v8.6182ZM69.583,66.0303h-11.6328V15.4043h11.6328v50.626Z"/>
      <path d="M88.2158,32.0996l2.1543-.1074-1.1846,3.9854c.502-4.1641,1.166-7.5938,1.9932-10.2871.8242-2.6924,1.8311-4.7744,3.0156-6.2471,1.1846-1.4707,2.6211-2.5127,4.3086-3.124,1.6865-.6094,3.5713-.915,5.6553-.915h2.9082v13.0332h-4.9551c-3.0156,0-5.458.377-7.3242,1.1309-1.8682.7539-3.2148,2.0117-4.0391,3.7705-.8271,1.7598-1.2393,4.1113-1.2393,7.0547v25.6367h-11.6328V15.4043h11.6328v19.8193l-1.293-3.124Z"/>
      <path d="M133.1348,67.3232c-5.1709,0-9.6943-.9883-13.5723-2.9629-3.8779-1.9736-6.8936-4.9004-9.0479-8.7783s-3.2314-8.6172-3.2314-14.2188c0-5.7441,1.04-10.6641,3.123-14.7568,2.082-4.0938,5.0801-7.2168,8.9941-9.3711s8.4912-3.2314,13.7344-3.2314c5.1699,0,9.46,1.0059,12.8721,3.0156,3.4102,2.0117,5.96,4.8115,7.6475,8.4023,1.6865,3.5908,2.5312,7.6846,2.5312,12.2793,0,1.0771.0176,2.1377.0537,3.1777.0361,1.042-.0537,2.208-.2686,3.501h-40.6094v-8.5098h33.0693l-2.8008,3.4463c.1426-5.0254-.8262-8.8682-2.9082-11.5254-2.084-2.6553-5.3857-3.9854-9.9102-3.9854s-8.0078,1.3838-10.4482,4.1475c-2.4424,2.7646-3.6621,7.0195-3.6621,12.7637,0,5.458,1.2383,9.5703,3.7158,12.334,2.4775,2.7646,6.0859,4.1465,10.8252,4.1465,2.6562,0,4.8291-.3936,6.5166-1.1846,1.6865-.7891,2.9795-1.8848,3.8779-3.2852.8975-1.4004,1.6328-2.9258,2.208-4.5781l10.126,2.8008c-.9346,3.3037-2.3535,6.1768-4.2549,8.6172-1.9033,2.4424-4.3457,4.3457-7.3252,5.709-2.9805,1.3633-6.7324,2.0469-11.2559,2.0469Z"/>
      <path d="M198.0869,36.4082c-.4307-2.3691-1.2031-4.4326-2.3164-6.1934-1.1143-1.7588-2.5312-3.124-4.2539-4.0938-1.7236-.9688-3.9502-1.4541-6.6787-1.4541-4.0225,0-7.3623,1.3115-10.0176,3.9316-2.6572,2.623-3.9854,6.6621-3.9854,12.1182,0,3.4473.5918,6.3555,1.7773,8.7256,1.1846,2.3691,2.8545,4.1836,5.0088,5.4395,2.1543,1.2568,4.667,1.8848,7.54,1.8848,2.8008,0,5.0791-.5557,6.8398-1.6699,1.7588-1.1123,3.124-2.6016,4.0928-4.4697.9697-1.8662,1.7051-3.9854,2.208-6.3555l11.0947,2.1543c-1.0059,6.4629-3.4297,11.5801-7.2705,15.3496-3.8418,3.7705-9.4248,5.6553-16.75,5.6553-5.3145,0-9.9463-1.0234-13.8945-3.0703-3.9502-2.0459-7.0205-5.0439-9.21-8.9941-2.1914-3.9482-3.2852-8.7959-3.2852-14.541,0-5.6719,1.0938-10.5029,3.2852-14.4883,2.1895-3.9854,5.2412-7.0186,9.1553-9.1016,3.9131-2.082,8.4561-3.124,13.626-3.124,5.0986,0,9.3174.8076,12.6572,2.4238,3.3389,1.6152,5.9414,3.9502,7.8096,7.001,1.8662,3.0537,3.1592,6.7324,3.877,11.041l-11.3096,1.8311Z"/>
      <path d="M210.1514,15.4043h33.3916v9.8018h-33.3916v-9.8018ZM216.9375,50.627V1.9395h11.6328v46.749c0,2.4414.5391,4.291,1.6162,5.5469,1.0771,1.2568,2.8711,1.8848,5.3857,1.8848,1.293,0,2.5312-.124,3.7158-.377,1.1855-.251,2.3516-.5195,3.501-.8076l1.4004,10.6641c-1.2217.3604-2.3701.6816-3.4473.9697-1.0771.2852-2.2451.501-3.5.6455-1.2578.1436-2.7119.2158-4.3633.2158-3.7344,0-6.7686-.7539-9.1016-2.2617-2.334-1.5088-4.0576-3.5176-5.1699-6.0322-1.1143-2.5127-1.6699-5.3486-1.6699-8.5098Z"/>
      <path d="M270.9023,67.4307c-5.3857,0-10.0176-1.0771-13.8955-3.2314s-6.8584-5.2598-8.9404-9.3174c-2.083-4.0566-3.123-8.8145-3.123-14.2725,0-5.6016,1.0938-10.376,3.2852-14.3262,2.1895-3.9482,5.2236-6.9648,9.1016-9.0479,3.8779-2.082,8.4023-3.124,13.5723-3.124s9.6943,1.042,13.5723,3.124c3.8779,2.083,6.8936,5.0996,9.0479,9.0479,2.1543,3.9502,3.2314,8.7246,3.2314,14.3262,0,8.3311-2.2988,14.8828-6.8936,19.6582-4.5967,4.7764-10.916,7.1631-18.958,7.1631ZM270.9023,24.667c-4.5234,0-8.043,1.4189-10.5557,4.2549-2.5146,2.8379-3.7705,6.6973-3.7705,11.5801,0,3.2314.5557,6.0684,1.6699,8.5088,1.1123,2.4424,2.7285,4.3457,4.8467,5.709,2.1172,1.3652,4.6855,2.0469,7.7021,2.0469,4.5947,0,8.1494-1.4893,10.6641-4.4697,2.5127-2.9795,3.7695-6.9111,3.7695-11.7949,0-3.2314-.5752-6.0322-1.7236-8.4023-1.1494-2.3691-2.7998-4.2012-4.9541-5.4932-2.1543-1.293-4.7051-1.9395-7.6484-1.9395Z"/>
      <path d="M312.1562,32.0996l2.1543-.1074-1.1846,3.9854c.502-4.1641,1.166-7.5938,1.9932-10.2871.8242-2.6924,1.8311-4.7744,3.0156-6.2471,1.1846-1.4707,2.6211-2.5127,4.3086-3.124,1.6865-.6094,3.5713-.915,5.6553-.915h2.9082v13.0332h-4.9551c-3.0156,0-5.458.377-7.3242,1.1309-1.8682.7539-3.2148,2.0117-4.0391,3.7705-.8271,1.7598-1.2393,4.1113-1.2393,7.0547v25.6367h-11.6328V15.4043h11.6328v19.8193l-1.293-3.124Z"/>
    </g>
  </g>
</svg>