<?xml version="1.0" encoding="UTF-8"?>
<svg id="Layer_2" xmlns="http://www.w3.org/2000/svg" viewBox="0 0 544.4379 91.871">
  <g id="Layer_1-2" data-name="Layer_1">
    <g>
      <path d="M0,90.2244c3.1032-.1991,5.0766-.8649,5.9184-1.9947.8418-1.1307,1.2631-2.9097,1.2631-5.3368v-47.8797c0-2.5272-.3074-4.1478-.9223-4.8636-.6158-.714-1.7706-1.0714-3.4662-1.0714-.3667,0-.7075.0167-1.0224.0491-.3167.0343-.7733.1-1.3724.2v-1.6456l4.7386-1.5465c.1658-.0324,3.5079-1.1798,10.0245-3.4412.1667,0,.2908.0741.3741.2241s.125.3241.125.5241v6.7306c2.1947-2.1938,4.1228-3.8227,5.7851-4.8868,2.993-1.8604,6.0684-2.7921,9.2272-2.7921,4.5886,0,8.5364,1.9512,11.8451,5.8545,3.3088,3.9024,4.9627,9.242,4.9627,16.0179,0,6.6444-1.9873,12.673-5.9601,18.0867-3.9737,5.4146-8.9698,8.1206-14.9872,8.1206-1.8623,0-3.4746-.2324-4.8377-.6982-2.1281-.6973-4.0904-1.9771-5.8851-3.8385v16.3578c0,3.3579.5482,5.4193,1.6456,6.1842s3.4912,1.2798,7.1815,1.5465v1.7456H0v-1.6465ZM19.6759,65.4636c1.7113,1.1131,3.732,1.6687,6.0592,1.6687,3.5912,0,6.6583-1.7845,9.2022-5.3544,2.5439-3.569,3.8153-8.5419,3.8153-14.9178,0-6.1101-1.3215-10.6765-3.9654-13.6982-2.643-3.0217-5.71-4.533-9.2013-4.533-2.4614,0-4.7053.7557-6.7333,2.2661-2.029,1.5113-3.0421,2.9967-3.0421,4.458v25.0553c.864,2.2577,2.1521,3.9431,3.8653,5.0553Z"/>
      <path d="M51.471,68.2298c2.7263-.3658,4.5145-1.039,5.3618-2.0197.8483-.9807,1.2724-3.2995,1.2724-6.9574V11.3719c0-1.8614-.2417-3.2338-.7232-4.1145-.4825-.8807-1.6549-1.3224-3.5162-1.3224-.3667,0-.7232.025-1.0724.075s-.7408.1083-1.1724.175v-1.7956c1.4632-.4315,3.2671-.9557,5.4119-1.5715,2.1438-.6149,3.632-1.0548,4.4636-1.3215l4.7877-1.4965.1.3491v30.6237c2.0947-2.3938,3.9561-4.1561,5.586-5.2868,2.9254-1.9947,6.0851-2.9921,9.4763-2.9921,5.3869,0,9.0605,2.2614,11.0228,6.7824,1.0631,2.3948,1.5956,5.5369,1.5956,9.4272v20.3491c0,3.5246.4065,5.8184,1.2224,6.8824.814,1.064,2.4846,1.7623,5.0118,2.0947v1.3965h-21.5956v-1.3965c2.893-.3991,4.7544-1.0798,5.586-2.0447.8307-.964,1.2465-3.2745,1.2465-6.9324v-20.2c0-3.2245-.5408-5.8351-1.6206-7.8307-1.0807-1.9947-3.1171-2.9921-6.1101-2.9921-2.5929,0-5.1044.9316-7.5307,2.793-2.4272,1.8623-3.6412,3.0763-3.6412,3.6412v24.5886c0,3.7237.4315,6.0518,1.2974,6.9824.864.9307,2.7096,1.5956,5.5359,1.9947v1.3965h-21.9956v-1.3965Z"/>
      <path d="M110.5485,29.7013c4.2052-4.5719,9.6171-6.8584,16.2337-6.8584,6.5842,0,12.0368,2.1623,16.3597,6.4842,4.3219,4.3228,6.4833,10.0745,6.4833,17.257,0,6.6167-2.0947,12.3684-6.2842,17.2561-4.1895,4.8886-9.6097,7.3325-16.2587,7.3325-6.3842,0-11.7877-2.3448-16.2096-7.0324-4.4228-4.6886-6.6333-10.5737-6.6333-17.6561,0-6.6167,2.1021-12.2109,6.3092-16.7829ZM118.5126,28.4289c-3.331,3.0263-4.997,8.2465-4.997,15.6614,0,5.9184,1.3409,11.4386,4.0218,16.5588,2.6819,5.1201,6.4046,7.6807,11.1682,7.6807,3.732,0,6.6046-1.7123,8.6197-5.1377,2.016-3.4236,3.0236-7.9131,3.0236-13.4657,0-5.7526-1.2826-11.1719-3.8478-16.2596-2.5652-5.0868-6.2796-7.6307-11.1432-7.6307-2.6318,0-4.9136.8649-6.8454,2.5929Z"/>
      <path d="M178.7024,23.6412v3.5912h-10.1745l-.1,28.728c0,2.5272.2158,4.4386.6482,5.736.7983,2.2938,2.3605,3.4412,4.6886,3.4412,1.1974,0,2.2355-.2824,3.1171-.8483.8807-.5649,1.8873-1.4622,3.018-2.693l1.2965,1.0974-1.0974,1.4956c-1.7289,2.3281-3.5579,3.9737-5.4859,4.9377-1.929.964-3.7913,1.4465-5.586,1.4465-3.9246,0-6.5842-1.7456-7.9807-5.2368-.7649-1.8947-1.1465-4.521-1.1465-7.8798v-30.2245h-5.4369c-.1667-.1-.2917-.2-.3741-.2991-.0833-.1-.125-.2324-.125-.3991,0-.3325.075-.5899.225-.7733.1491-.1824.6232-.6066,1.4215-1.2715,2.2938-1.8956,3.9478-3.4329,4.9627-4.6136,1.0131-1.1798,3.3986-4.2969,7.1565-9.3522.4315,0,.6899.0343.7733.1.0824.0667.125.3167.125.7483v12.2693h10.0745Z"/>
      <path d="M190.0002,29.7013c4.2052-4.5719,9.6171-6.8584,16.2337-6.8584,6.5842,0,12.0368,2.1623,16.3597,6.4842,4.3219,4.3228,6.4833,10.0745,6.4833,17.257,0,6.6167-2.0947,12.3684-6.2842,17.2561-4.1895,4.8886-9.6097,7.3325-16.2587,7.3325-6.3842,0-11.7877-2.3448-16.2096-7.0324-4.4228-4.6886-6.6333-10.5737-6.6333-17.6561,0-6.6167,2.1021-12.2109,6.3092-16.7829ZM197.9643,28.4289c-3.331,3.0263-4.997,8.2465-4.997,15.6614,0,5.9184,1.3409,11.4386,4.0218,16.5588,2.6819,5.1201,6.4046,7.6807,11.1682,7.6807,3.732,0,6.6046-1.7123,8.6197-5.1377,2.016-3.4236,3.0236-7.9131,3.0236-13.4657,0-5.7526-1.2826-11.1719-3.8478-16.2596-2.5652-5.0868-6.2796-7.6307-11.1432-7.6307-2.6318,0-4.9136.8649-6.8454,2.5929Z"/>
      <path d="M241.6203,47.5315c-1.6789-2.5596-2.5189-5.4369-2.5189-8.628,0-3.8903,1.5465-7.5816,4.6386-11.0728,3.0921-3.4912,7.464-5.2368,13.1175-5.2368,2.4263,0,5.1035.5732,8.0298,1.7206,2.9254,1.1474,5.735,1.7206,8.4289,1.7206.6982,0,1.753-.025,3.1671-.075,1.4122-.0491,2.4355-.0741,3.0671-.0741h.5982v4.0394h-8.628c.5982,1.3965,1.064,2.6105,1.3965,3.6412.5649,1.929.8473,3.7579.8473,5.4859,0,3.7903-1.5706,7.2741-4.7127,10.4487-3.1421,3.1764-7.3742,4.7636-12.6934,4.7636-.8316,0-2.3281-.15-4.4886-.4491-.9649,0-2.2448.8149-3.8403,2.4439-1.5965,1.6299-2.3938,2.9597-2.3938,3.9904,0,1.064,1.165,1.8447,3.4968,2.3438,1.5308.3325,3.2291.4991,5.0942.4991,8.5577,0,14.3686.4825,17.433,1.4456,5.0275,1.5641,7.5418,4.922,7.5418,10.0755,0,5.2535-2.9347,9.443-8.8031,12.5684s-11.7951,4.6886-17.7802,4.6886c-5.4535,0-9.7754-1.1066-12.9675-3.3171-3.1921-2.2114-4.7886-4.5312-4.7886-6.9574,0-1.1974.4223-2.3688,1.2668-3.5162s2.5087-2.8513,4.9924-5.1127l3.2792-2.9421.5964-.5982c-1.5187-.5992-2.6568-1.1807-3.4162-1.7456-1.3196-1.0307-1.9799-2.2114-1.9799-3.5412,0-1.2298.5732-2.5855,1.7206-4.0654,1.1474-1.4789,3.5986-3.8811,7.3566-7.2065-3.0263-.9974-5.3785-2.7763-7.0575-5.3368ZM246.9071,84.6385c3.1421,1.064,6.7407,1.5965,10.7978,1.5965,5.5193,0,10.0079-.9566,13.4667-2.868,3.4579-1.9123,5.1868-4.2645,5.1868-7.0575,0-2.2281-1.3993-3.7079-4.1978-4.4386-1.7336-.4325-5.0146-.6825-9.8449-.7483-1.2335-.0333-2.5328-.075-3.8987-.125-1.3669-.05-2.6161-.1083-3.7477-.1741-.7334-.0343-1.9169-.1667-3.5486-.3991-1.6326-.2334-2.8485-.4325-3.6477-.5992-.401,0-1.3715,1.0474-2.9143,3.1421-1.5771,2.1281-2.3651,4.0904-2.3651,5.886,0,2.793,1.5715,4.721,4.7136,5.7851ZM262.7426,50.3745c1.9947-1.5965,2.9921-4.3719,2.9921-8.3289,0-3.1588-.8066-6.7167-2.4189-10.6737-1.6132-3.9561-4.2978-5.9351-8.0548-5.9351-3.2588,0-5.5035,1.5456-6.7333,4.6386-.6316,1.6289-.9474,3.6403-.9474,6.0342,0,4.057.9807,7.6983,2.943,10.9228,1.9614,3.2254,4.5052,4.8386,7.6307,4.8386,1.828,0,3.3579-.4991,4.5886-1.4965Z"/>
      <path d="M283.6909,67.9806c3.0588-.2658,5.0868-.8057,6.0842-1.6215.9983-.814,1.4965-2.5513,1.4965-5.2118v-22.4938c0-3.2912-.3074-5.6434-.9223-7.0575-.6158-1.4122-1.7382-2.1197-3.3671-2.1197-.3325,0-.7723.0426-1.3215.125-.5482.0833-1.1224.1917-1.7206.3241v-1.6456c1.8891-.6649,3.8283-1.3465,5.8165-2.0447,1.9892-.6982,3.3644-1.1974,4.1265-1.4965,1.6567-.6316,3.3644-1.3465,5.1211-2.1447.2324,0,.3723.0833.4223.2491.05.1667.075.5158.075,1.0474v8.1798c2.1336-2.9587,4.1913-5.2692,6.1758-6.9324,1.9836-1.6623,4.0431-2.4939,6.1777-2.4939,1.7002,0,3.0838.5075,4.1506,1.5215s1.6002,2.2864,1.6002,3.8153c0,1.3632-.4075,2.5105-1.2215,3.4412-.8159.9307-1.8382,1.3965-3.068,1.3965-1.2641,0-2.5355-.5816-3.8153-1.7456s-2.2864-1.7456-3.0171-1.7456c-1.164,0-2.5939.9399-4.2895,2.818-1.6956,1.879-2.5439,3.8153-2.5439,5.8101v22.4938c0,2.8606.6649,4.847,1.9956,5.9601,1.3289,1.115,3.5403,1.6382,6.6333,1.5715v1.6456h-24.5886v-1.6456Z"/>
      <path d="M328.2294,47.6316c3.0588-1.9956,9.1596-4.7053,18.3044-8.1298v-4.2395c0-3.3912-.3334-5.7517-.9983-7.0825-1.1307-2.2272-3.4746-3.3412-7.0324-3.3412-1.6956,0-3.3088.4325-4.8377,1.2965-1.5298.8973-2.2938,2.1281-2.2938,3.6903,0,.3991.0824,1.0724.2491,2.0206.1658.9474.2491,1.5539.2491,1.8197,0,1.8632-.6149,3.1597-1.8447,3.8903-.6982.4325-1.5298.6492-2.4939.6492-1.4965,0-2.6439-.4908-3.4412-1.4715-.7983-.9807-1.1974-2.0697-1.1974-3.2671,0-2.3272,1.4382-4.7627,4.3145-7.3066,2.8754-2.5439,7.0899-3.8153,12.6434-3.8153,6.45,0,10.8228,2.0947,13.1166,6.2842,1.2298,2.2938,1.8456,5.636,1.8456,10.0245v20c0,1.929.1324,3.2597.3991,3.9904.4315,1.2965,1.3298,1.9447,2.693,1.9447.7649,0,1.3965-.1158,1.8956-.3491.4982-.2315,1.3632-.7973,2.5929-1.6956v2.5939c-1.064,1.2965-2.2114,2.3614-3.4412,3.1921-1.8623,1.2641-3.7579,1.8947-5.686,1.8947-2.2614,0-3.8987-.7307-4.9127-2.1938s-1.5706-3.2088-1.6706-5.2378c-2.5272,2.1947-4.6877,3.8246-6.4833,4.8886-3.0263,1.7947-5.9027,2.693-8.629,2.693-2.8597,0-5.3368-1.0057-7.4316-3.018-2.0947-2.0114-3.1421-4.5636-3.1421-7.6557,0-4.8201,2.4105-8.8438,7.2325-12.0693ZM346.5338,41.9956c-3.8246,1.2641-6.9834,2.6606-9.4763,4.1895-4.7886,2.9597-7.1825,6.3175-7.1825,10.0745,0,3.0263.9974,5.2544,2.993,6.6833,1.2965.9316,2.743,1.3965,4.3386,1.3965,2.1947,0,4.2969-.6149,6.3092-1.8456,2.0114-1.2298,3.018-2.793,3.018-4.6877v-15.8105Z"/>
      <path d="M363.0925,90.2244c3.1032-.1991,5.0766-.8649,5.9184-1.9947.8418-1.1307,1.2631-2.9097,1.2631-5.3368v-47.8797c0-2.5272-.3074-4.1478-.9223-4.8636-.6158-.714-1.7706-1.0714-3.4662-1.0714-.3667,0-.7075.0167-1.0224.0491-.3167.0343-.7733.1-1.3724.2v-1.6456l4.7386-1.5465c.1658-.0324,3.5079-1.1798,10.0245-3.4412.1667,0,.2908.0741.3741.2241s.125.3241.125.5241v6.7306c2.1947-2.1938,4.1228-3.8227,5.7851-4.8868,2.993-1.8604,6.0684-2.7921,9.2272-2.7921,4.5886,0,8.5364,1.9512,11.8451,5.8545,3.3088,3.9024,4.9627,9.242,4.9627,16.0179,0,6.6444-1.9873,12.673-5.9601,18.0867-3.9737,5.4146-8.9698,8.1206-14.9872,8.1206-1.8623,0-3.4746-.2324-4.8377-.6982-2.1281-.6973-4.0904-1.9771-5.8851-3.8385v16.3578c0,3.3579.5482,5.4193,1.6456,6.1842s3.4912,1.2798,7.1815,1.5465v1.7456h-24.6376v-1.6465ZM382.7684,65.4636c1.7113,1.1131,3.732,1.6687,6.0592,1.6687,3.5912,0,6.6583-1.7845,9.2022-5.3544,2.5439-3.569,3.8153-8.5419,3.8153-14.9178,0-6.1101-1.3215-10.6765-3.9654-13.6982-2.643-3.0217-5.71-4.533-9.2013-4.533-2.4614,0-4.7053.7557-6.7333,2.2661-2.029,1.5113-3.0421,2.9967-3.0421,4.458v25.0553c.864,2.2577,2.1521,3.9431,3.8653,5.0553Z"/>
      <path d="M414.5626,68.2298c2.7263-.3658,4.5145-1.039,5.3618-2.0197.8483-.9807,1.2724-3.2995,1.2724-6.9574V11.3719c0-1.8614-.2417-3.2338-.7232-4.1145-.4825-.8807-1.6549-1.3224-3.5162-1.3224-.3667,0-.7232.025-1.0724.075s-.7408.1083-1.1724.175v-1.7956c1.4632-.4315,3.2671-.9557,5.4119-1.5715,2.1438-.6149,3.632-1.0548,4.4636-1.3215l4.7877-1.4965.1.3491v30.6237c2.0947-2.3938,3.9561-4.1561,5.586-5.2868,2.9254-1.9947,6.0851-2.9921,9.4763-2.9921,5.3869,0,9.0605,2.2614,11.0228,6.7824,1.0631,2.3948,1.5956,5.5369,1.5956,9.4272v20.3491c0,3.5246.4065,5.8184,1.2224,6.8824.814,1.064,2.4846,1.7623,5.0118,2.0947v1.3965h-21.5956v-1.3965c2.893-.3991,4.7544-1.0798,5.586-2.0447.8307-.964,1.2465-3.2745,1.2465-6.9324v-20.2c0-3.2245-.5408-5.8351-1.6206-7.8307-1.0807-1.9947-3.1171-2.9921-6.1101-2.9921-2.5929,0-5.1044.9316-7.5307,2.793-2.4272,1.8623-3.6412,3.0763-3.6412,3.6412v24.5886c0,3.7237.4315,6.0518,1.2974,6.9824.864.9307,2.7096,1.5956,5.5359,1.9947v1.3965h-21.9956v-1.3965Z"/>
      <path d="M500.4485,27.7057c3.5246,3.2421,5.2868,7.839,5.2868,13.7908h-31.671c.3325,7.6974,2.0781,13.3046,5.2378,16.8208,3.1578,3.5162,6.8991,5.2739,11.2219,5.2739,3.4912,0,6.4333-.9112,8.8271-2.7365,2.3948-1.8243,4.6053-4.4126,6.6333-7.764l1.7465.5982c-1.3641,4.2302-3.9154,8.1428-7.6566,11.7396-3.7403,3.5968-8.3215,5.3952-13.7408,5.3952-6.2509,0-11.0802-2.3605-14.4881-7.0825-3.4088-4.721-5.1127-10.1579-5.1127-16.3097,0-6.6833,1.978-12.4517,5.9351-17.3061s9.1105-7.2825,15.4614-7.2825c4.6886,0,8.7947,1.6215,12.3193,4.8627ZM476.5581,31.5219c-1.064,1.7947-1.829,4.057-2.2938,6.7824h21.0473c-.3667-3.3245-.9974-5.8017-1.8956-7.4316-1.6289-2.9254-4.3562-4.3886-8.1789-4.3886-3.7913,0-6.6833,1.6789-8.679,5.0377Z"/>
      <path d="M510.523,67.9806c3.0588-.2658,5.0868-.8057,6.0842-1.6215.9983-.814,1.4965-2.5513,1.4965-5.2118v-22.4938c0-3.2912-.3074-5.6434-.9223-7.0575-.6158-1.4122-1.7382-2.1197-3.3671-2.1197-.3325,0-.7723.0426-1.3215.125-.5482.0833-1.1224.1917-1.7206.3241v-1.6456c1.8891-.6649,3.8283-1.3465,5.8165-2.0447,1.9892-.6982,3.3644-1.1974,4.1265-1.4965,1.6567-.6316,3.3644-1.3465,5.1211-2.1447.2324,0,.3723.0833.4223.2491.05.1667.075.5158.075,1.0474v8.1798c2.1336-2.9587,4.1913-5.2692,6.1758-6.9324,1.9836-1.6623,4.0431-2.4939,6.1777-2.4939,1.7002,0,3.0838.5075,4.1506,1.5215s1.6002,2.2864,1.6002,3.8153c0,1.3632-.4075,2.5105-1.2215,3.4412-.8159.9307-1.8382,1.3965-3.068,1.3965-1.2641,0-2.5355-.5816-3.8153-1.7456s-2.2864-1.7456-3.0171-1.7456c-1.164,0-2.5939.9399-4.2895,2.818-1.6956,1.879-2.5439,3.8153-2.5439,5.8101v22.4938c0,2.8606.6649,4.847,1.9956,5.9601,1.3289,1.115,3.5403,1.6382,6.6333,1.5715v1.6456h-24.5886v-1.6456Z"/>
    </g>
  </g>
</svg>