<?xml version="1.0" encoding="UTF-8"?>
<svg id="Layer_2" xmlns="http://www.w3.org/2000/svg" viewBox="0 0 364.961 90.4429">
  <g id="Layer_1-2" data-name="Layer_1">
    <g>
      <path d="M31.1838,20.4633c1.4963.9394,3.1947,2.5821,5.0962,4.9289V0h8.1201v69.1814h-7.6034v-6.9933c-1.9642,3.098-4.2866,5.335-6.9672,6.7119-2.6814,1.376-5.7507,2.0653-9.2112,2.0653-5.579,0-10.4103-2.3546-14.4939-7.0639C2.0418,59.1929,0,52.9263,0,45.1042c0-7.3219,1.8623-13.6651,5.5868-19.0315s9.0465-8.0495,15.9666-8.0495c3.8335,0,7.043.8139,9.6303,2.44ZM12.3257,58.1515c2.2727,3.6304,5.9154,5.4448,10.9279,5.4448,3.891,0,7.0892-1.6819,9.5963-5.0457,2.5054-3.3629,3.7585-8.1898,3.7585-14.4791,0-6.3511-1.2924-11.0534-3.8753-14.1035-2.5847-3.0509-5.7751-4.576-9.5737-4.576-4.2343,0-7.6661,1.627-10.297,4.881-2.63,3.2548-3.945,8.0417-3.945,14.3614,0,5.382,1.1364,9.8883,3.4082,13.517Z"/>
      <path d="M88.0734,20.2994c3.3272,1.674,5.8613,3.8413,7.6034,6.5001,1.6793,2.535,2.7982,5.4918,3.3585,8.8704.4976,2.3163.7468,6.0077.7468,11.0769h-36.5623c.156,5.1145,1.3516,9.2173,3.5869,12.3074,2.2353,3.091,5.6966,4.6361,10.3841,4.6361,4.3773,0,7.87-1.4623,10.4774-4.3851,1.4597-1.6967,2.4941-3.6618,3.1023-5.8936h8.3075c-.2196,1.8466-.9464,3.9032-2.1821,6.1716-1.2366,2.2692-2.6152,4.1228-4.1367,5.5616-2.5464,2.5037-5.6984,4.1925-9.4552,5.0692-2.0191.5002-4.3015.7512-6.8478.7512-6.2186,0-11.4891-2.2771-15.8115-6.8295s-6.4827-10.927-6.4827-19.1256c0-8.0722,2.1769-14.6272,6.5306-19.665,4.3529-5.0378,10.0434-7.5563,17.0725-7.5563,3.545,0,6.9803.8375,10.3083,2.5106ZM91.0991,40.035c-.3416-3.6609-1.1329-6.5864-2.3738-8.7763-2.2963-4.067-6.128-6.1019-11.4952-6.1019-3.8474,0-7.0735,1.4013-9.68,4.2012s-3.9877,6.3589-4.142,10.6769h27.691Z"/>
      <path d="M115.5048,53.4117c.2553,2.8156.9734,4.9751,2.1551,6.4766,2.1716,2.7224,5.9406,4.0836,11.3053,4.0836,3.193,0,6.0034-.6806,8.4312-2.0418,2.427-1.3612,3.6409-3.4649,3.6409-6.3127,0-2.1586-.9708-3.8012-2.9098-4.928-1.2409-.6876-3.6888-1.4858-7.3454-2.3939l-6.8208-1.6897c-4.3564-1.0632-7.5685-2.2527-9.6347-3.5668-3.6888-2.2832-5.5337-5.4439-5.5337-9.4804,0-4.7555,1.7359-8.6046,5.2086-11.5458,3.4718-2.9411,8.141-4.4121,14.0076-4.4121,7.6739,0,13.2067,2.2222,16.5993,6.6648,2.1246,2.8156,3.1555,5.8518,3.0936,9.1049h-7.9789c-.1612-1.8971-.8497-3.6243-2.0662-5.1807-1.986-2.2091-5.43-3.3141-10.3301-3.3141-3.267,0-5.7411.6083-7.423,1.8239-1.681,1.2157-2.522,2.8217-2.522,4.8165,0,2.183,1.105,3.9285,3.315,5.2383,1.2749.7799,3.1555,1.4666,5.6426,2.061l5.6905,1.3612c6.1846,1.471,10.3284,2.8941,12.4329,4.271,3.2853,2.1586,4.928,5.5546,4.928,10.1846,0,4.4749-1.7185,8.3389-5.1555,11.5928-3.4378,3.254-8.6717,4.881-15.7052,4.881-7.5711,0-12.9322-1.6976-16.0843-5.0919-3.152-3.3951-4.8391-7.5955-5.0605-12.602h8.1192Z"/>
      <path d="M158.5437.2353h8.589v9.5746h-8.589V.2353ZM158.5437,19.1491h8.589v50.0323h-8.589V19.1491Z"/>
      <path d="M207.8439,20.933c1.5886,1.0954,3.2095,2.691,4.8618,4.7877v-6.3363h7.7907v45.7134c0,6.3833-.9351,11.4212-2.8061,15.1135-3.4928,6.8208-10.0887,10.2316-19.787,10.2316-5.3951,0-9.9319-1.2131-13.612-3.6374-3.6801-2.4252-5.7385-6.2195-6.1759-11.3819h8.589c.4035,2.2527,1.2131,3.9895,2.427,5.2095,1.898,1.878,4.8853,2.8165,8.9619,2.8165,6.4417,0,10.6578-2.2849,12.6499-6.8522,1.1826-2.6919,1.7281-7.4936,1.634-14.4093-1.6828,2.5664-3.7089,4.4749-6.0775,5.7263s-5.5014,1.8771-9.3968,1.8771c-5.423,0-10.1689-1.9311-14.2359-5.796-4.067-3.864-6.101-10.2552-6.101-19.1727,0-8.4164,2.0496-14.988,6.148-19.7129,4.0984-4.7241,9.0465-7.0866,14.8433-7.0866,3.9276,0,7.3559.9699,10.2865,2.9098ZM208.8766,29.9916c-2.5525-3.0039-5.8056-4.5062-9.7593-4.5062-5.9154,0-9.9615,2.7851-12.1401,8.3545-1.152,2.9734-1.7281,6.8687-1.7281,11.6869,0,5.6635,1.1442,9.9728,3.4317,12.9296,2.2884,2.9577,5.3629,4.4357,9.2225,4.4357,6.0391,0,10.2874-2.7372,12.7475-8.2134,1.3699-3.098,2.0549-6.7119,2.0549-10.8416,0-6.2265-1.2767-10.8416-3.8291-13.8455Z"/>
      <path d="M233.3563,18.9147h8.026v7.1345c2.3773-2.9411,4.8966-5.0535,7.5563-6.3363,2.6588-1.2828,5.6165-1.9241,8.8704-1.9241,7.1345,0,11.9519,2.4871,14.4555,7.4622,1.3769,2.7224,2.0653,6.6178,2.0653,11.6869v32.2435h-8.589v-31.6805c0-3.0666-.454-5.538-1.3612-7.416-1.5015-3.1285-4.2239-4.6927-8.1663-4.6927-2.0026,0-3.6453.2039-4.928.61-2.3163.6884-4.3494,2.0645-6.1019,4.1298-1.4074,1.6592-2.3233,3.3725-2.7451,5.1398-.4227,1.7682-.6335,4.2945-.6335,7.5798v26.3298h-8.4487V18.9147Z"/>
      <path d="M317.8629,20.2994c3.3272,1.674,5.8613,3.8413,7.6034,6.5001,1.6793,2.535,2.7982,5.4918,3.3585,8.8704.4976,2.3163.7468,6.0077.7468,11.0769h-36.5623c.156,5.1145,1.3516,9.2173,3.5869,12.3074,2.2353,3.091,5.6966,4.6361,10.3841,4.6361,4.3773,0,7.87-1.4623,10.4774-4.3851,1.4597-1.6967,2.4941-3.6618,3.1023-5.8936h8.3075c-.2196,1.8466-.9464,3.9032-2.1821,6.1716-1.2366,2.2692-2.6152,4.1228-4.1367,5.5616-2.5464,2.5037-5.6984,4.1925-9.4552,5.0692-2.0191.5002-4.3015.7512-6.8478.7512-6.2186,0-11.4891-2.2771-15.8115-6.8295s-6.4827-10.927-6.4827-19.1256c0-8.0722,2.1769-14.6272,6.5306-19.665,4.3529-5.0378,10.0434-7.5563,17.0725-7.5563,3.545,0,6.9803.8375,10.3083,2.5106ZM320.8886,40.035c-.3416-3.6609-1.1329-6.5864-2.3738-8.7763-2.2963-4.067-6.128-6.1019-11.4952-6.1019-3.8474,0-7.0735,1.4013-9.68,4.2012s-3.9877,6.3589-4.142,10.6769h27.691Z"/>
      <path d="M340.5083,18.9147h8.0251v8.6831c.6571-1.6897,2.2684-3.7463,4.8348-6.1716,2.5647-2.4252,5.5215-3.6374,8.8704-3.6374.156,0,.4218.0157.7974.0462.3756.0322,1.017.0941,1.925.1882v8.9175c-.5011-.0941-.9629-.156-1.3847-.1882-.4227-.0305-.8845-.0462-1.3847-.0462-4.2561,0-7.5258,1.369-9.809,4.1062-2.2849,2.7381-3.4265,5.8901-3.4265,9.4578v28.911h-8.4478V18.9147Z"/>
    </g>
  </g>
</svg>