<?xml version="1.0" encoding="UTF-8"?>
<svg id="Layer_2" xmlns="http://www.w3.org/2000/svg" viewBox="0 0 477.2136 75.1298">
  <g id="Layer_1-2" data-name="Layer_1">
    <g>
      <path d="M6.3264,43.6734c.5522,2.1241,1.4398,4.0283,2.6613,5.7149,1.2215,1.6882,2.7625,3.0845,4.6248,4.1889,1.8615,1.106,4.1011,1.6581,6.7188,1.6581,4.014,0,7.1555-1.0474,9.4244-3.1415s3.8392-4.8866,4.7118-8.3769h5.4973c-1.1645,5.1192-3.302,9.0747-6.4134,11.8673-3.113,2.7918-7.5194,4.1881-13.22,4.1881-3.5489,0-6.6175-.6258-9.2052-1.8757-2.5893-1.2507-4.6983-2.9666-6.3264-5.1485-1.6297-2.1819-2.8361-4.7118-3.6216-7.5914-.7848-2.8796-1.1779-5.919-1.1779-9.119,0-2.9666.3932-5.8747,1.1779-8.7258.7856-2.8495,1.992-5.3945,3.6216-7.6349,1.6281-2.2388,3.7371-4.0425,6.3264-5.4103,2.5877-1.3662,5.6564-2.0505,9.2052-2.0505,3.6066,0,6.6895.7278,9.2495,2.1819,2.5592,1.4548,4.6382,3.359,6.2394,5.7149,1.5988,2.3567,2.7483,5.0614,3.4468,8.1151.6977,3.0544.9881,6.1524.8726,9.293H5.4973c0,1.9785.2753,4.0291.8291,6.1524ZM33.5513,26.876c-.6693-1.92-1.6146-3.6216-2.8361-5.105s-2.7048-2.6747-4.4499-3.5773c-1.7452-.9011-3.7237-1.3528-5.934-1.3528-2.2681,0-4.2751.4517-6.0203,1.3528-1.7452.9026-3.2293,2.094-4.4507,3.5773s-2.1961,3.2-2.9231,5.1485c-.7278,1.9493-1.208,3.9413-1.4398,5.9775h29.1449c-.0585-2.0948-.4232-4.1018-1.0909-6.0211Z"/>
      <path d="M52.9664,13.5254v7.7654h.174c1.0474-2.7332,2.9081-4.9301,5.5852-6.5875,2.6747-1.6581,5.6128-2.4872,8.8128-2.4872,3.1415,0,5.7726.4074,7.8967,1.2215,2.1233.8156,3.825,1.9635,5.105,3.4468,1.2784,1.4833,2.1811,3.302,2.7048,5.4538.5237,2.1526.7856,4.5678.7856,7.2425v28.97h-5.4973v-28.0975c0-1.92-.1748-3.7087-.5237-5.366-.3489-1.6581-.9596-3.0979-1.8322-4.3194-.8726-1.2222-2.0505-2.1819-3.5338-2.8796-1.4841-.6985-3.3313-1.0474-5.5416-1.0474s-4.1746.3924-5.8897,1.1779c-1.7167.7856-3.1715,1.8622-4.3629,3.2285-1.193,1.3678-2.1241,2.9967-2.7926,4.8866-.6693,1.8915-1.0332,3.942-1.0901,6.1516v26.2653h-5.4973V13.5254h5.4973Z"/>
      <path d="M112.3012,13.5254v4.6248h-9.1625v30.3655c0,1.8045.2468,3.215.7421,4.2324.4936,1.0181,1.7301,1.5854,3.7087,1.7017,1.5703,0,3.1407-.087,4.7118-.2619v4.6248c-.8156,0-1.6297.0285-2.4437.087-.8148.0578-1.6289.0878-2.4429.0878-3.6652,0-6.2252-.712-7.6792-2.1383-1.4548-1.4248-2.1526-4.0575-2.094-7.8967v-30.8022h-7.8532v-4.6248h7.8532V0h5.4973v13.5254h9.1625Z"/>
      <path d="M125.3021,13.5254v10.558h.174c1.3963-3.6652,3.5631-6.4854,6.5012-8.464,2.9366-1.977,6.4419-2.8796,10.5145-2.7048v5.4973c-2.5022-.1163-4.7711.2176-6.8066,1.0031-2.0371.7856-3.7957,1.9058-5.279,3.3598-1.4833,1.4548-2.6328,3.185-3.4468,5.192-.8148,2.0062-1.2215,4.2031-1.2215,6.5875v23.9964h-5.4973V13.5254h5.0614Z"/>
      <path d="M150.2138,43.6734c.5522,2.1241,1.4398,4.0283,2.6613,5.7149,1.2215,1.6882,2.7625,3.0845,4.6248,4.1889,1.8615,1.106,4.1011,1.6581,6.7188,1.6581,4.014,0,7.1555-1.0474,9.4244-3.1415s3.8392-4.8866,4.7118-8.3769h5.4973c-1.1645,5.1192-3.302,9.0747-6.4134,11.8673-3.113,2.7918-7.5194,4.1881-13.22,4.1881-3.5489,0-6.6175-.6258-9.2052-1.8757-2.5893-1.2507-4.6983-2.9666-6.3264-5.1485-1.6297-2.1819-2.8361-4.7118-3.6216-7.5914-.7848-2.8796-1.1779-5.919-1.1779-9.119,0-2.9666.3932-5.8747,1.1779-8.7258.7856-2.8495,1.992-5.3945,3.6216-7.6349,1.6281-2.2388,3.7371-4.0425,6.3264-5.4103,2.5877-1.3662,5.6564-2.0505,9.2052-2.0505,3.6066,0,6.6895.7278,9.2495,2.1819,2.5592,1.4548,4.6382,3.359,6.2394,5.7149,1.5988,2.3567,2.7483,5.0614,3.4468,8.1151.6977,3.0544.9881,6.1524.8726,9.293h-34.6422c0,1.9785.2753,4.0291.8291,6.1524ZM177.4387,26.876c-.6693-1.92-1.6146-3.6216-2.8361-5.105s-2.7048-2.6747-4.4499-3.5773c-1.7452-.9011-3.7237-1.3528-5.934-1.3528-2.2681,0-4.2751.4517-6.0203,1.3528-1.7452.9026-3.2293,2.094-4.4507,3.5773s-2.1961,3.2-2.9231,5.1485c-.7278,1.9493-1.208,3.9413-1.4398,5.9775h29.1449c-.0585-2.0948-.4232-4.1018-1.0909-6.0211Z"/>
      <path d="M196.5049,13.5254v8.551h.174c1.2792-3.1415,3.3598-5.5693,6.2394-7.286,2.8796-1.7151,6.1516-2.5742,9.8167-2.5742,3.431,0,6.4134.6408,8.9434,1.92,2.5307,1.28,4.639,3.0101,6.3264,5.192,1.6866,2.1811,2.9366,4.7118,3.7522,7.5914.814,2.8796,1.2215,5.9198,1.2215,9.1182s-.4074,6.2394-1.2215,9.119c-.8156,2.8796-2.0656,5.4095-3.7522,7.5914-1.6874,2.1819-3.7957,3.8977-6.3264,5.1485-2.5299,1.2499-5.5124,1.8757-8.9434,1.8757-1.6297,0-3.2593-.2041-4.8866-.6107-1.6297-.4074-3.1415-1.0174-4.5377-1.8322-1.3963-.814-2.6328-1.833-3.7087-3.0544-1.0767-1.2215-1.9058-2.6462-2.4864-4.2751h-.1748v25.13h-5.4973V13.5254h5.0614ZM226.6529,29.1006c-.5538-2.2974-1.4264-4.3479-2.6185-6.1516-1.193-1.8021-2.7198-3.272-4.5805-4.4064-1.863-1.1344-4.1011-1.7017-6.7188-1.7017-3.026,0-5.5567.5237-7.5922,1.5711-2.0371,1.0466-3.6644,2.4429-4.8866,4.1881-1.2215,1.7452-2.0806,3.7822-2.5734,6.1081-.4952,2.3274-.7421,4.7703-.7421,7.3295,0,2.3274.2753,4.6398.8291,6.9371.5522,2.2989,1.4532,4.3495,2.7048,6.1516,1.2507,1.8045,2.8796,3.2728,4.8866,4.4072s4.4642,1.7017,7.3738,1.7017c2.6177,0,4.8558-.5672,6.7188-1.7017,1.8607-1.1344,3.3875-2.6027,4.5805-4.4072,1.1922-1.8021,2.0648-3.8527,2.6185-6.1516.5522-2.2974.8283-4.6097.8283-6.9371,0-2.3258-.2761-4.6382-.8283-6.9371Z"/>
      <path d="M246.591,13.5254v10.558h.174c1.3963-3.6652,3.5631-6.4854,6.5012-8.464,2.9366-1.977,6.4419-2.8796,10.5145-2.7048v5.4973c-2.5022-.1163-4.7711.2176-6.8066,1.0031-2.0371.7856-3.7957,1.9058-5.279,3.3598-1.4833,1.4548-2.6328,3.185-3.4468,5.192-.8148,2.0062-1.2215,4.2031-1.2215,6.5875v23.9964h-5.4973V13.5254h5.0614Z"/>
      <path d="M271.5027,43.6734c.5522,2.1241,1.4398,4.0283,2.6613,5.7149,1.2215,1.6882,2.7625,3.0845,4.6248,4.1889,1.8615,1.106,4.1011,1.6581,6.7188,1.6581,4.014,0,7.1555-1.0474,9.4244-3.1415s3.8392-4.8866,4.7118-8.3769h5.4973c-1.1645,5.1192-3.302,9.0747-6.4134,11.8673-3.113,2.7918-7.5194,4.1881-13.22,4.1881-3.5489,0-6.6175-.6258-9.2052-1.8757-2.5893-1.2507-4.6983-2.9666-6.3264-5.1485-1.6297-2.1819-2.8361-4.7118-3.6216-7.5914-.7848-2.8796-1.1779-5.919-1.1779-9.119,0-2.9666.3932-5.8747,1.1779-8.7258.7856-2.8495,1.992-5.3945,3.6216-7.6349,1.6281-2.2388,3.7371-4.0425,6.3264-5.4103,2.5877-1.3662,5.6564-2.0505,9.2052-2.0505,3.6066,0,6.6895.7278,9.2495,2.1819,2.5592,1.4548,4.6382,3.359,6.2394,5.7149,1.5988,2.3567,2.7483,5.0614,3.4468,8.1151.6977,3.0544.9881,6.1524.8726,9.293h-34.6422c0,1.9785.2753,4.0291.8291,6.1524ZM298.7275,26.876c-.6693-1.92-1.6146-3.6216-2.8361-5.105s-2.7048-2.6747-4.4499-3.5773c-1.7452-.9011-3.7237-1.3528-5.934-1.3528-2.2681,0-4.2751.4517-6.0203,1.3528-1.7452.9026-3.2293,2.094-4.4507,3.5773s-2.1961,3.2-2.9231,5.1485c-.7278,1.9493-1.208,3.9413-1.4398,5.9775h29.1449c-.0585-2.0948-.4232-4.1018-1.0909-6.0211Z"/>
      <path d="M318.1427,13.5254v7.7654h.174c1.0474-2.7332,2.9081-4.9301,5.5852-6.5875,2.6747-1.6581,5.6128-2.4872,8.8128-2.4872,3.1415,0,5.7726.4074,7.8967,1.2215,2.1233.8156,3.825,1.9635,5.105,3.4468,1.2784,1.4833,2.1811,3.302,2.7048,5.4538.5237,2.1526.7856,4.5678.7856,7.2425v28.97h-5.4973v-28.0975c0-1.92-.1748-3.7087-.5237-5.366-.3489-1.6581-.9596-3.0979-1.8322-4.3194-.8726-1.2222-2.0505-2.1819-3.5338-2.8796-1.4841-.6985-3.3313-1.0474-5.5416-1.0474s-4.1746.3924-5.8897,1.1779c-1.7167.7856-3.1715,1.8622-4.3629,3.2285-1.193,1.3678-2.1241,2.9967-2.7926,4.8866-.6693,1.8915-1.0332,3.942-1.0901,6.1516v26.2653h-5.4973V13.5254h5.4973Z"/>
      <path d="M387.7301,14.1361c2.6462,1.28,4.8716,2.9967,6.6753,5.1485,1.8029,2.1526,3.1699,4.6683,4.1011,7.5479.9303,2.8796,1.3963,5.9483,1.3963,9.2052s-.466,6.3264-1.3963,9.206c-.9311,2.8796-2.2981,5.3969-4.1011,7.5479-1.8037,2.1526-4.0291,3.8542-6.6753,5.105-2.6478,1.2499-5.6864,1.8757-9.1182,1.8757s-6.4728-.6258-9.119-1.8757c-2.6478-1.2507-4.8724-2.9524-6.6753-5.105-1.8037-2.151-3.1715-4.6683-4.1011-7.5479-.9311-2.8796-1.3963-5.9475-1.3963-9.206s.4652-6.3256,1.3963-9.2052c.9295-2.8796,2.2974-5.3953,4.1011-7.5479,1.8029-2.1518,4.0275-3.8685,6.6753-5.1485,2.6462-1.2792,5.6856-1.92,9.119-1.92s6.4704.6408,9.1182,1.92ZM371.7183,18.4991c-1.9785,1.106-3.6216,2.56-4.9301,4.3629-1.3093,1.8037-2.2989,3.8542-2.9666,6.1516-.6701,2.2989-1.0039,4.6398-1.0039,7.0242,0,2.386.3338,4.7276,1.0039,7.025.6677,2.2981,1.6574,4.3487,2.9666,6.1516,1.3085,1.8037,2.9516,3.2585,4.9301,4.3629,1.977,1.106,4.2759,1.6581,6.8936,1.6581s4.9151-.5522,6.8928-1.6581c1.977-1.1044,3.6216-2.5592,4.9301-4.3629,1.3093-1.8029,2.2974-3.8534,2.9674-6.1516.6677-2.2974,1.0031-4.639,1.0031-7.025,0-2.3844-.3354-4.7252-1.0031-7.0242-.6701-2.2974-1.6581-4.3479-2.9674-6.1516-1.3085-1.8029-2.9532-3.257-4.9301-4.3629-1.9777-1.1044-4.2751-1.6581-6.8928-1.6581s-4.9167.5538-6.8936,1.6581Z"/>
      <path d="M439.5178,58.5508v-8.1151h-.174c-1.4548,3.0252-3.5639,5.3375-6.3264,6.9371-2.7633,1.5996-5.8328,2.3994-9.206,2.3994-2.8511,0-5.279-.3924-7.286-1.1779s-3.6359-1.905-4.8866-3.359c-1.2515-1.454-2.1676-3.2293-2.7483-5.3233-.5822-2.094-.8726-4.4784-.8726-7.1547V13.5254h5.4973v29.3189c.1155,4.0726,1.0609,7.1555,2.8361,9.2495,1.7736,2.094,4.8423,3.1415,9.2052,3.1415,2.3852,0,4.4207-.5087,6.1081-1.5276,1.6866-1.0166,3.0829-2.3693,4.1889-4.0575,1.1044-1.6866,1.9192-3.6209,2.4429-5.8027.5237-2.1811.7856-4.4064.7856-6.6753V13.5254h5.4973v45.0254h-5.0614Z"/>
      <path d="M460.0239,13.5254v10.558h.174c1.3963-3.6652,3.5631-6.4854,6.5012-8.464,2.9366-1.977,6.4419-2.8796,10.5145-2.7048v5.4973c-2.5022-.1163-4.7711.2176-6.8066,1.0031-2.0371.7856-3.7957,1.9058-5.279,3.3598-1.4833,1.4548-2.6328,3.185-3.4468,5.192-.8148,2.0062-1.2215,4.2031-1.2215,6.5875v23.9964h-5.4973V13.5254h5.0614Z"/>
    </g>
  </g>
</svg>