<?xml version="1.0" encoding="UTF-8"?>
<svg id="Layer_2" xmlns="http://www.w3.org/2000/svg" viewBox="0 0 562.0608 75.9691">
  <defs>
    <style>
      .cls-1 {
        fill: #00c100;
      }
    </style>
  </defs>
  <g id="Layer_1-2" data-name="Layer_1">
    <g>
      <path class="cls-1" d="M9.4201,27.5515h2.9368l-1.9239,4.3556c.405-4.4566,1.3499-8.0684,2.8358-10.838,1.4849-2.7678,3.4437-4.7606,5.8745-5.9764,2.4317-1.2149,5.1316-1.8229,8.1042-1.8229,3.7807,0,6.8369.7769,9.1667,2.3298,2.3298,1.5538,4.0167,3.6641,5.0645,6.3309,1.046,2.6677,1.5694,5.689,1.5694,9.0657v31.0962h-10.9391v-28.0575c0-2.0258-.3214-3.8322-.9624-5.419-.6428-1.5859-1.6713-2.9028-3.0892-3.9506-1.4179-1.046-3.3776-1.5703-5.8754-1.5703-2.3638,0-4.3721.4224-6.026,1.2664-1.6557.8449-2.9377,2.0763-3.8496,3.6972s-1.3674,3.5796-1.3674,5.8745v28.1594H0V0h10.9391v30.7932l-1.5189-3.2417Z"/>
      <path class="cls-1" d="M82.9566,49.0255h-2.9368l1.8229-4.2537c-.3389,4.4566-1.2664,8.0362-2.7853,10.7361-1.5198,2.7017-3.4446,4.6945-5.7735,5.9764-2.3298,1.282-5.0489,1.9248-8.1547,1.9248-3.8487,0-6.9223-.7943-9.2172-2.3803-2.2967-1.5859-3.9681-3.7128-5.014-6.3814-1.0478-2.6668-1.5703-5.6881-1.5703-9.0657V14.4856h10.94v28.1585c0,1.8917.304,3.6641.9119,5.318.607,1.6557,1.6539,2.9882,3.1397,4.0011,1.484,1.0129,3.4437,1.5189,5.8745,1.5189,2.3628,0,4.3721-.4206,6.0269-1.2654,1.6539-.8439,2.9377-2.0929,3.8496-3.7477.911-1.6539,1.3674-3.5961,1.3674-5.8249V14.4856h10.9391v47.6067h-10.9391v-16.3076l1.5189,3.2408Z"/>
      <path class="cls-1" d="M108.8882,27.5515h2.8358l-1.8229,4.3556c.405-4.5227,1.3674-8.1363,2.8863-10.838,1.5198-2.6999,3.4602-4.6752,5.824-5.9259,2.3638-1.248,5.0645-1.8734,8.1042-1.8734,3.7807,0,6.8369.7769,9.1667,2.3298,2.3298,1.5538,4.0167,3.6641,5.0645,6.3309,1.046,2.6677,1.5694,5.689,1.5694,9.0657v31.0962h-10.9391v-28.0575c0-2.0258-.3214-3.8322-.9624-5.419-.6428-1.5859-1.6713-2.9028-3.0892-3.9506-1.4179-1.046-3.3776-1.5703-5.8754-1.5703-2.2958,0-4.2886.4224-5.9755,1.2664-1.6888.8449-2.9882,2.0763-3.9001,3.6972s-1.3674,3.5796-1.3674,5.8745v28.1594h-10.9391V14.4856h10.9391v16.3076l-1.5189-3.2417ZM140.7944,28.1594h2.8367l-1.6208,3.7477c.337-4.4566,1.2159-8.0684,2.6337-10.838,1.4179-2.7678,3.2922-4.7606,5.621-5.9764,2.3298-1.2149,5.0811-1.8229,8.2557-1.8229,3.9157,0,7.0555.7769,9.4201,2.3298,2.3628,1.5538,4.0516,3.6641,5.0645,6.3309,1.0129,2.6677,1.5198,5.689,1.5198,9.0657v31.0962h-10.839v-28.0575c0-2.0258-.3205-3.8322-.9615-5.419-.6428-1.5859-1.6713-2.9028-3.0902-3.9506-1.4179-1.046-3.3776-1.5703-5.8745-1.5703-2.3647,0-4.373.4224-6.0269,1.2664-1.6557.8449-2.9377,2.0763-3.8487,3.6972-.9119,1.6208-1.3683,3.5796-1.3683,5.8745h-1.5189l-.2029-5.7735Z"/>
      <path class="cls-1" d="M213.0158,50.1395h-2.7348l1.4179-7.0904c-.068,4.3225-.8283,7.9866-2.2793,10.9905-1.4528,3.0057-3.4106,5.2675-5.8745,6.7864-2.4666,1.5198-5.4199,2.2793-8.8636,2.2793-2.9037,0-5.487-.506-7.7488-1.5198-2.2627-1.0129-4.0186-2.5144-5.2666-4.5071-1.2508-1.9909-1.8743-4.5071-1.8743-7.5459,0-4.4575,1.3674-8.0684,4.1021-10.839,2.7348-2.7678,7.0729-4.1527,13.0163-4.1527h15.7006l.101,8.1033h-14.1807c-2.5676,0-4.576.4564-6.0269,1.3674-1.4528.9119-2.1783,2.1783-2.1783,3.7991,0,1.0809.2865,2.1112.8614,3.0892.573.9798,1.4509,1.7724,2.6337,2.3803,1.18.6079,2.7853.9119,4.8111.9119,2.5658,0,4.7762-.439,6.6349-1.3169,1.8559-.877,3.2747-2.0772,4.2537-3.5961.978-1.5198,1.4693-3.2573,1.4693-5.217v-11.446c0-3.3078-.6933-5.7891-2.0763-7.4448-1.3848-1.6539-3.7321-2.4813-7.0399-2.4813-2.9726,0-5.318.7089-7.0399,2.1268s-2.8202,3.8845-3.2922,7.3943l-10.332-1.5189c.472-3.5787,1.5024-6.6679,3.0892-9.2686,1.5859-2.5989,3.8496-4.5916,6.7873-5.9764,2.9368-1.383,6.701-2.0763,11.2935-2.0763,4.5237,0,8.2383.7438,11.142,2.2288,2.9028,1.4858,5.0296,3.6641,6.3814,6.5329,1.3499,2.8716,2.0258,6.3309,2.0258,10.3825v29.5773h-10.9391v-14.4847l2.0258,2.5318Z"/>
      <path class="cls-1" d="M238.2375,27.5515h2.8358l-1.7219,4.2546c.337-4.3887,1.2489-7.9518,2.7348-10.6865,1.4849-2.7348,3.4263-4.7257,5.824-5.9764,2.3968-1.248,5.1151-1.8734,8.1547-1.8734,3.7807,0,6.8369.7769,9.1667,2.3298,2.3298,1.5538,4.0167,3.6641,5.0645,6.3309,1.046,2.6677,1.5694,5.689,1.5694,9.0657v31.0962h-10.9391v-28.0575c0-2.0258-.3214-3.8322-.9624-5.419-.6428-1.5859-1.6888-2.9028-3.1397-3.9506-1.4528-1.046-3.3932-1.5703-5.8249-1.5703-2.2958,0-4.2886.4224-5.9755,1.2664-1.6888.8449-2.9882,2.0763-3.9001,3.6972s-1.3674,3.5796-1.3674,5.8745v28.1594h-10.9391V14.4856h10.9391v16.3076l-1.5189-3.2417Z"/>
      <path class="cls-1" d="M304.6827,14.4856v61.4835h-10.9391V14.4856h10.9391ZM303.0619,48.4176v-2.5318h2.3298l.2029,2.5318h-2.5327ZM303.2648,30.6922l.101-2.7348h2.1268l-.101,2.7348h-2.1268ZM340.5404,38.0865c0,7.9003-1.6208,14.0962-4.8625,18.5868-3.2408,4.4915-7.8342,6.7359-13.7757,6.7359-2.8358,0-5.284-.4224-7.3438-1.2664-2.0607-.843-3.8156-2.1268-5.2666-3.8487-1.4528-1.7219-2.6007-3.8496-3.4437-6.3814-.8458-2.5327-1.4363-5.419-1.7733-8.6607l.6079-4.6596c0,2.9726.5069,5.5889,1.5198,7.8498,1.0129,2.2637,2.4969,4.0186,4.4566,5.2675,1.9579,1.2508,4.1857,1.8743,6.6854,1.8743,4.1857,0,7.2924-1.3674,9.3182-4.1021,2.0258-2.7357,3.0387-6.5339,3.0387-11.3955,0-4.7946-.9789-8.4917-2.9368-11.0915-1.9597-2.5989-5.0645-3.9001-9.3191-3.9001-2.6337,0-4.913.5749-6.8369,1.7219-1.9248,1.1488-3.3932,2.8027-4.4061,4.9635-1.0129,2.1617-1.5198,4.8285-1.5198,8.0023l-.6079-4.3556c.405-4.4566,1.3169-8.1703,2.7348-11.142,1.4188-2.9708,3.3758-5.217,5.8754-6.7359,2.4969-1.5198,5.5705-2.2793,9.2172-2.2793,4.1187,0,7.5468.9973,10.2815,2.9882,2.7348,1.9928,4.8111,4.846,6.229,8.5588,1.4179,3.7146,2.1278,8.1382,2.1278,13.2698Z"/>
      <path class="cls-1" d="M367.2801,63.3082c-4.8625,0-9.1162-.9293-12.7628-2.7862-3.6467-1.8559-6.4824-4.6081-8.5083-8.2548s-3.0387-8.1033-3.0387-13.3708c0-5.4016.978-10.0281,2.9368-13.8768,1.9579-3.8496,4.7771-6.7864,8.4577-8.8122,3.6806-2.0258,7.9848-3.0387,12.9153-3.0387,4.8616,0,8.8958.9459,12.1044,2.8358,3.2068,1.8917,5.6045,4.5246,7.1914,7.9012,1.5859,3.3767,2.3803,7.2263,2.3803,11.547,0,1.0129.0165,2.0102.0505,2.9882.034.9798-.0505,2.0763-.2525,3.2922h-38.1875v-8.0023h31.0971l-2.6337,3.2408c.1341-4.7257-.7769-8.3393-2.7348-10.838-1.9597-2.4969-5.0645-3.7477-9.3191-3.7477s-7.5302,1.3013-9.8251,3.9001c-2.2967,2.5998-3.4437,6.6009-3.4437,12.0025,0,5.1325,1.1644,8.9996,3.4942,11.5984,2.3298,2.5998,5.723,3.8992,10.1796,3.8992,2.4978,0,4.5411-.3701,6.128-1.1139,1.5859-.742,2.8018-1.7724,3.6467-3.0892.8439-1.3169,1.5354-2.7513,2.0763-4.3051l9.5221,2.6337c-.8788,3.1067-2.2132,5.8084-4.0011,8.1033-1.7898,2.2967-4.0865,4.0865-6.8883,5.3685-2.8027,1.282-6.3309,1.9248-10.5846,1.9248Z"/>
      <path class="cls-1" d="M403.6429,30.1852l2.0258-.101-1.1139,3.7477c.472-3.9157,1.0965-7.1409,1.8743-9.6736.7751-2.5318,1.7219-4.4897,2.8358-5.8745,1.1139-1.383,2.4648-2.3628,4.0516-2.9377,1.5859-.573,3.3583-.8605,5.318-.8605h2.7348v12.2559h-4.6596c-2.8358,0-5.1325.3545-6.8874,1.0634-1.7568.7089-3.0231,1.8917-3.7982,3.5456-.7778,1.6548-1.1654,3.8661-1.1654,6.634v24.1078h-10.9391V14.4856h10.9391v18.6373l-1.2159-2.9377Z"/>
      <path class="cls-1" d="M443.6533,63.4092c-5.0645,0-9.1162-.7089-12.1549-2.1268-3.0387-1.4188-5.318-3.3932-6.8378-5.9259-1.5189-2.5327-2.5823-5.318-3.1903-8.3567l10.2301-2.0258c.54,2.0258,1.2489,3.7826,2.1278,5.2675.8761,1.4858,2.1268,2.6686,3.7477,3.5447,1.6199.8788,3.7128,1.3169,6.2795,1.3169,2.9028,0,5.0645-.5565,6.4834-1.6713,1.4179-1.1139,2.1599-2.5823,2.2278-4.4061,0-1.147-.3389-2.1268-1.0129-2.9377-.6759-.81-1.8734-1.552-3.5952-2.2278-1.7228-.674-4.171-1.282-7.3438-1.8238-4.2546-.8761-7.6478-1.9579-10.1805-3.2408-2.5318-1.282-4.3721-2.8698-5.52-4.7606-1.1488-1.8899-1.7219-4.0856-1.7219-6.5844,0-4.2546,1.5859-7.6808,4.7606-10.2806,3.1737-2.5989,7.8663-3.9001,14.0797-3.9001,4.3207,0,7.8498.5914,10.5846,1.7724,2.7348,1.1828,4.8625,2.8541,6.3814,5.014,1.5198,2.1617,2.6163,4.7955,3.2922,7.9012l-10.4331,2.4308c-.6759-3.1058-1.7898-5.3841-3.3427-6.8378-1.5538-1.4509-3.7146-2.1773-6.4824-2.1773-2.6337,0-4.644.4904-6.0269,1.4684-1.3848.9798-2.0763,2.3472-2.0763,4.1031,0,1.1488.304,2.1617.9119,3.0387.607.8779,1.7549,1.6374,3.4437,2.2784,1.687.6428,4.1178,1.2664,7.2924,1.8743,4.3896.81,7.9012,1.8908,10.535,3.2417s4.4897,2.9717,5.5705,4.8616c1.0799,1.8917,1.6208,4.0516,1.6208,6.4824,0,2.9047-.7089,5.4704-2.1268,7.6983-1.4179,2.2288-3.5805,3.9506-6.4824,5.1656-2.9047,1.2159-6.5844,1.8238-11.041,1.8238Z"/>
      <path class="cls-1" d="M489.9423,63.4092c-5.0645,0-9.4201-1.0129-13.0668-3.0387s-6.4494-4.9461-8.4072-8.7617c-1.9588-3.8147-2.9368-8.2888-2.9368-13.4213,0-5.2675,1.0285-9.7572,3.0892-13.4718,2.0589-3.7128,4.9121-6.5495,8.5588-8.5083,3.6467-1.9579,7.9012-2.9377,12.7628-2.9377s9.1162.9798,12.7628,2.9377c3.6467,1.9588,6.4824,4.7955,8.5083,8.5083,2.0258,3.7146,3.0387,8.2043,3.0387,13.4718,0,7.8342-2.1617,13.9952-6.4824,18.4858-4.3225,4.4915-10.265,6.7359-17.8274,6.7359ZM489.9423,23.1959c-4.2537,0-7.5633,1.3343-9.9261,4.0011-2.3647,2.6686-3.5456,6.2979-3.5456,10.8895,0,3.0387.5225,5.7065,1.5703,8.0013,1.046,2.2967,2.5658,4.0865,4.5576,5.3685,1.9909,1.2838,4.4061,1.9248,7.2428,1.9248,4.3207,0,7.6634-1.4004,10.0281-4.2032,2.3628-2.8018,3.5447-6.499,3.5447-11.0915,0-3.0387-.5409-5.6725-1.6208-7.9012-1.0809-2.2278-2.6328-3.9506-4.6586-5.1656-2.0258-1.2159-4.4245-1.8238-7.1923-1.8238Z"/>
      <path class="cls-1" d="M528.4328,27.5515h2.8358l-1.7219,4.2546c.337-4.3887,1.2489-7.9518,2.7348-10.6865,1.4849-2.7348,3.4263-4.7257,5.824-5.9764,2.3968-1.248,5.1151-1.8734,8.1547-1.8734,3.7807,0,6.8369.7769,9.1667,2.3298,2.3298,1.5538,4.0167,3.6641,5.0645,6.3309,1.046,2.6677,1.5694,5.689,1.5694,9.0657v31.0962h-10.9391v-28.0575c0-2.0258-.3214-3.8322-.9624-5.419-.6428-1.5859-1.6888-2.9028-3.1397-3.9506-1.4528-1.046-3.3932-1.5703-5.8249-1.5703-2.2958,0-4.2886.4224-5.9755,1.2664-1.6888.8449-2.9882,2.0763-3.9001,3.6972s-1.3674,3.5796-1.3674,5.8745v28.1594h-10.9391V14.4856h10.9391v16.3076l-1.5189-3.2417Z"/>
    </g>
  </g>
</svg>