<?xml version="1.0" encoding="UTF-8"?>
<svg id="Layer_2" xmlns="http://www.w3.org/2000/svg" viewBox="0 0 404.5407 96.8357">
  <defs>
    <style>
      .cls-1 {
        fill: #1239c6;
      }
    </style>
  </defs>
  <g id="Layer_1-2" data-name="Layer_1">
    <g id="T2QwYv.tif">
      <g>
        <path class="cls-1" d="M44.8055,70.9476c-.8201,9.5566-6.0293,16.1563-13.2632,21.3313-8.8426,6.3258-18.5284,5.4156-26.1588-2.268-1.9565-1.9701-3.7006-4.1498-5.3835-6.444,5.2468,2.4568,10.6325,3.8949,16.3666,3.7143,9.4145-.2964,20.2676-8.1182,22.8316-17.1203.6299-2.2116-.4119-5.4235-1.7271-7.5291-1.7819-2.8526-4.5684-5.0819-7.1688-7.8381,1.166-2.5423,2.5025-5.4561,3.9919-8.7035,4.5307,3.032,7.2552,7.1213,8.7778,11.9256.7304,2.3047,1.6891,3.0663,4.1167,3.007,7.2146-.176,14.4363-.0631,22.0337-.0631-.047-4.1778-1.9977-7.3072-3.8969-10.5044-.5167-.8699-.8332-2.249-.5204-3.1441.9552-2.7331,2.2618-5.3442,3.4316-8.0027l1.0189-.2989c1.6107,3.493,3.4988,6.8904,4.7541,10.5059,1.255,3.6145,1.877,7.4472,2.8064,11.3085h23.339c-.3893-4.676-2.38-8.3378-5.3032-11.8246,1.3993-3.2154,2.8392-6.5242,4.4741-10.281,5.1807,6.8192,7.0354,14.2261,8.0295,21.9186h36.0275c.1302-.2734.2605-.5469.3907-.8203-7.5212-8.3081-15.7988-15.8087-24.9598-22.8803-.5867,1.2757-.997,2.1679-1.5069,3.2767-1.7616-1.6088-3.3964-3.0567-4.9813-4.5571-6.6574-6.3026-5.5898-15.2536,2.8297-19.2298,12.1107-5.7194,24.5079-10.8365,36.7899-16.1945.3425-.1494.7661-.1142,1.6573-.2317-1.5437,3.7834-2.8291,7.2668-4.4202,10.6056-.4104.8612-1.7094,1.4415-2.7217,1.8564-9.9749,4.0886-19.9755,8.115-30.4277,12.3448,1.5269,1.256,2.7422,2.324,4.0268,3.3017,11.1119,8.4575,21.7975,17.3514,30.5245,28.3755,2.5691,3.2453,3.8343,6.5871,2.9475,10.7344-.4595,2.1485-1.2848,3.4227-3.6918,3.2913-1.6721-.0912-3.3555.0461-5.0339.0465-18.4578.005-36.9157-.0274-55.3734.0133-13.9416.0307-27.8831.1507-41.8246.2388-.8312.0053-1.662.0806-2.8027.1392Z"/>
        <path class="cls-1" d="M313.0205,60.8893h13.1871c2.573-8.7819,7.1332-16.4866,12.614-23.6331,1.2568-1.6388,3.5719-2.4715,5.3999-3.6752.8399,2.0382,2.1449,4.0165,2.419,6.1277.509,3.9204.4987,7.9173.5484,11.8843.0403,3.2169.3194,6.5835-3.7133,9.0367,1.664.1819,2.4255.3398,3.1863.3369,8.0763-.031,16.1531-.1672,24.2284-.103,3.9786.0316,6.3068-1.5815,7.6734-5.3938,1.2224-3.41,2.8758-6.757,4.8745-9.7803,3.443-5.2081,9.0827-5.6217,13.266-1.0056,4.4589,4.9201,7.2399,10.7847,7.781,17.4442.5394,6.6397-2.8747,9.7458-9.4818,9.0592-6.442-.6694-10.6903-2.083-16.9064-5.6659-1.7706,3.9733-5.1253,5.0975-9.1988,5.0551-6.5993-.0687-13.1998-.0175-19.7998-.017-1.0183,0-2.0366,0-2.7729,0,.2187,2.0516.7279,3.8509.5341,5.5715-.5713,5.0696-1.1442,10.1692-2.2511,15.1388-.8658,3.8871-2.3181,4.5181-6.211,3.5915-5.5434-1.3194-8.7383-5.3012-10.4572-10.3398-1.5084-4.4213-2.3756-9.0598-3.5723-13.7854h-12.31c-1.4936,8.7244-5.6214,15.6983-13.3525,20.2413-4.9705,2.9207-10.3548,3.9872-16.0284,3.1567-7.9382-1.162-16.4162-9.6815-17.1879-17.123,7.3517,6.7952,15.0885,12.6731,25.9056,8.8832,7.1269-2.497,12.3777-7.1651,14.7053-14.3246-2.8268-.8244-5.5616-1.2676-7.974-2.3956-5.9023-2.76-8.6565-8.8653-6.3174-14.9027,1.5581-4.0215,3.7941-7.9274,6.4231-11.3544,3.189-4.1571,7.8353-3.791,10.1293.9264,2.0612,4.2386,2.9861,9.0328,4.3289,13.6062.2847.9698.2083,2.0449.3306,3.4399ZM394.4459,62.7545c3.2092-.5687,4.2728-1.9869,3.2267-4.7721-.4698-1.2508-1.0149-2.6634-1.9687-3.5028-1.7953-1.58-4.3303-4.2613-5.8025-3.8432-2.5999.7383-4.6757,3.4115-6.8439,5.4113-.236.2176.1608,1.7552.6047,1.9651,3.5483,1.6779,7.1786,3.1834,10.7838,4.7417ZM329.9394,70.7475c1.5126,6.0014,4.3816,10.7836,9.3131,14.1329,1.9437,1.32,3.3236.2285,3.5942-2.4739.65-6.4907-5.6516-12.514-12.9074-11.6589ZM331.4479,61.0989c2.605-.8272,5.2366-1.5822,7.8022-2.5167,1.0419-.3795,2.2454-.9373,2.8408-1.7864,1.233-1.7583-.1763-9.6455-2.0595-11.734-4.2773,4.4219-6.9578,9.6567-8.5835,16.0371ZM305.2398,61.2275c2.2537-.0379,2.9203-1.2339,2.155-2.9096-.8848-1.9374-1.9689-3.923-3.4442-5.4201-1.9745-2.0036-4.1626-1.5088-5.787.824-1.6739,2.4041-1.4195,3.8553,1.3005,5.2836,1.8134.9522,3.8429,1.4957,5.7756,2.2222Z"/>
        <path class="cls-1" d="M239.4925,71.416c-3.9307,14.492-14.5061,22.8745-30.6788,23.3391-4.4557.128-9.0471-.2189-13.3865-1.19-8.2047-1.836-11.7338-6.6528-11.0897-14.9412.7004-9.0108,5.0005-16.6285,10.3489-23.7224-1.2634,3.9059-2.7305,7.7599-3.7516,11.7277-2.8707,11.1552,2.4497,18.1741,13.9569,18.8602,8.9074.5311,16.9318-2.0514,24.5887-6.3203,2.6517-1.4783,3.5634-3.5577,3.413-6.4475-.3306-6.349-2.2346-12.0756-6.7496-17.1878,2.5194-2.9611,4.992-5.867,8.0557-9.4679,1.5867,4.3363,3.0611,8.0648,4.3094,11.867,1.105,3.3659,2.5049,4.0246,8.0799,3.676,3.0741-.1923,5.0671-1.7039,4.512-4.6872-1.074-5.7712,2.9961-8.225,7.1261-11.1538-.3784,4.9012-.7569,9.8023-1.1608,15.0343,3.758,1.3529,7.8992,1.1917,11.952.1342.8125-.212,1.7694-2.1143,1.6595-3.1297-.2265-2.0917-1.1281-4.1109-1.9543-6.8246,2.1192-1.8689,4.7389-4.1792,7.9784-7.036.527,2.2225,1.2062,3.8493,1.2495,5.4928.1543,5.8455.0874,11.6967.1141,17.5457.0107,2.3324-.8226,3.5297-3.4714,3.6637-7.1729.363-14.2435.1829-21.1205-2.1683-.6575-.2248-1.4475-.4711-2.0745-.3116-3.7769.9608-7.5242,2.0372-11.9062,3.2474Z"/>
        <path class="cls-1" d="M50.3782,83.1854c3.4228,2.165,6.5733,4.1578,9.9748,6.3094,1.468-2.283,2.7994-4.3534,4.2816-6.6586,3.4589,2.0536,6.7513,4.0083,10.4605,6.2105-1.4806,2.502-2.8804,4.8676-4.4733,7.5597-3.4287-2.142-6.6683-4.166-10.0328-6.2679-1.4033,2.1745-2.6959,4.1775-4.1928,6.4971-3.3661-2.0113-6.6403-3.9676-10.2884-6.1473,1.4281-2.5091,2.7836-4.8908,4.2703-7.5029Z"/>
        <path class="cls-1" d="M88.835,81.8473c3.9968,2.2741,7.5846,4.3154,11.4339,6.5056-1.6205,2.7345-3.0805,5.198-4.6709,7.8817-3.7907-2.1975-7.3522-4.2622-11.1518-6.4649,1.5014-2.7101,2.8421-5.1303,4.3888-7.9223Z"/>
      </g>
    </g>
  </g>
</svg>