<?xml version="1.0" encoding="UTF-8"?>
<svg xmlns="http://www.w3.org/2000/svg" viewBox="0 0 149.2272 102.4029">
  <defs>
    <style>
      .cls-1 {
        mix-blend-mode: difference;
      }

      .cls-2 {
        isolation: isolate;
      }

      .cls-3 {
        fill: #f0f0ee;
      }
    </style>
  </defs>
  <g class="cls-2">
    <g id="Layer_2">
      <g id="Layer_1-2" data-name="Layer_1">
        <g class="cls-1">
          <g>
            <path class="cls-3" d="M9.3182,62.9908v.1927c-.0515-.0897-.1029-.1669-.1538-.2567l.1538.064Z"/>
            <path class="cls-3" d="M149.2272,4.5465v97.8564h-12.1969c-.3022-9.5425-.6049-19.0845-.9071-28.627-3.6958,9.4081-7.3921,18.8158-11.088,28.2239h-11.088c-4.032-9.072-8.064-18.1439-12.096-27.2159.0704,9.2063.1413,18.4127.2116,27.619h-12.1969V4.5465h12.1969c5.8063,23.4492,11.6121,46.8989,17.4185,70.3481,5.8496-23.4492,11.6993-46.8989,17.5489-70.3481h12.1969Z"/>
            <path class="cls-3" d="M9.3182,62.9908v.1927c-.0515-.0897-.1029-.1669-.1538-.2567l.1538.064Z"/>
          </g>
          <g>
            <path class="cls-3" d="M9.1645,62.9268c.0508.0897.1023.1669.1538.2567v-.1927l-.1538-.064Z"/>
            <path class="cls-3" d="M82.4117,40.4986C82.4117,18.1607,64.2509,0,41.9125,0c-.2441,0-.4883,0-.7192.0126v-.0126H.1927v.2441h-.1927v100.5077h12.1975v-20.4225c0-.0772-.0257-.1418-.0257-.219v-3.4573l58.3379,24.8318,4.7815-11.2204-24.2275-10.3079c17.9423-4.1514,31.3479-20.2687,31.3479-39.458ZM9.3182,62.9908v.1927c-.0515-.0897-.1029-.1669-.1538-.2567l.1538.064ZM13.624,40.4986c0-15.6034,12.6858-28.3017,28.2885-28.3017s28.3023,12.6983,28.3023,28.3017-12.6989,28.3017-28.3023,28.3017-28.2885-12.6983-28.2885-28.3017Z"/>
          </g>
          <path class="cls-3" d="M9.3182,62.9908v.1927c-.0515-.0897-.1029-.1669-.1538-.2567l.1538.064Z"/>
        </g>
      </g>
    </g>
  </g>
</svg>