<?xml version="1.0" encoding="UTF-8"?>
<svg id="Layer_2" xmlns="http://www.w3.org/2000/svg" viewBox="0 0 56.2822 55.3242">
  <defs>
    <style>
      .cls-1 {
        fill: #1a1a1a;
      }
    </style>
  </defs>
  <g id="Layer_1-2" data-name="Layer_1">
    <g>
      <g>
        <g>
          <path class="cls-1" d="M31.3711,2.4176l.1962.0761-.2768.3864c.1782-.3633.3655-.6578.5611-.8832.1953-.2249.3993-.393.6116-.5037.2122-.1103.4376-.1639.6761-.161.2386.0035.4929.0573.7628.1619l.3802.1474-.3567.9197-.4661-.1808c-.3762-.1459-.7125-.2125-1.0085-.2006-.2964.0122-.5508.1159-.7627.3112-.2121.1952-.3959.4931-.5512.8937l-1.2128,3.1274-.834-.3234L31.3019.4858l.834.3234-.7562,1.9499-.0086-.3416Z"/>
          <path class="cls-1" d="M30.1377,6.998l-1.5332-.5957,2.4834-6.4023,1.5332.5957-.1943.501c.2275-.0957.4736-.1299.7178-.1396.2832.0049.583.0674.8926.1875l.7305.2832-.6279,1.6191-.8154-.3164c-.3252-.126-.6025-.1943-.8584-.1758-.2061.0088-.3779.0781-.5234.2119-.1602.1484-.3066.3848-.4355.7021l-.4531,1.1699-.001-.001-.915,2.3604ZM29.5752,5.9746l.1348.0527,1.0771-2.7783c.0664-.1719.1396-.3281.2178-.4697v-.0342l-.0508-.0303.0469-.0938-.0078-.3037-1.418,3.6572ZM32.6699,1.8086c.2861.0205.5967.0947.9258.2227l.1162.0449.085-.2207-.0303-.0117c-.2266-.0879-.4395-.1338-.6328-.1367-.2012-.0137-.3174.0312-.4639.1016ZM31.1445,1.9277l.1348.0527.3711-.957-.1348-.0527-.3711.957Z"/>
        </g>
        <g>
          <path class="cls-1" d="M35.9817,4.0502l.2455.0952-.4069.5759c.2244-.5056.4913-.8912.8012-1.1566s.6554-.4228,1.0369-.4726.7686.0015,1.1609.1536c.5232.2029.8938.4666,1.1114.7909.2174.3242.3238.6806.3191,1.069-.0051.3888-.0851.7836-.2404,1.1841l-.0402.1394-1.3413,3.4586-.8463-.3282,1.3175-3.3973c.1109-.286.1706-.5733.1793-.8618.0081-.2883-.0672-.5548-.2259-.8002-.1591-.245-.4347-.4435-.8272-.5957-.3598-.1395-.696-.1947-1.0082-.1655-.3124.0297-.5887.1414-.8284.3352s-.4279.4668-.5641.8181l-1.3175,3.3973-.834-.3234,2.2117-5.703.834.3234-.7562,1.9499.0192-.4863ZM40.0231,5.7446l.2453.0951-.3319.4922c.2161-.5088.4727-.9035.7694-1.1834s.6267-.4458.9903-.4979c.3632-.0517.7659.0077,1.2074.1789.5397.2093.9202.4768,1.1421.8028.2214.3258.332.6838.3314,1.0738-.0011.3904-.079.7859-.2344,1.1865l-1.3935,3.5933-.8463-.3282,1.3175-3.3973c.1109-.286.1683-.5742.1728-.8644.0043-.2898-.0713-.5564-.2257-.8001-.155-.2434-.4287-.4412-.8212-.5934-.3598-.1395-.698-.1955-1.0143-.1678-.3167.028-.5927.1398-.8284.3352-.2359.1953-.4219.4691-.5581.8205l-.147-.057.2246-.6888Z"/>
          <path class="cls-1" d="M42.9629,11.9717l-1.5449-.6006,1.4531-3.7461c.0938-.2432.1436-.4902.1475-.7344.0029-.2168-.0518-.4111-.168-.5938-.1094-.1729-.3242-.3223-.6396-.4443-.3057-.1182-.5898-.1611-.8457-.1445-.2412.0215-.4443.1035-.6221.25-.1846.1533-.335.3779-.4482.668l-1.4531,3.7471-1.5459-.5996,1.4541-3.7471c.0947-.2441.1465-.4922.1533-.7373.0059-.2119-.0479-.4043-.166-.5859-.1133-.1748-.332-.3271-.6475-.4492-.3037-.1172-.583-.1621-.8379-.1416-.2402.0225-.4453.1055-.627.2529-.1787.1445-.3252.3545-.4355.624l-.6865,1.7705v-.002l-.7822,2.0166-1.5332-.5947,2.4834-6.4023,1.5332.5957-.1992.5117c.1934-.082.3945-.1377.6045-.165.4434-.0537.8945.002,1.3457.1768.5928.2285,1.0264.542,1.2871.9307.1895.2832.3096.5898.3584.916.3145-.2529.6641-.4092,1.042-.4639.4248-.0615.8955.0059,1.3965.2002.6104.2373,1.0527.5547,1.3174.9424.2637.3887.3965.8213.3955,1.2852-.001.4346-.0889.8799-.2598,1.3213l-1.5293,3.9434ZM42.3887,10.9434l.1465.0576,1.2578-3.2441c.1377-.3555.208-.709.209-1.0518.001-.3145-.0859-.5967-.2666-.8613-.1768-.2607-.502-.4844-.9678-.665-.2764-.1074-.5332-.1641-.7676-.1709.1572.0332.3184.082.4824.1455.4678.1816.8047.4316,1.001.7412.1943.3047.29.6436.2852,1.0068-.0059.334-.0723.668-.1982.9941l-1.1816,3.0479ZM38.2666,9.3457l.1475.0566,1.0459-2.6973-.1279-.0498.1143-.3486-1.1797,3.0391ZM34.1582,7.752l.1348.0518,1.1816-3.0469c.0205-.0518.042-.1025.0645-.1523l-.0615-.0352c.0381-.0859.0771-.1689.1182-.248l.0117-.3066-1.4492,3.7373ZM38.0498,3.4512c.1025.0283.2061.0625.3115.1035.4658.1807.8037.4297,1.0059.7412.2002.3096.2959.6504.2861,1.0146-.0068.2188-.0391.4365-.0957.6533l.2324-.7139.0762.0303c.0049-.0605.0078-.1201.0088-.1797.0039-.3135-.0801-.5938-.2559-.8555-.1729-.2578-.4883-.4766-.9346-.6494-.2178-.084-.4277-.1318-.6348-.1445ZM35.7803,3.5693l.1348.0527.3184-.8213-.1348-.0527-.3184.8213Z"/>
        </g>
      </g>
      <g>
        <g>
          <path class="cls-1" d="M12.3041,7.1923l.1959-.077.0582.4717c-.1151-.388-.1768-.7315-.1857-1.0297-.0087-.2978.0274-.5595.1086-.7848.0813-.2248.2108-.417.3882-.5765.1778-.1591.4013-.2918.6707-.3977l.3795-.1491.3608.9181-.4653.1828c-.3755.1476-.668.3265-.8777.5357-.2097.2098-.3266.4584-.3501.7457-.0238.2873.0429.6309.2,1.0308l1.2268,3.1219-.8325.3272-2.2372-5.693.8325-.3272.7649,1.9465-.2378-.2454Z"/>
          <path class="cls-1" d="M12.9697,11.998l-2.5117-6.3916,1.5312-.6016.1963.5c.1025-.2246.248-.4219.4336-.5879.21-.1885.4736-.3457.7832-.4678l.7295-.2852.6348,1.6152-.8145.3193c-.3242.1279-.5771.2803-.749.4531-.1475.1465-.2266.3135-.2422.5098-.0176.2178.0342.4912.1553.8125l.457,1.1621-.001-.001.9277,2.3613-1.5303.6016ZM11.959,7.376l1.4346,3.6494.1338-.0527-1.0889-2.7734c-.0684-.1738-.1221-.3379-.1592-.4941l-.0225-.0234-.0576.0117c-.0098-.0332-.0195-.0674-.0293-.1006l-.2109-.2168ZM11.4307,6.0303l.375.9551.1348-.0527-.375-.9551-.1348.0527ZM13.708,5.1348l-.0312.0127c-.2256.0889-.4141.1992-.5576.3281-.1221.1094-.2109.2363-.2715.3887.2236-.1787.502-.334.8311-.4629l.1152-.0459-.0859-.2207Z"/>
        </g>
        <g>
          <path class="cls-1" d="M16.8013,5.2692l.245-.0963.0909.6992c-.1775-.5239-.2424-.9883-.1943-1.3935s.1956-.7551.4424-1.0501.5663-.5196.9579-.6735c.5223-.2052.9735-.2624,1.3533-.1713.3796.0912.6992.2812.959.5701.2597.2894.4683.6339.6254,1.0338l.0649.1297,1.3567,3.4525-.8448.332-1.3327-3.3913c-.1122-.2855-.2629-.5372-.4521-.7553-.1894-.2175-.4253-.3625-.7083-.4355-.283-.0724-.6203-.0317-1.0121.1223-.3592.1412-.6438.3283-.8537.5614-.2097.2335-.3372.5028-.3822.8078s.0015.6332.1394.984l1.3327,3.3913-.8325.3272-2.2372-5.693.8325-.3272.7649,1.9465-.3153-.3707ZM20.9218,3.7774l.2448-.0962.0893.5869c-.1858-.5206-.2645-.9848-.2359-1.3916s.1589-.7525.3911-1.0372c.2321-.2841.5686-.5133,1.0093-.6865.5388-.2117.9999-.2728,1.3839-.1833.3836.0896.7075.278.9712.5652.2637.2878.4743.6316.6315,1.0314l1.4096,3.587-.8448.332-1.3327-3.3913c-.1122-.2855-.2652-.5364-.4585-.7528-.1932-.216-.4294-.3609-.7081-.4356-.279-.074-.6142-.034-1.006.1199-.3592.1412-.6458.3291-.8597.5637-.2139.2352-.3413.5044-.3822.8078-.0412.3034.0076.6309.1454.9816l-.1468.0577-.3014-.6588Z"/>
          <path class="cls-1" d="M17.5449,10.2002l-2.5117-6.3916,1.5303-.6016.2012.5127c.0859-.1914.1973-.3691.334-.5322.2842-.3408.6572-.6045,1.1074-.7812.5928-.2334,1.1211-.2998,1.5781-.1865.3301.0791.626.2227.8838.4297.0596-.4004.2119-.752.4521-1.0479.2744-.334.665-.6016,1.1621-.7979.6191-.2422,1.1455-.3057,1.6074-.1992.459.1074.8496.3359,1.1621.6777.2939.3203.5312.7061.7041,1.1475l1.5469,3.9355-1.543.6064-1.4697-3.7412c-.0947-.2412-.2256-.4561-.3896-.6396-.1436-.1611-.3154-.2666-.5254-.3232-.2002-.0537-.459-.0176-.7705.1064-.3057.1201-.5479.2773-.7207.4678-.1621.1787-.2568.376-.2871.6055-.0322.2373.0088.5049.123.7949l.1357.3486h-.001l1.334,3.3906-1.543.6064-1.4688-3.7402c-.0957-.2432-.2266-.4609-.3867-.6475-.1387-.1592-.3086-.2627-.5186-.3174-.2031-.0547-.4678-.0156-.7822.1084-.3018.1182-.541.2744-.7119.4629-.1602.1787-.2549.3779-.2891.6113-.0352.2383.0039.5029.1152.7881l1.4717,3.7451-1.5303.6016ZM16.502,5.4961l1.4668,3.7314.1338-.0527-1.1953-3.043c-.0205-.0518-.04-.1035-.0566-.1553l-.0684.0156c-.0293-.0879-.0566-.1758-.0811-.2617l-.1992-.2344ZM20.877,4.5791l1.1924,3.0361.1465-.0576-1.0576-2.6924-.1279.0498-.1533-.3359ZM23.1846,1.4941c.1348,0,.2627.0166.3848.0488.3506.0947.6494.2793.8906.5479.2236.251.4014.542.5283.8662l1.1953,3.042.1465-.0576-1.2715-3.2383c-.1396-.3545-.3281-.6621-.5596-.9141-.2129-.2324-.4678-.3809-.7803-.4541-.3047-.0742-.6963-.0176-1.1621.167-.2744.1074-.501.2402-.6787.3936.1387-.082.2891-.1553.4512-.2188.3076-.1211.5938-.1826.8555-.1826ZM16.0059,4.2324l.3223.8213.1338-.0527-.3223-.8213-.1338.0527ZM19.0791,3.1104c.1328,0,.2588.0156.3789.0459.3584.0928.6602.2783.8984.5527.1416.1641.2656.3457.3701.542l-.3105-.6787.0762-.0293c-.0371-.0488-.0762-.0947-.1162-.1396-.21-.2324-.4609-.3818-.7666-.4551-.3018-.0713-.6807-.0205-1.1279.1553-.2119.084-.3994.1914-.5605.3223.0938-.0488.1914-.0928.2939-.1328.3105-.1221.5996-.1826.8643-.1826Z"/>
        </g>
      </g>
      <g>
        <g>
          <path class="cls-1" d="M24.4317,52.9074l-.1962-.0761.2768-.3864c-.1782.3633-.3655.6578-.5611.8832-.1953.2249-.3993.393-.6116.5037-.2122.1103-.4376.1639-.6761.161-.2386-.0035-.4929-.0573-.7628-.1619l-.3802-.1474.3567-.9197.4661.1808c.3762.1459.7125.2125,1.0085.2006.2964-.0122.5508-.1159.7627-.3112.2121-.1952.3959-.4931.5512-.8937l1.2128-3.1274.834.3234-2.2117,5.703-.834-.3234.7562-1.9499.0086.3416Z"/>
          <path class="cls-1" d="M24.7148,55.3242l-1.5332-.5947.1943-.501c-.2295.0957-.46.1309-.7178.1396-.2832-.0049-.583-.0674-.8926-.1875l-.7305-.2832.6279-1.6191.8164.3164c.3252.126.6084.1924.8574.1758.2061-.0088.3779-.0781.5234-.2119.1562-.1445.2998-.3721.4258-.6787l.4639-1.1953v.0029l.915-2.3604,1.5332.5947-2.4834,6.4023ZM24.1523,54.3018l.1348.0518.3711-.9561-.1357-.0527-.3701.957ZM22.0059,53.4697l.0303.0117c.2266.0879.4395.1338.6328.1367h.0137c.1582,0,.3066-.0332.4502-.1016-.2861-.0205-.5967-.0947-.9248-.2227l-.1172-.0449-.085.2207ZM24.8018,52.7061l.0078.3008,1.418-3.6572-.1348-.0518-1.0771,2.7783c-.0674.1738-.1396.3311-.2178.4717l.001.0322.0508.0312c-.0166.0312-.0322.0635-.0479.0947Z"/>
        </g>
        <g>
          <path class="cls-1" d="M19.8211,51.2749l-.2455-.0952.4069-.5759c-.2244.5056-.4913.8912-.8012,1.1566s-.6554.4228-1.0369.4726-.7686-.0015-1.1609-.1536c-.5232-.2029-.8938-.4666-1.1114-.7909-.2174-.3242-.3238-.6806-.3191-1.069.0051-.3888.0851-.7836.2404-1.1841l.0402-.1394,1.3413-3.4586.8463.3282-1.3175,3.3973c-.1109.286-.1706.5733-.1793.8618-.0081.2883.0672.5548.2259.8002.1591.245.4347.4435.8272.5957.3598.1395.696.1947,1.0082.1655.3124-.0297.5887-.1414.8284-.3352s.4279-.4668.5641-.8181l1.3175-3.3973.834.3234-2.2117,5.703-.834-.3234.7562-1.9499-.0192.4863ZM15.7797,49.5804l-.2453-.0951.3319-.4922c-.2161.5088-.4727.9035-.7694,1.1834s-.6267.4458-.9903.4979c-.3632.0517-.7659-.0077-1.2074-.1789-.5397-.2093-.9202-.4768-1.1421-.8028-.2214-.3258-.332-.6838-.3314-1.0738.0011-.3904.079-.7859.2344-1.1865l1.3935-3.5933.8463.3282-1.3175,3.3973c-.1109.286-.1683.5742-.1728.8644-.0043.2898.0713.5564.2257.8001.155.2434.4287.4412.8212.5934.3598.1395.698.1955,1.0143.1678.3167-.028.5927-.1398.8284-.3352.2359-.1953.4219-.4691.5581-.8205l.147.057-.2246.6888Z"/>
          <path class="cls-1" d="M20.1318,53.5469l-1.5332-.5947.1992-.5127c-.1934.083-.3945.1387-.6045.166-.4414.0557-.8936-.001-1.3457-.1768-.5918-.2285-1.0254-.542-1.2871-.9316-.1895-.2832-.3096-.5898-.3584-.915-.3135.2529-.6641.4092-1.042.4639-.4336.0596-.8994-.0088-1.3965-.2012-.6074-.2354-1.0508-.5518-1.3164-.9414-.2646-.3887-.3975-.8213-.3965-1.2852.001-.4346.0889-.8799.2598-1.3213l1.5293-3.9434,1.5459.5996-1.4541,3.7471c-.0938.2432-.1436.4902-.1465.7334-.0039.2168.0508.4111.168.5957.1084.1719.3242.3213.6396.4434.3027.1182.582.1689.8457.1436.2412-.0215.4443-.1025.6211-.249.1846-.1533.335-.3779.4482-.6689l1.4531-3.7461,1.5459.5996-1.4531,3.7471c-.0947.2441-.1475.4922-.1543.7373-.0059.2109.0488.4033.166.5859.1143.1748.332.3271.6475.4492.3047.1172.5879.165.8379.1416.2393-.0225.4443-.1055.6279-.2539.1777-.1445.3242-.3545.4346-.623l.6865-1.7715v.002l.7822-2.0166,1.5332.5957-2.4834,6.4014ZM19.5693,52.5244l.1348.0518.3193-.8223-.1357-.0518-.3184.8223ZM15.9365,50.043c-.0049.0605-.0078.1211-.0088.1816-.0039.3125.0801.5928.2559.8545.1738.2588.4883.4775.9346.6504.2178.084.4277.1318.6348.1445-.1025-.0283-.2061-.0625-.3115-.1035-.4639-.1807-.8027-.4297-1.0059-.7402-.2002-.3115-.2959-.6533-.2861-1.0156.0068-.2217.04-.4424.0977-.6611l-.2344.7188-.0762-.0293ZM20.207,51.0039l-.0117.3057,1.4492-3.7363-.1348-.0527-1.1816,3.0479c-.0205.0518-.042.1025-.0645.1523l.0615.0352c-.0381.0859-.0771.1689-.1182.248ZM13.2676,44.3242l-1.2578,3.2441c-.1377.3555-.208.709-.209,1.0518-.001.3145.0859.5967.2666.8613.1777.2607.5029.4844.9678.6641.2744.1074.5322.1641.7666.1709-.1572-.0332-.3184-.0811-.4805-.1445-.4678-.1816-.8057-.4307-1.002-.7412-.1943-.3086-.29-.6475-.2842-1.0078.0049-.332.0703-.666.1973-.9932l1.1826-3.0488-.1475-.0566ZM16.3428,48.6201l.1279.0498-.1191.3652c.001-.0029.002-.0059.0029-.0078l1.1816-3.0479-.1475-.0566-1.0459,2.6973Z"/>
        </g>
      </g>
      <g>
        <g>
          <path class="cls-1" d="M43.441,47.8653l-.1926.085-.0775-.4689c.1309.383.2067.7236.2278,1.0212.0209.2972-.0045.5602-.0763.7886-.072.228-.1935.4253-.3643.5919-.1711.1663-.389.308-.6539.4248l-.3731.1646-.3981-.9025.4574-.2018c.3691-.1628.6541-.3536.855-.5713.2009-.2182.3075-.4714.3193-.7594.012-.2881-.0688-.6286-.2421-1.0217l-1.3538-3.069.8184-.361,2.4687,5.5965-.8184.361-.8441-1.9135.2476.2355Z"/>
          <path class="cls-1" d="M41.7402,50.9678l-.7012-1.5889.7998-.3535c.3203-.1416.5664-.3037.7314-.4834.1396-.1514.2119-.3213.2197-.5205.0088-.2178-.0557-.4902-.1914-.8105l-1.5244-3.4551,1.5039-.6641,2.7715,6.2832-1.5039.6621-.2168-.4912c-.0938.2295-.2314.4326-.4092.6055-.2021.1973-.459.3662-.7646.5l-.7148.3164ZM42.0273,49.7617l.0957.2158.0303-.0127c.2227-.0977.4053-.2158.543-.3506.1172-.1143.2012-.2451.2559-.3994-.2148.1865-.4873.3535-.8105.4961l-.1143.0508ZM43.8154,48.1104l.4131.9385.1328-.0586-.4141-.9375-.1318.0576ZM43.5586,47.46l.2188.207-1.582-3.5869-.1328.0586,1.2031,2.7256c.0752.1709.1348.333.1787.4873l.0244.0225.0566-.0137c.0117.0332.0225.0664.0332.0996Z"/>
        </g>
        <g>
          <path class="cls-1" d="M39.0264,49.9711l-.2409.1063-.1195-.6949c.1988.5162.2827.9776.2513,1.3844s-.1644.7624-.399,1.0674-.5446.5424-.9295.7122c-.5134.2265-.9619.3021-1.3452.2266-.383-.0755-.7102-.2523-.9815-.5303-.2713-.2785-.4939-.6142-.6673-1.0073l-.0702-.127-1.4972-3.394.8305-.3663,1.4706,3.3338c.1238.2806.2848.526.4827.7362.1981.2095.4399.3448.7255.4061.2857.0607.621.0062,1.0062-.1637.3531-.1558.6298-.3544.83-.5959.1999-.2419.3163-.5162.3487-.8228s-.0275-.6327-.1796-.9774l-1.4706-3.3338.8184-.361,2.4687,5.5965-.8184.361-.8441-1.9135.3303.3574ZM34.9706,51.6306l-.2407.1062-.1133-.5827c.207.5126.3047.9731.2927,1.3808s-.1279.7584-.3482,1.0523c-.2203.2934-.547.5362-.9803.7273-.5297.2336-.9878.3135-1.3752.2399-.3869-.0738-.7183-.2487-.9936-.5249-.2753-.2768-.4998-.6116-.6732-1.0047l-1.5555-3.5262.8305-.3663,1.4706,3.3338c.1238.2806.2869.525.489.7334.2019.2079.4438.343.7253.4062.2818.0625.6151.0088,1.0003-.1611.3531-.1558.6318-.3553.8359-.5985.2041-.2438.3203-.518.3487-.8228.0287-.3049-.0334-.63-.1855-.9748l.1443-.0636.3282.6459Z"/>
          <path class="cls-1" d="M32.4922,54.9551c-.123,0-.2422-.0107-.3555-.0322-.4619-.0879-.8623-.2998-1.1904-.6289-.3076-.3086-.5605-.6846-.751-1.1191l-1.7061-3.8682,1.5156-.6689,1.6221,3.6768c.1055.2383.2451.4482.415.623.1514.1562.3281.2549.5391.3018.2021.0469.459-.002.7666-.1377.2979-.1309.5332-.2979.7002-.4971.1553-.1846.2412-.3867.2627-.6162.0215-.2393-.0303-.5049-.1553-.7881l-.1514-.3418.002-.001-1.4727-3.334,1.5166-.6689,1.6221,3.6758c.1055.2402.2441.4521.4121.6299.1455.1543.3193.252.5322.2979.2051.043.4668-.0039.7754-.1406.2979-.1309.5312-.2969.6924-.4922.1533-.1846.2402-.3887.2646-.6221.0254-.2402-.0254-.5049-.1494-.7871l-1.6221-3.6768,1.5039-.6641,2.7715,6.2822-1.5039.6641-.2227-.5029c-.0771.1943-.1807.376-.3105.5439-.2725.3545-.6338.6328-1.0752.8271-.584.2578-1.1084.3428-1.5684.252-.335-.0664-.6367-.1992-.9014-.3945-.043.4014-.1797.7588-.4082,1.0645-.2588.3447-.6387.6289-1.1299.8457-.4502.1982-.8662.2979-1.2402.2979ZM29.4775,49.6895l1.4043,3.1836c.1533.3486.3535.6484.5957.8916.2227.2236.4844.3613.7988.4219.3057.0576.6953-.0146,1.1533-.2148.2705-.1201.4912-.2607.6621-.4209-.1348.0879-.2822.167-.4424.2373-.458.2002-.8721.2617-1.2314.1836-.3545-.0801-.6611-.252-.9131-.5107-.2334-.2402-.4229-.5234-.5635-.8438l-1.3193-2.9912-.1445.0635ZM35.4102,51.8486c.0391.0459.0791.0908.1211.1338.2178.2227.4756.3613.7861.4229.3027.0635.6807-.0088,1.1211-.2021.207-.0918.3906-.207.5469-.3447-.0928.0518-.1895.1006-.292.1455-.4551.2012-.8662.2627-1.2344.1875-.3613-.0781-.6699-.251-.9199-.5156-.1484-.1572-.2793-.332-.3906-.5225l.3369.6621-.0752.0332ZM39.376,50.2266l.3555.8066.1328-.0586-.3564-.8066-.1318.0586ZM34.8154,50.4971l.1689.332-1.3174-2.9863-.1455.0635,1.168,2.6465.126-.0557ZM39.1084,49.5068l.207.2246-1.6172-3.668-.1328.0586,1.3193,2.9912c.0234.0508.0439.1025.0635.1533l.0674-.0186c.0342.0869.0645.1729.0928.2588Z"/>
        </g>
      </g>
      <g>
        <g>
          <path class="cls-1" d="M53.8647,31.3717l-.0761.1962-.3864-.2768c.3633.1782.6578.3655.8832.5611.2249.1953.393.3993.5037.6116.1103.2122.1639.4376.161.6761-.0035.2386-.0573.4929-.1619.7628l-.1474.3802-.9197-.3567.1808-.4661c.1459-.3762.2125-.7125.2006-1.0085-.0122-.2964-.1159-.5508-.3112-.7627-.1952-.2121-.4931-.3959-.8937-.5512l-3.1274-1.2128.3234-.834,5.703,2.2117-.3234.834-1.9499-.7562.3416-.0086Z"/>
          <path class="cls-1" d="M54.8545,34.7686l-1.6191-.6289.3164-.8154c.127-.3252.1855-.6133.1758-.8584-.0088-.2061-.0781-.3779-.2119-.5234-.1553-.168-.4092-.3213-.7539-.4551l-3.4766-1.3486.5947-1.5332,6.4023,2.4834-.5957,1.5332-.5-.1943c.0947.2266.1416.4678.1387.7168-.0049.2842-.0674.585-.1875.8936l-.2832.7305ZM54.2061,33.7119l.2207.0859.0117-.0312c.0879-.2256.1338-.4385.1367-.6328.002-.1641-.0312-.3154-.1016-.4629-.0205.2861-.0947.5967-.2227.9248l-.0449.1162ZM54.3018,31.2803l.957.3711.0527-.1348-.957-.3711-.0527.1348ZM50.2559,29.7109l2.7773,1.0771c.1738.0674.3301.1396.4697.2168h.0352l.0293-.0508c.0322.0156.0635.0322.0947.0479l.3037-.0068-3.6582-1.4189-.0518.1348Z"/>
        </g>
        <g>
          <path class="cls-1" d="M52.2321,35.9823l-.0952.2455-.5759-.4069c.5056.2244.8912.4913,1.1566.8012s.4228.6554.4726,1.0369-.0015.7686-.1536,1.1609c-.2029.5232-.4666.8938-.7909,1.1114-.3242.2174-.6806.3238-1.069.3191-.3888-.0051-.7836-.0851-1.1841-.2404l-.1394-.0402-3.4586-1.3413.3282-.8463,3.3973,1.3175c.286.1109.5733.1706.8618.1793.2883.0081.5548-.0672.8002-.2259.245-.1591.4435-.4347.5957-.8272.1395-.3598.1947-.696.1655-1.0082-.0297-.3124-.1414-.5887-.3352-.8284s-.4668-.4279-.8181-.5641l-3.3973-1.3175.3234-.834,5.703,2.2117-.3234.834-1.9499-.7562.4863.0192ZM50.5377,40.0237l-.0951.2453-.4922-.3319c.5088.2161.9035.4727,1.1834.7694s.4458.6267.4979.9903c.0517.3632-.0077.7659-.1789,1.2074-.2093.5397-.4768.9202-.8028,1.1421-.3258.2214-.6838.332-1.0738.3314-.3904-.0011-.7859-.079-1.1865-.2344l-3.5933-1.3935.3282-.8463,3.3973,1.3175c.286.1109.5742.1683.8644.1728.2898.0043.5564-.0713.8001-.2257.2434-.155.4412-.4287.5934-.8212.1395-.3598.1955-.698.1678-1.0143-.028-.3167-.1398-.5927-.3352-.8284-.1953-.2359-.4691-.4219-.8205-.5581l.057-.147.6888.2246Z"/>
          <path class="cls-1" d="M49.5762,44.7529c-.4355-.001-.8809-.0889-1.3223-.2598l-3.9434-1.5293.6006-1.5459,3.7461,1.4531c.2432.0947.4902.1445.7334.1475.2031-.0176.4121-.0518.5957-.168.1729-.1104.3223-.3252.4434-.6387.1182-.3057.167-.5908.1445-.8467-.0215-.2402-.1035-.4434-.251-.6221-.1533-.1855-.3779-.3359-.666-.4473l-.3496-.1348.001-.002-3.3994-1.3164.5996-1.5459,3.7471,1.4531c.2441.0947.4922.1475.7373.1543.1885-.0117.4023-.0479.585-.166.1758-.1143.3281-.333.4502-.6484.1172-.3027.165-.584.1416-.8369-.0225-.2402-.1055-.4453-.2529-.627-.1514-.1885-.374-.3398-.6621-.4512l-3.7471-1.4531.5947-1.5332,6.4023,2.4834-.5957,1.5332-.5117-.1982c.082.1914.1377.3936.165.6035.0576.4424-.002.8945-.1768,1.3457-.2295.5928-.543,1.0264-.9307,1.2871-.2832.1895-.5908.3086-.916.3574.2529.3145.4092.6641.4639,1.042.0605.4268-.0068.8975-.2002,1.3975-.2373.6094-.5547,1.0527-.9424,1.3164-.3867.2627-.8184.3965-1.2842.3965ZM45.2812,42.5361l3.2441,1.2578c.6826.2637,1.3633.3174,1.9131-.0576.2598-.1777.4844-.5029.665-.9678.1074-.2764.1641-.5332.1709-.7686-.0332.1582-.082.3193-.1455.4824-.1797.4648-.4287.8027-.7402,1.002-.3076.1924-.6426.2881-1.0078.2842-.334-.0049-.6689-.0713-.9951-.1982l-3.0469-1.1816-.0576.1475ZM51.002,39.8662c.0674.0049.1338.0078.2002.0088.3057,0,.5791-.083.8359-.2549.2568-.1729.4756-.4873.6484-.9355.082-.2129.1309-.4238.1436-.6309-.0283.1016-.0625.2041-.1025.3076-.1807.4658-.4297.8037-.7412,1.0059-.3086.2012-.6729.2969-1.0146.2871-.2148-.0068-.4297-.0381-.6426-.0938l.7031.2295-.0303.0762ZM46.8799,38.415l2.6973,1.0449.0488-.1279.3496.1143-3.0391-1.1787-.0566.1475ZM52.6611,35.916l.8203.3184.0527-.1348-.8203-.3184-.0527.1348ZM51.9619,35.5967l.3057.0117-3.7373-1.4492-.0518.1348,3.0469,1.1816c.0527.0205.1035.042.1533.0645l.0352-.0615c.085.0381.168.0771.248.1182Z"/>
        </g>
      </g>
      <g>
        <g>
          <path class="cls-1" d="M48.8225,12.3623l.085.1926-.4689.0775c.383-.1309.7236-.2067,1.0212-.2278.2972-.0209.5602.0045.7886.0763.228.072.4253.1935.5919.3643.1663.1711.308.389.4248.6539l.1646.3731-.9025.3981-.2018-.4574c-.1628-.3691-.3536-.6541-.5713-.855-.2182-.2009-.4714-.3075-.7594-.3193-.2881-.012-.6286.0688-1.0217.2421l-3.069,1.3538-.361-.8184,5.5965-2.4687.361.8184-1.9135.8441.2355-.2476Z"/>
          <path class="cls-1" d="M50.3359,14.7646l-.3535-.8008c-.1396-.3184-.3018-.5635-.4834-.7305-.1514-.1396-.3213-.2119-.5195-.2197-.1895-.0107-.4824.0527-.7949.1846l-1.1562.5098.002-.001-2.3174,1.0215-.6641-1.5039,6.2822-2.7715.6641,1.5039-.4922.2178c.2275.0928.4316.2295.6055.4092.1963.2012.3652.458.5.7637l.3154.7158-1.5879.7012ZM50.1719,12.8506c.1885.2168.3555.4893.4971.8115l.0498.1143.2168-.0957-.0137-.0303c-.0977-.2227-.2158-.4053-.3506-.543-.1152-.1191-.2461-.2031-.3994-.2568ZM45.0371,13.6074l.0586.1328,2.7256-1.2021c.1709-.0762.333-.1357.4883-.1797l.0215-.0234-.0137-.0566c.0332-.0117.0664-.0225.0996-.0332l.208-.2197-3.5879,1.582ZM49.0088,11.8564l.0586.1318.9395-.4141-.0586-.1328-.9395.415Z"/>
        </g>
        <g>
          <path class="cls-1" d="M50.9283,16.7769l.1063.2409-.6949.1195c.5162-.1988.9776-.2827,1.3844-.2513s.7624.1644,1.0674.399.5424.5446.7122.9295c.2265.5134.3021.9619.2266,1.3452-.0755.383-.2523.7102-.5303.9815-.2785.2713-.6142.4939-1.0073.6673l-.127.0702-3.394,1.4972-.3663-.8305,3.3338-1.4706c.2806-.1238.526-.2848.7362-.4827.2095-.1981.3448-.4399.4061-.7255.0607-.2857.0062-.621-.1637-1.0062-.1558-.3531-.3544-.6298-.5959-.83-.2419-.1999-.5162-.3163-.8228-.3487s-.6327.0275-.9774.1796l-3.3338,1.4706-.361-.8184,5.5965-2.4687.361.8184-1.9135.8441.3574-.3303ZM52.5878,20.8328l.1062.2407-.5827.1133c.5126-.207.9731-.3047,1.3808-.2927s.7584.1279,1.0523.3482c.2934.2203.5362.547.7273.9803.2336.5297.3135.9878.2399,1.3752-.0738.3869-.2487.7183-.5249.9936-.2768.2753-.6116.4998-1.0047.6732l-3.5262,1.5555-.3663-.8305,3.3338-1.4706c.2806-.1238.525-.2869.7334-.489.2079-.2019.343-.4438.4062-.7253.0625-.2818.0088-.6151-.1611-1.0003-.1558-.3531-.3553-.6318-.5985-.8359-.2438-.2041-.518-.3203-.8228-.3487-.3049-.0287-.63.0334-.9748.1855l-.0636-.1443.6459-.3282Z"/>
          <path class="cls-1" d="M50.2646,27.3145l-.6689-1.5166,3.6758-1.6221c.2383-.1045.4482-.2441.623-.4141.1562-.1523.2549-.3281.3018-.5381.0449-.2012-.002-.459-.1377-.7676-.1318-.2988-.2988-.5342-.4961-.6992-.1855-.1562-.3877-.2422-.6172-.2637-.2412-.0205-.5029.0303-.7881.1553l-.3438.1523-.001-.002-3.332,1.4707-.6689-1.5156,3.6768-1.6221c.2412-.1064.4531-.2451.6289-.4121.1553-.1465.2529-.3203.2969-.5312.0439-.2061-.0029-.4678-.1387-.7764-.1318-.2979-.2979-.5312-.4932-.6924-.1846-.1533-.3887-.2402-.6221-.2646-.2373-.0273-.4941.0225-.7705.1426l-1.7285.7627.0029-.002-1.9688.8672-.6621-1.5039,6.2812-2.7715.6641,1.5039-.5039.2227c.1943.0781.377.1816.5449.3115.3535.2705.6318.6328.8271,1.0752.2568.582.3418,1.1094.252,1.5684-.0664.335-.1992.6357-.3945.9004.4033.0439.7607.1816,1.0654.4102.3438.2588.6289.6387.8447,1.1289.2637.5977.3535,1.1348.2656,1.5957-.0889.4629-.2998.8623-.6289,1.1904-.3086.3066-.6836.5586-1.1172.75l-3.8691,1.707ZM50.584,26.1807l.0635.1455,3.1836-1.4043c.3486-.1543.6484-.3555.8906-.5957.2236-.2227.3613-.4844.4219-.7988.0586-.3086-.0137-.6973-.2148-1.1533-.1191-.2695-.2598-.4912-.4209-.6611.0879.1348.167.2812.2373.4414.2012.4561.2637.8711.1836,1.2314-.0781.3525-.25.6602-.5107.9131-.2402.2334-.5244.4229-.8447.5635l-2.9893,1.3184ZM48.7998,22.1367l.0635.1445,2.6484-1.1689-.0557-.125.3311-.168-2.9873,1.3174ZM52.8154,17.8193c.0518.0908.1006.1875.1455.29.2012.4551.2646.8711.1875,1.2344-.0771.3604-.25.6699-.5156.9209-.1582.1494-.3359.2812-.5303.3945l.668-.3398.0332.0752c.0469-.0391.0918-.0801.1348-.1221.2236-.2188.3623-.4766.4238-.7861.0605-.3047-.0078-.6816-.2012-1.1201-.0928-.209-.208-.3916-.3457-.5469ZM47.0215,18.1045l.0586.1328,2.9902-1.3184c.0518-.0234.1025-.0439.1533-.0635l-.0186-.0674c.0879-.0342.1738-.0654.2598-.0928l.2266-.21-3.6699,1.6191ZM51.126,16.2939l.0586.1328.8057-.3555-.0586-.1328-.8057.3555Z"/>
        </g>
      </g>
      <g>
        <g>
          <path class="cls-1" d="M2.417,24.4323l.0761-.1962.3864.2768c-.3633-.1782-.6578-.3655-.8832-.5611-.2249-.1953-.393-.3993-.5037-.6116-.1103-.2122-.1639-.4376-.161-.6761.0035-.2386.0573-.4929.1619-.7628l.1474-.3802.9197.3567-.1808.4661c-.1459.3762-.2125.7125-.2006,1.0085.0122.2964.1159.5508.3112.7627.1952.2121.4931.3959.8937.5512l3.1274,1.2128-.3234.834L.4853,24.5014l.3234-.834,1.9499.7562-.3416.0086Z"/>
          <path class="cls-1" d="M6.4023,27.1982l-6.4023-2.4834.5947-1.5332.502.1943c-.0957-.2266-.1426-.4668-.1396-.7168.0039-.2842.0664-.585.1875-.8945l.2812-.7285,1.6201.6279-.3164.8154c-.126.3252-.1846.6143-.1748.8584.0078.2061.0771.3779.2109.5234.1553.168.4092.3213.7549.4551l3.4766,1.3486-.5947,1.5332ZM2.3193,24.8105l3.6553,1.417.0518-.1348-2.7773-1.0771c-.1738-.0674-.3301-.1396-.4707-.2168h-.0332l-.0303.0508c-.0312-.0156-.0635-.0312-.0938-.0469l-.3018.0078ZM.9707,24.2871l.957.3711.0518-.1348-.957-.3711-.0518.1348ZM1.8555,22.0068l-.0117.0293c-.0889.2266-.1348.4395-.1367.6328-.002.1641.0312.3164.1016.4639.0205-.2852.0938-.5957.2217-.9248l.0449-.1162-.2197-.085Z"/>
        </g>
        <g>
          <path class="cls-1" d="M4.0496,19.8216l.0952-.2455.5759.4069c-.5056-.2244-.8912-.4913-1.1566-.8012s-.4228-.6554-.4726-1.0369.0015-.7686.1536-1.1609c.2029-.5232.4666-.8938.7909-1.1114.3242-.2174.6806-.3238,1.069-.3191.3888.0051.7836.0851,1.1841.2404l.1394.0402,3.4586,1.3413-.3282.8463-3.3973-1.3175c-.286-.1109-.5733-.1706-.8618-.1793-.2883-.0081-.5548.0672-.8002.2259-.245.1591-.4435.4347-.5957.8272-.1395.3598-.1947.696-.1655,1.0082.0297.3124.1414.5887.3352.8284s.4668.4279.8181.5641l3.3973,1.3175-.3234.834-5.703-2.2117.3234-.834,1.9499.7562-.4863-.0192ZM5.7441,15.7803l.0951-.2453.4922.3319c-.5088-.2161-.9035-.4727-1.1834-.7694s-.4458-.6267-.4979-.9903c-.0517-.3632.0077-.7659.1789-1.2074.2093-.5397.4768-.9202.8028-1.1421.3258-.2214.6838-.332,1.0738-.3314.3904.0011.7859.079,1.1865.2344l3.5933,1.3935-.3282.8463-3.3973-1.3175c-.286-.1109-.5742-.1683-.8644-.1728-.2898-.0043-.5564.0713-.8001.2257-.2434.155-.4412.4287-.5934.8212-.1395.3598-.1955.698-.1678,1.0143.028.3167.1398.5927.3352.8284.1953.2359.4691.4219.8205.5581l-.057.147-.6888-.2246Z"/>
          <path class="cls-1" d="M8.1797,22.6152l-6.4023-2.4824.5947-1.5332.5137.1992c-.083-.1924-.1387-.3945-.166-.6055-.0576-.4434.001-.8965.1758-1.3447.2305-.5947.5449-1.0283.9326-1.2871.2822-.1904.5889-.3096.915-.3584-.2539-.3145-.4102-.665-.4639-1.043-.0605-.4258.0068-.8955.2002-1.3955.2363-.6104.5527-1.0527.9414-1.3174.3867-.2627.8174-.3955,1.2803-.3955.4023-.002.8828.0889,1.3262.2598l3.9434,1.5293-.5996,1.5449-3.7471-1.4531c-.2412-.0938-.4883-.1436-.7344-.1475h-.0166c-.21,0-.3994.0547-.5762.167-.1729.1104-.3232.3262-.4453.6406-.1182.3037-.166.5889-.1436.8467.0215.2412.1025.4443.249.6211.1533.1846.3779.335.668.4473l.3516.1357-.001.002,3.3965,1.3164-.5996,1.5449-3.7461-1.4531c-.2471-.0947-.4951-.1465-.7363-.1533-.2275-.0029-.4043.0469-.5859.165-.1768.1152-.3291.333-.4502.6475-.1182.3047-.166.5859-.1426.8379.0234.2402.1064.4463.2539.6289.1514.1865.375.3379.6611.4492l1.748.6768h-.001l2.001.7764-.5947,1.5332ZM4.0127,20.1953l3.7393,1.4492.0518-.1348-3.0479-1.1816c-.0518-.0205-.1025-.041-.1523-.0635l-.0352.0615c-.0859-.0381-.1689-.0781-.249-.1191l-.3066-.0117ZM2.748,19.7051l.8213.3184.0527-.1348-.8223-.3184-.0518.1348ZM5.0801,15.9287c-.3057,0-.5791.084-.835.2559-.2578.1719-.4766.4863-.6504.9355-.082.2119-.1299.4229-.1426.6309.0283-.1016.0625-.2051.1025-.3086.1787-.4639.4287-.8027.7412-1.0059.3086-.2012.6338-.2832,1.0156-.2861.2139.0059.4307.0371.6465.0938l-.7061-.2305.0293-.0762c-.0684-.0059-.1377-.0137-.2012-.0088ZM6.3115,16.3594l3.0332,1.1768.0566-.1465-2.6982-1.0469-.0498.1289-.3418-.1123ZM6.7012,11.8018c-.3145,0-.5947.0869-.8584.2666-.2607.1768-.4834.502-.6641.9668-.1064.2754-.1631.5312-.1709.7646.0342-.1562.082-.3164.1445-.4785.1816-.4668.4307-.8037.7422-1.002.3047-.1943.6533-.3037,1.0059-.2842.3369.0059.6719.0723.9951.1982l3.0479,1.1816.0566-.1465-3.2441-1.2578c-.3555-.1377-.709-.208-1.0508-.209h-.0039Z"/>
        </g>
      </g>
      <g>
        <g>
          <path class="cls-1" d="M7.9381,43.9205l-.085-.1926.4689-.0775c-.383.1309-.7236.2067-1.0212.2278-.2972.0209-.5602-.0045-.7886-.0763-.228-.072-.4253-.1935-.5919-.3643-.1663-.1711-.308-.389-.4248-.6539l-.1646-.3731.9025-.3981.2018.4574c.1628.3691.3536.6541.5713.855.2182.2009.4714.3075.7594.3193.2881.012.6286-.0688,1.0217-.2421l3.069-1.3538.361.8184-5.5965,2.4687-.361-.8184,1.9135-.8441-.2355.2476Z"/>
          <path class="cls-1" d="M6.4297,45.8291l-.6641-1.5039.4912-.2178c-.2275-.0928-.4307-.2295-.6055-.4082-.1963-.2021-.3643-.459-.499-.7637l-.3154-.7178,1.5879-.6992.3535.7998c.1406.3193.3027.5645.4834.7314.1514.1396.3223.2119.5195.2197.2227.0176.5156-.0615.8545-.21l3.4121-1.5059.6641,1.5039-6.2822,2.7715ZM6.7539,44.708l.0586.1328.9385-.4141-.0576-.1318-.9395.4131ZM8.3438,44.0381l-.207.2188,3.5869-1.582-.0586-.1328-2.7266,1.2031c-.1709.0752-.332.1348-.4863.1787l-.0225.0244.0137.0566c-.0332.0117-.0664.0225-.0996.0332ZM5.8252,42.6025l.0137.0312c.0977.2217.2158.4043.3496.542.1152.1172.2461.2012.4004.2559-.1885-.2168-.3545-.4883-.4971-.8115l-.0498-.1133-.2168.0957Z"/>
        </g>
        <g>
          <path class="cls-1" d="M5.8323,39.5059l-.1063-.2409.6949-.1195c-.5162.1988-.9776.2827-1.3844.2513s-.7624-.1644-1.0674-.399-.5424-.5446-.7122-.9295c-.2265-.5134-.3021-.9619-.2266-1.3452.0755-.383.2523-.7102.5303-.9815.2785-.2713.6142-.4939,1.0073-.6673l.127-.0702,3.394-1.4972.3663.8305-3.3338,1.4706c-.2806.1238-.526.2848-.7362.4827-.2095.1981-.3448.4399-.4061.7255-.0607.2857-.0062.621.1637,1.0062.1558.3531.3544.6298.5959.83.2419.1999.5162.3163.8228.3487s.6327-.0275.9774-.1796l3.3338-1.4706.361.8184-5.5965,2.4687-.361-.8184,1.9135-.8441-.3574.3303ZM4.1728,35.45l-.1062-.2407.5827-.1133c-.5126.207-.9731.3047-1.3808.2927s-.7584-.1279-1.0523-.3482c-.2934-.2203-.5362-.547-.7273-.9803-.2336-.5297-.3135-.9878-.2399-1.3752.0738-.3869.2487-.7183.5249-.9936.2768-.2753.6116-.4998,1.0047-.6732l3.5262-1.5555.3663.8305-3.3338,1.4706c-.2806.1238-.525.2869-.7334.489-.2079.2019-.343.4438-.4062.7253-.0625.2818-.0088.6151.1611,1.0003.1558.3531.3553.6318.5985.8359.2438.2041.518.3203.8228.3487.3049.0287.63-.0334.9748-.1855l.0636.1443-.6459.3282Z"/>
          <path class="cls-1" d="M4.4463,41.332l-.6641-1.5039.5029-.2227c-.1943-.0771-.376-.1807-.5449-.3096-.3535-.2725-.6309-.6338-.8262-1.0762-.2568-.582-.3418-1.1104-.252-1.5693.0654-.334.1982-.6357.3936-.9004-.4014-.043-.7588-.1797-1.0645-.4082-.3457-.2607-.6299-.6406-.8447-1.1299-.2637-.5967-.3535-1.1338-.2656-1.5967.0879-.4619.2998-.8613.6289-1.1895.3086-.3076.6846-.5596,1.1172-.75l3.8691-1.707.6689,1.5156-3.6768,1.6221c-.2373.1055-.4473.2451-.624.416-.1553.1514-.2539.3271-.2998.5371-.0449.2012.002.459.1377.7676.1318.2988.2979.5342.4961.7002.1855.1553.3877.2412.6172.2627.2324.0225.5049-.0303.7881-.1553l.3438-.1523v.002l3.333-1.4717.6689,1.5166-3.6768,1.6211c-.2393.1064-.4512.2451-.6309.4141-.1533.1455-.251.3193-.2949.5293-.0449.207.002.4678.1387.7773.1318.2979.2979.5312.4922.6934.1855.1523.3896.2393.623.2637.2402.0215.5049-.0254.7871-.1494l3.6777-1.6221.6621,1.5039-6.2812,2.7715ZM4.7705,40.2109l.0586.1328.8057-.3555-.0586-.1328-.8057.3555ZM6.2959,39.5879l-.2246.208,3.668-1.6182-.0586-.1328-2.9902,1.3193c-.0518.0234-.1025.0439-.1533.0635l.0186.0674c-.0879.0342-.1738.0645-.2598.0928ZM3.9561,35.8887c-.0459.0391-.0908.0801-.1338.1211-.2246.2188-.3633.4756-.4238.7852-.0596.3057.0078.6826.2012,1.1221.0928.209.208.3926.3457.5479-.0518-.0918-.1006-.1885-.1455-.291-.2021-.457-.2656-.873-.1865-1.2363.0752-.3574.248-.667.5137-.9189.1572-.1475.3311-.2773.5215-.3896l-.6592.335-.0332-.0752ZM5.249,35.1699l.0557.126-.3164.1602,2.9727-1.3105-.0635-.1445-2.6484,1.1689ZM6.1133,29.957l-3.1836,1.4043c-.3486.1533-.6484.3545-.8906.5957-.2236.2227-.3613.4834-.4219.7979-.0586.3105.0137.6992.2148,1.1543.1191.2705.2607.4922.4219.6631-.0889-.1357-.168-.2832-.2383-.4434-.2012-.457-.2637-.8721-.1836-1.2314.0781-.3516.249-.6592.5098-.9131.2412-.2334.5244-.4229.8438-.5635l2.9912-1.3193-.0635-.1445Z"/>
        </g>
      </g>
    </g>
  </g>
</svg>