<?xml version="1.0" encoding="UTF-8"?>
<svg id="Layer_2" xmlns="http://www.w3.org/2000/svg" viewBox="0 0 66.7539 66.7539">
  <defs>
    <style>
      .cls-1 {
        fill: #1a1a1a;
      }
    </style>
  </defs>
  <g id="Layer_1-2" data-name="Layer_1">
    <g>
      <path class="cls-1" d="M33.377,66.7539C14.9727,66.7539,0,51.7812,0,33.377S14.9727,0,33.377,0s33.377,14.9727,33.377,33.377-14.9727,33.377-33.377,33.377ZM33.377,4c-16.1982,0-29.377,13.1787-29.377,29.377s13.1787,29.377,29.377,29.377,29.377-13.1787,29.377-29.377S49.5752,4,33.377,4Z"/>
      <g>
        <path class="cls-1" d="M23.3517,37.8387c.0188.0308.0376.0599.0547.0907v-.0667l-.0547-.024Z"/>
        <path class="cls-1" d="M49.7239,30.5557c0-7.8269-6.3665-14.1933-14.1933-14.1933-.0855,0-.171,0-.2565.0034v-.0034h-16.0744v.0855h-.0684v35.2268h4.2751v-9.1675l22.1467,9.424,1.6725-3.9331-8.4921-3.6133c6.2895-1.457,10.9904-7.1035,10.9904-13.8291ZM35.5306,20.6374c5.4687,0,9.9182,4.4495,9.9182,9.9182s-4.4495,9.9182-9.9182,9.9182-9.9182-4.4495-9.9182-9.9182,4.4495-9.9182,9.9182-9.9182ZM23.3517,37.8387l.0547.024v.0667c-.0171-.0308-.0359-.0599-.0547-.0907Z"/>
      </g>
    </g>
  </g>
</svg>