<?xml version="1.0" encoding="UTF-8"?>
<svg id="Layer_2" xmlns="http://www.w3.org/2000/svg" viewBox="0 0 328.2872 40.8408">
  <defs>
    <style>
      .cls-1 {
        fill: #1a1a1a;
      }
    </style>
  </defs>
  <g id="Layer_1-2" data-name="Layer_1">
    <g>
      <path class="cls-1" d="M2.0879,4.1221l1.8193-2.0879v30.7773H0V.6963h12.9531c2.4971,0,4.5312.3838,6.1016,1.1504,1.5703.7676,2.7119,1.8291,3.4258,3.1855s1.0713,2.9258,1.0713,4.71c0,1.8916-.4199,3.5059-1.2578,4.8438-.8389,1.3379-2.0615,2.374-3.667,3.1045-1.6055.7314-3.6221,1.0977-6.0488,1.0977H2.1406v-3.4258h10.4375c2.248,0,3.9961-.4814,5.2461-1.4453,1.248-.9639,1.873-2.3555,1.873-4.1748,0-1.1055-.2139-2.0879-.6426-2.9443-.4277-.8564-1.1592-1.5156-2.1943-1.9805-1.0352-.4629-2.4268-.6953-4.1748-.6953H2.0879ZM14.291,17.6641l11.3477,15.04v.1074h-4.71l-10.4375-14.5586,3.7998-.5889Z"/>
      <path class="cls-1" d="M36.7725,33.4004c-2.5693,0-4.7998-.5176-6.6904-1.5527-1.8916-1.0342-3.3545-2.5234-4.3896-4.4688-1.0352-1.9443-1.5518-4.2559-1.5518-6.9316,0-2.7471.5352-5.1025,1.6055-7.0654,1.0703-1.9619,2.5508-3.4609,4.4434-4.4961,1.8906-1.0352,4.0488-1.5527,6.4766-1.5527,2.4619,0,4.5312.4912,6.209,1.4727,1.6768.9814,2.9521,2.3281,3.8262,4.041s1.3115,3.7295,1.3115,6.0479c0,.2861.0088.6611.0273,1.124.0176.4648-.0098.9639-.0811,1.499h-21.4102v-2.9971h19.0557l-1.0176,1.1777c.0352-2.8906-.5977-5.1387-1.8994-6.7451-1.3037-1.6055-3.3457-2.4082-6.1289-2.4082-2.7119,0-4.8438.8301-6.3965,2.4893-1.5518,1.6592-2.3281,4.1123-2.3281,7.3594,0,3.0332.7842,5.4062,2.3555,7.1191,1.5693,1.7129,3.7637,2.5693,6.583,2.5693,1.6406,0,2.9795-.2588,4.0146-.7764,1.0342-.5166,1.8545-1.2129,2.4619-2.0879.6064-.874,1.0527-1.8467,1.3379-2.917l3.3193.9639c-.4287,1.6777-1.124,3.123-2.0879,4.335-.9639,1.2139-2.1943,2.1504-3.6934,2.8105s-3.2832.9902-5.3525.9902Z"/>
      <path class="cls-1" d="M67.1211,26.3887h-1.2305l.5879-3.2119c.0352,2.2842-.374,4.1748-1.2305,5.6738s-1.9902,2.623-3.3994,3.3721c-1.4102.749-3.0059,1.124-4.79,1.124-1.6777,0-3.123-.25-4.3359-.749-1.2129-.5-2.1504-1.2754-2.8096-2.3281-.6611-1.0527-.9902-2.3291-.9902-3.8271,0-2.0693.7129-3.8271,2.1406-5.2725,1.4268-1.4453,3.5859-2.168,6.4766-2.168h9.4209l.0537,3.0508h-9.0459c-1.749,0-3.0869.3398-4.0146,1.0176-.9287.6777-1.3916,1.6777-1.3916,2.9971,0,.6777.1689,1.3301.5078,1.9531.3389.625.9014,1.1338,1.6865,1.5264.7842.3926,1.8379.5879,3.1582.5879,1.6768,0,3.1396-.2754,4.3887-.8291,1.249-.5527,2.2119-1.3193,2.8906-2.3018.6777-.9805,1.0166-2.0957,1.0166-3.3457v-6.2617c0-2.2129-.4551-3.8896-1.3643-5.0312-.9102-1.1416-2.4717-1.7129-4.6836-1.7129-2.0342,0-3.6045.4902-4.71,1.4717-1.1074.9814-1.8389,2.6318-2.1953,4.9512l-3.5322-.5889c.2852-2.0342.8643-3.7197,1.7393-5.0586.874-1.3379,2.043-2.3457,3.5059-3.0234s3.2119-1.0176,5.2461-1.0176c2.2832,0,4.1299.375,5.5391,1.124,1.4102.75,2.4443,1.874,3.1045,3.3721.6602,1.499.9902,3.3008.9902,5.4062v15.5225h-3.6396v-7.2256l.9102.8027Z"/>
      <path class="cls-1" d="M77.9863,23.873l.1074.1064-.9639,1.3916c-.2139.3213-.4014.5986-.5615.8301-.1611.2324-.2412.4912-.2412.7764,0,.5352.2314.9277.6963,1.1777.4629.25,1.1055.374,1.9268.374,1.5342,0,3.1133-.0264,4.7373-.0801,1.623-.0537,3.166-.0801,4.6299-.0801,2.3545,0,4.085.5,5.1914,1.498,1.1055,1,1.6592,2.3916,1.6592,4.1758,0,1.5332-.3838,2.8096-1.1504,3.8271-.7676,1.0166-2.043,1.7656-3.8271,2.248-1.7842.4814-4.2285.7227-7.333.7227-3.1406,0-5.5938-.2061-7.3594-.6162-1.7666-.4102-3.0166-1.0166-3.7471-1.8193-.7314-.8027-1.0977-1.7588-1.0977-2.8643,0-.7852.2676-1.498.8037-2.1406.5352-.6426,1.3379-1.1592,2.4082-1.5527,1.0703-.3916,2.3906-.6416,3.9609-.749l.749.2676c-1.1426,0-2.0518.1611-2.7295.4814-.6787.3213-1.1865.7324-1.5254,1.2314-.3398.499-.5088,1.0166-.5088,1.5527,0,.749.2588,1.373.7764,1.873.5166.499,1.4268.8467,2.7295,1.0439,1.3027.1953,3.1133.2939,5.4326.2939,2.5693,0,4.5049-.1338,5.8076-.4014s2.1953-.6875,2.6768-1.2578c.4814-.5713.7227-1.3027.7227-2.1943,0-.6787-.2412-1.2852-.7227-1.8203s-1.3838-.8027-2.7031-.8027h-10.5977c-.7861,0-1.5352-.0977-2.248-.2939-.7148-.1963-1.2939-.5439-1.7402-1.0439-.4463-.499-.6689-1.1416-.6689-1.9268,0-.5703.2412-1.1152.7227-1.6328.4814-.5166,1.0791-.9365,1.793-1.2578l2.1943-1.3379ZM83.6602,10.9199l2.5156-.2676-.0527.8564-1.874-.5889c1.1777.1064,2.2568.2764,3.2383.5078.9814.2324,1.8379.5889,2.5693,1.0713.7314.4814,1.3193,1.1152,1.7666,1.8994.4453.7852.6689,1.749.6689,2.8906,0,1.6055-.3838,2.9531-1.1504,4.041-.7686,1.0889-1.9189,1.9189-3.4531,2.4893-1.5342.5713-3.4258.8564-5.6738.8564-3.2109,0-5.6738-.7314-7.3857-2.1943-1.7129-1.4629-2.5693-3.4258-2.5693-5.8877,0-1.8916.4092-3.4795,1.2305-4.7646.8203-1.2842,2.0078-2.2559,3.5596-2.917,1.5527-.6592,3.417-.9902,5.5938-.9902h11.8291v3.2656h-3.9072c-.5713,0-1.1426-.0176-1.7129-.0537-.5713-.0352-1.2578-.0615-2.0605-.0801-.8037-.0176-1.8467-.0625-3.1318-.1338ZM82.2148,11.0801c-2.2832,0-3.9434.4912-4.9775,1.4717-1.0352.9824-1.5518,2.3291-1.5518,4.042,0,1.7119.5078,3.0332,1.5254,3.96,1.0166.9287,2.7031,1.3926,5.0576,1.3926,2.3906,0,4.1396-.4639,5.2461-1.3926,1.1055-.9268,1.6592-2.248,1.6592-3.96,0-1.748-.5986-3.1045-1.793-4.0684-1.1963-.9639-2.918-1.4453-5.166-1.4453ZM76.3809,31.4736v-.9639h.6426l-.0537.9639h-.5889Z"/>
      <path class="cls-1" d="M113.207,26.3887h-1.2305l.5879-3.2119c.0352,2.2842-.374,4.1748-1.2305,5.6738s-1.9902,2.623-3.3994,3.3721c-1.4102.749-3.0059,1.124-4.79,1.124-1.6777,0-3.123-.25-4.3359-.749-1.2129-.5-2.1504-1.2754-2.8096-2.3281-.6611-1.0527-.9902-2.3291-.9902-3.8271,0-2.0693.7129-3.8271,2.1406-5.2725,1.4268-1.4453,3.5859-2.168,6.4766-2.168h9.4209l.0537,3.0508h-9.0459c-1.749,0-3.0869.3398-4.0146,1.0176-.9287.6777-1.3916,1.6777-1.3916,2.9971,0,.6777.1689,1.3301.5078,1.9531.3389.625.9014,1.1338,1.6865,1.5264.7842.3926,1.8379.5879,3.1582.5879,1.6768,0,3.1396-.2754,4.3887-.8291,1.249-.5527,2.2119-1.3193,2.8906-2.3018.6777-.9805,1.0166-2.0957,1.0166-3.3457v-6.2617c0-2.2129-.4551-3.8896-1.3643-5.0312-.9102-1.1416-2.4717-1.7129-4.6836-1.7129-2.0342,0-3.6045.4902-4.71,1.4717-1.1074.9814-1.8389,2.6318-2.1953,4.9512l-3.5322-.5889c.2852-2.0342.8643-3.7197,1.7393-5.0586.874-1.3379,2.043-2.3457,3.5059-3.0234s3.2119-1.0176,5.2461-1.0176c2.2832,0,4.1299.375,5.5391,1.124,1.4102.75,2.4443,1.874,3.1045,3.3721.6602,1.499.9902,3.3008.9902,5.4062v15.5225h-3.6396v-7.2256l.9102.8027Z"/>
      <path class="cls-1" d="M122.4658,14.5596h1.0713l-.6963,2.7832c.0713-2.248.5088-4.1035,1.3115-5.5664s1.8818-2.5693,3.2383-3.3193c1.3555-.749,2.9082-1.124,4.6562-1.124,2.248,0,4.042.4551,5.3799,1.3652s2.2832,2.1055,2.8369,3.5859c.5527,1.4814.8291,3.0967.8291,4.8447v15.6826h-3.6934v-14.8262c0-1.249-.1963-2.4268-.5879-3.5332-.3936-1.1055-1.0801-2.0068-2.0615-2.7031-.9814-.6953-2.3105-1.0439-3.9873-1.0439-1.5703,0-2.9268.2861-4.0684.8564-1.1416.5713-2.0254,1.4014-2.6494,2.4893-.624,1.0889-.9365,2.4004-.9365,3.9346v14.8262h-3.6396V7.9219h3.6396v8.5107l-.6426-1.873Z"/>
      <path class="cls-1" d="M172.4718,31.7272c.2599-.7476.6008-1.6902,1.0244-2.8294.4219-1.1375.8696-2.3328,1.3413-3.5851.4708-1.2523.9345-2.4556,1.3902-3.61.4548-1.1544.8616-2.1388,1.2194-2.9514l6.3914-15.2206h5.1222v29.2699h-3.513v-15.3176c0-1.3333.016-2.8214.049-4.4644.032-1.6412.065-3.2193.0979-4.7315.032-1.5122.0481-2.7725.0481-3.7809l1.3662,2.0978h-2.7315l1.902-1.9999c-.3578,1.1384-.8375,2.5286-1.4383,4.1707-.6026,1.643-1.2443,3.3661-1.9269,5.1711-.6836,1.805-1.3662,3.505-2.0498,5.0981l-5.8538,13.7565h-3.2682l-5.8538-13.9523c-.6836-1.6902-1.3582-3.4142-2.0248-5.1711-.6666-1.756-1.2852-3.4222-1.854-5.0002-.5687-1.5772-1.0654-2.9994-1.4873-4.2686l1.5611,2.1957h-2.0008l1.0734-2.0978c.065,1.0413.0979,2.3177.0979,3.8298v24.4645h-3.4151V3.5308h5.3661l6.4394,15.2686c.2928.7485.6666,1.7,1.1223,2.8544.4548,1.1544.9345,2.3586,1.4392,3.61.5038,1.2523.9506,2.4556,1.3413,3.61.3898,1.1544.6987,2.1219.9265,2.9024l-2.3417-2.8784h2.8294l-2.3898,2.8294Z"/>
      <path class="cls-1" d="M209.6074,26.3887h-1.2305l.5879-3.2119c.0352,2.2842-.374,4.1748-1.2305,5.6738s-1.9902,2.623-3.3994,3.3721c-1.4102.749-3.0059,1.124-4.79,1.124-1.6777,0-3.123-.25-4.3359-.749-1.2129-.5-2.1504-1.2754-2.8096-2.3281-.6611-1.0527-.9902-2.3291-.9902-3.8271,0-2.0693.7129-3.8271,2.1406-5.2725,1.4268-1.4453,3.5859-2.168,6.4766-2.168h9.4209l.0537,3.0508h-9.0459c-1.749,0-3.0869.3398-4.0146,1.0176-.9287.6777-1.3916,1.6777-1.3916,2.9971,0,.6777.1689,1.3301.5078,1.9531.3389.625.9014,1.1338,1.6865,1.5264.7842.3926,1.8379.5879,3.1582.5879,1.6768,0,3.1396-.2754,4.3887-.8291,1.249-.5527,2.2119-1.3193,2.8906-2.3018.6777-.9805,1.0166-2.0957,1.0166-3.3457v-6.2617c0-2.2129-.4551-3.8896-1.3643-5.0312-.9102-1.1416-2.4717-1.7129-4.6836-1.7129-2.0342,0-3.6045.4902-4.71,1.4717-1.1074.9814-1.8389,2.6318-2.1953,4.9512l-3.5322-.5889c.2852-2.0342.8643-3.7197,1.7393-5.0586.874-1.3379,2.043-2.3457,3.5059-3.0234s3.2119-1.0176,5.2461-1.0176c2.2832,0,4.1299.375,5.5391,1.124,1.4102.75,2.4443,1.874,3.1045,3.3721.6602,1.499.9902,3.3008.9902,5.4062v15.5225h-3.6396v-7.2256l.9102.8027Z"/>
      <path class="cls-1" d="M212.5518,7.9219h16.165v3.2656h-16.165v-3.2656ZM216.6201,25.5322V.8037h3.6396v24.4072c0,1.499.3301,2.6494.9902,3.4521s1.7217,1.2041,3.1846,1.2041c.75,0,1.4268-.0527,2.0342-.1602.6064-.1074,1.2666-.2676,1.9805-.4814l.5352,3.3721-1.6055.4277c-.5352.1426-1.0889.2412-1.6592.2949-.5713.0537-1.1963.0801-1.874.0801-1.6777,0-3.0508-.3398-4.1211-1.0166-1.0703-.6777-1.8555-1.6064-2.3555-2.7842-.5-1.1768-.749-2.5332-.749-4.0674Z"/>
      <path class="cls-1" d="M226.215,7.9219h16.165v3.2656h-16.165v-3.2656ZM230.2833,25.5322V.8037h3.6396v24.4072c0,1.499.3301,2.6494.9902,3.4521s1.7217,1.2041,3.1846,1.2041c.75,0,1.4268-.0527,2.0342-.1602.6064-.1074,1.2666-.2676,1.9805-.4814l.5352,3.3721-1.6055.4277c-.5352.1426-1.0889.2412-1.6592.2949-.5713.0537-1.1963.0801-1.874.0801-1.6777,0-3.0508-.3398-4.1211-1.0166-1.0703-.6777-1.8555-1.6064-2.3555-2.7842-.5-1.1768-.749-2.5332-.749-4.0674Z"/>
      <path class="cls-1" d="M247.1974,14.5596h1.1768l-.749,2.8369c.0713-2.2832.5166-4.1572,1.3379-5.6201s1.9004-2.5693,3.2383-3.3193c1.3389-.749,2.8818-1.124,4.6299-1.124,2.2832,0,4.0859.4551,5.4062,1.3652s2.2568,2.1055,2.8105,3.5859c.5527,1.4814.8291,3.0967.8291,4.8447v15.6826h-3.6934v-14.8262c0-1.249-.2051-2.4268-.6152-3.5332-.4102-1.1055-1.0889-2.0068-2.0342-2.7031-.9453-.6953-2.2744-1.0439-3.9873-1.0439-1.5703,0-2.9268.2861-4.0684.8564-1.1416.5713-2.0254,1.4014-2.6494,2.4893-.624,1.0889-.9365,2.4004-.9365,3.9346v14.8262h-3.6396V0h3.6396v16.4326l-.6953-1.873Z"/>
      <path class="cls-1" d="M280.3292,33.4004c-2.5693,0-4.7998-.5176-6.6904-1.5527-1.8916-1.0342-3.3545-2.5234-4.3896-4.4688-1.0352-1.9443-1.5518-4.2559-1.5518-6.9316,0-2.7471.5352-5.1025,1.6055-7.0654,1.0703-1.9619,2.5508-3.4609,4.4434-4.4961,1.8906-1.0352,4.0488-1.5527,6.4766-1.5527,2.4619,0,4.5312.4912,6.209,1.4727,1.6768.9814,2.9521,2.3281,3.8262,4.041s1.3115,3.7295,1.3115,6.0479c0,.2861.0088.6611.0273,1.124.0176.4648-.0098.9639-.0811,1.499h-21.4102v-2.9971h19.0557l-1.0176,1.1777c.0352-2.8906-.5977-5.1387-1.8994-6.7451-1.3037-1.6055-3.3457-2.4082-6.1289-2.4082-2.7119,0-4.8438.8301-6.3965,2.4893-1.5518,1.6592-2.3281,4.1123-2.3281,7.3594,0,3.0332.7842,5.4062,2.3555,7.1191,1.5693,1.7129,3.7637,2.5693,6.583,2.5693,1.6406,0,2.9795-.2588,4.0146-.7764,1.0342-.5166,1.8545-1.2129,2.4619-2.0879.6064-.874,1.0527-1.8467,1.3379-2.917l3.3193.9639c-.4287,1.6777-1.124,3.123-2.0879,4.335-.9639,1.2139-2.1943,2.1504-3.6934,2.8105s-3.2832.9902-5.3525.9902Z"/>
      <path class="cls-1" d="M311.0519,7.9219l3.1582,9.6348c.7139,2.2129,1.4189,4.4883,2.1143,6.8242.6963,2.3379,1.3652,4.6836,2.0078,7.0391l-1.7129-2.0879h2.6758l-1.7656,2.3018c.6416-2.5332,1.3105-4.9238,2.0068-7.1719.6953-2.248,1.418-4.6035,2.168-7.0654l2.8369-9.4746h3.7461l-8.3496,24.8896h-4.2285l-3.5859-11.0264c-.6787-2.1045-1.3115-4.21-1.9004-6.3154s-1.1689-4.2285-1.7393-6.3701l1.7129,2.5156h-2.4629l1.7666-2.5156c-.5713,2.1416-1.1504,4.2646-1.7393,6.3701s-1.2227,4.2109-1.9004,6.3154l-3.4795,11.0264h-4.2822l-8.4033-24.8896h3.8008l3.1045,9.4746c.8564,2.4619,1.6318,4.8525,2.3281,7.1719.6963,2.3203,1.3291,4.7109,1.9004,7.1729l-1.8203-2.4092h2.5693l-1.5518,2.248c.6768-2.3545,1.3555-4.7178,2.0332-7.0918.6777-2.373,1.3564-4.6836,2.0342-6.9316l3.0508-9.6348h3.9072Z"/>
    </g>
  </g>
</svg>